STARTFONT 2.1
COMMENT $Id: 6x13.bdf,v 1.115 2009-04-06 18:50:15+01 mgk25 Rel $
COMMENT Send bug reports to Markus Kuhn <http://www.cl.cam.ac.uk/~mgk25/>
FONT -Misc-Keeb-Medium-R-Normal--13-120-75-75-M-60-ISO10646-1
SIZE 24 150 150
FONTBOUNDINGBOX 12 26 0 -4
STARTPROPERTIES 21
FONTNAME_REGISTRY ""
FOUNDRY "Misc"
FAMILY_NAME "Keeb"
WEIGHT_NAME "Medium"
SLANT "R"
SETWIDTH_NAME "Normal"
ADD_STYLE_NAME ""
PIXEL_SIZE 13
POINT_SIZE 120
RESOLUTION_X 75
RESOLUTION_Y 75
SPACING "M"
AVERAGE_WIDTH 60
CHARSET_REGISTRY "ISO10646"
CHARSET_ENCODING "1"
DEFAULT_CHAR 0
FONT_DESCENT 4
FONT_ASCENT 22
COPYRIGHT "Public domain font.  Share and enjoy."
CAP_HEIGHT 18
X_HEIGHT 12
ENDPROPERTIES
CHARS 4121
STARTCHAR char0
ENCODING 0
BBX 12 26 0 -4
DWIDTH 12 0
SWIDTH 480 0
BITMAP
00 00
00 00
00 00
00 00
CC C0
CC C0
00 00
00 00
C0 C0
C0 C0
00 00
00 00
C0 C0
C0 C0
00 00
00 00
C0 C0
C0 C0
00 00
00 00
CC C0
CC C0
00 00
00 00
00 00
00 00
ENDCHAR
STARTCHAR space
ENCODING 32
BBX 12 26 0 -4
DWIDTH 12 0
SWIDTH 480 0
BITMAP
00 00
00 00
00 00
00 00
00 00
00 00
00 00
00 00
00 00
00 00
00 00
00 00
00 00
00 00
00 00
00 00
00 00
00 00
00 00
00 00
00 00
00 00
00 00
00 00
00 00
00 00
ENDCHAR
STARTCHAR exclam
ENCODING 33
BBX 12 26 0 -4
DWIDTH 12 0
SWIDTH 480 0
BITMAP
00 00
00 00
00 00
00 00
0C 00
0C 00
0C 00
0C 00
0C 00
0C 00
0C 00
0C 00
0C 00
0C 00
0C 00
0C 00
0C 00
0C 00
00 00
00 00
0C 00
0C 00
00 00
00 00
00 00
00 00
ENDCHAR
STARTCHAR quotedbl
ENCODING 34
BBX 12 26 0 -4
DWIDTH 12 0
SWIDTH 480 0
BITMAP
00 00
00 00
00 00
00 00
33 00
33 00
33 00
33 00
33 00
33 00
00 00
00 00
00 00
00 00
00 00
00 00
00 00
00 00
00 00
00 00
00 00
00 00
00 00
00 00
00 00
00 00
ENDCHAR
STARTCHAR numbersign
ENCODING 35
BBX 12 26 0 -4
DWIDTH 12 0
SWIDTH 480 0
BITMAP
00 00
00 00
00 00
00 00
00 00
00 00
33 00
33 00
33 00
33 00
FF C0
FF C0
33 00
33 00
FF C0
FF C0
33 00
33 00
33 00
33 00
00 00
00 00
00 00
00 00
00 00
00 00
ENDCHAR
STARTCHAR dollar
ENCODING 36
BBX 12 26 0 -4
DWIDTH 12 0
SWIDTH 480 0
BITMAP
00 00
00 00
00 00
00 00
0C 00
0C 00
3F C0
3F C0
CC 00
CC 00
CC 00
CC 00
3F 00
3F 00
0C C0
0C C0
0C C0
0C C0
FF 00
FF 00
0C 00
0C 00
00 00
00 00
00 00
00 00
ENDCHAR
STARTCHAR percent
ENCODING 37
BBX 12 26 0 -4
DWIDTH 12 0
SWIDTH 480 0
BITMAP
00 00
00 00
00 00
00 00
30 C0
30 C0
CC C0
CC C0
33 00
33 00
03 00
03 00
0C 00
0C 00
30 00
30 00
33 00
33 00
CC C0
CC C0
C3 00
C3 00
00 00
00 00
00 00
00 00
ENDCHAR
STARTCHAR ampersand
ENCODING 38
BBX 12 26 0 -4
DWIDTH 12 0
SWIDTH 480 0
BITMAP
00 00
00 00
00 00
00 00
00 00
00 00
30 00
30 00
CC 00
CC 00
CC 00
CC 00
30 00
30 00
CC 00
CC 00
C3 C0
C3 C0
C3 00
C3 00
3C C0
3C C0
00 00
00 00
00 00
00 00
ENDCHAR
STARTCHAR quotesingle
ENCODING 39
BBX 12 26 0 -4
DWIDTH 12 0
SWIDTH 480 0
BITMAP
00 00
00 00
00 00
00 00
0C 00
0C 00
0C 00
0C 00
0C 00
0C 00
00 00
00 00
00 00
00 00
00 00
00 00
00 00
00 00
00 00
00 00
00 00
00 00
00 00
00 00
00 00
00 00
ENDCHAR
STARTCHAR parenleft
ENCODING 40
BBX 12 26 0 -4
DWIDTH 12 0
SWIDTH 480 0
BITMAP
00 00
00 00
03 00
03 00
0C 00
0C 00
0C 00
0C 00
30 00
30 00
30 00
30 00
30 00
30 00
30 00
30 00
30 00
30 00
0C 00
0C 00
0C 00
0C 00
03 00
03 00
00 00
00 00
ENDCHAR
STARTCHAR parenright
ENCODING 41
BBX 12 26 0 -4
DWIDTH 12 0
SWIDTH 480 0
BITMAP
00 00
00 00
30 00
30 00
0C 00
0C 00
0C 00
0C 00
03 00
03 00
03 00
03 00
03 00
03 00
03 00
03 00
03 00
03 00
0C 00
0C 00
0C 00
0C 00
30 00
30 00
00 00
00 00
ENDCHAR
STARTCHAR asterisk
ENCODING 42
BBX 12 26 0 -4
DWIDTH 12 0
SWIDTH 480 0
BITMAP
00 00
00 00
00 00
00 00
0C 00
0C 00
CC C0
CC C0
3F 00
3F 00
CC C0
CC C0
0C 00
0C 00
00 00
00 00
00 00
00 00
00 00
00 00
00 00
00 00
00 00
00 00
00 00
00 00
ENDCHAR
STARTCHAR plus
ENCODING 43
BBX 12 26 0 -4
DWIDTH 12 0
SWIDTH 480 0
BITMAP
00 00
00 00
00 00
00 00
00 00
00 00
00 00
00 00
0C 00
0C 00
0C 00
0C 00
FF C0
FF C0
0C 00
0C 00
0C 00
0C 00
00 00
00 00
00 00
00 00
00 00
00 00
00 00
00 00
ENDCHAR
STARTCHAR comma
ENCODING 44
BBX 12 26 0 -4
DWIDTH 12 0
SWIDTH 480 0
BITMAP
00 00
00 00
00 00
00 00
00 00
00 00
00 00
00 00
00 00
00 00
00 00
00 00
00 00
00 00
00 00
00 00
00 00
00 00
0F 00
0F 00
0C 00
0C 00
30 00
30 00
00 00
00 00
ENDCHAR
STARTCHAR hyphen
ENCODING 45
BBX 12 26 0 -4
DWIDTH 12 0
SWIDTH 480 0
BITMAP
00 00
00 00
00 00
00 00
00 00
00 00
00 00
00 00
00 00
00 00
00 00
00 00
FF C0
FF C0
00 00
00 00
00 00
00 00
00 00
00 00
00 00
00 00
00 00
00 00
00 00
00 00
ENDCHAR
STARTCHAR period
ENCODING 46
BBX 12 26 0 -4
DWIDTH 12 0
SWIDTH 480 0
BITMAP
00 00
00 00
00 00
00 00
00 00
00 00
00 00
00 00
00 00
00 00
00 00
00 00
00 00
00 00
00 00
00 00
00 00
00 00
0C 00
0C 00
3F 00
3F 00
0C 00
0C 00
00 00
00 00
ENDCHAR
STARTCHAR slash
ENCODING 47
BBX 12 26 0 -4
DWIDTH 12 0
SWIDTH 480 0
BITMAP
00 00
00 00
00 00
00 00
00 C0
00 C0
00 C0
00 C0
03 00
03 00
03 00
03 00
0C 00
0C 00
30 00
30 00
30 00
30 00
C0 00
C0 00
C0 00
C0 00
00 00
00 00
00 00
00 00
ENDCHAR
STARTCHAR zero
ENCODING 48
BBX 12 26 0 -4
DWIDTH 12 0
SWIDTH 480 0
BITMAP
00 00
00 00
00 00
00 00
0C 00
0C 00
33 00
33 00
C0 C0
C0 C0
C0 C0
C0 C0
C0 C0
C0 C0
C0 C0
C0 C0
C0 C0
C0 C0
33 00
33 00
0C 00
0C 00
00 00
00 00
00 00
00 00
ENDCHAR
STARTCHAR one
ENCODING 49
BBX 12 26 0 -4
DWIDTH 12 0
SWIDTH 480 0
BITMAP
00 00
00 00
00 00
00 00
0C 00
0C 00
3C 00
3C 00
CC 00
CC 00
0C 00
0C 00
0C 00
0C 00
0C 00
0C 00
0C 00
0C 00
0C 00
0C 00
FF C0
FF C0
00 00
00 00
00 00
00 00
ENDCHAR
STARTCHAR two
ENCODING 50
BBX 12 26 0 -4
DWIDTH 12 0
SWIDTH 480 0
BITMAP
00 00
00 00
00 00
00 00
3F 00
3F 00
C0 C0
C0 C0
C0 C0
C0 C0
00 C0
00 C0
03 00
03 00
0C 00
0C 00
30 00
30 00
C0 00
C0 00
FF C0
FF C0
00 00
00 00
00 00
00 00
ENDCHAR
STARTCHAR three
ENCODING 51
BBX 12 26 0 -4
DWIDTH 12 0
SWIDTH 480 0
BITMAP
00 00
00 00
00 00
00 00
FF C0
FF C0
00 C0
00 C0
03 00
03 00
0C 00
0C 00
3F 00
3F 00
00 C0
00 C0
00 C0
00 C0
C0 C0
C0 C0
3F 00
3F 00
00 00
00 00
00 00
00 00
ENDCHAR
STARTCHAR four
ENCODING 52
BBX 12 26 0 -4
DWIDTH 12 0
SWIDTH 480 0
BITMAP
00 00
00 00
00 00
00 00
03 00
03 00
03 00
03 00
0F 00
0F 00
33 00
33 00
33 00
33 00
C3 00
C3 00
FF C0
FF C0
03 00
03 00
03 00
03 00
00 00
00 00
00 00
00 00
ENDCHAR
STARTCHAR five
ENCODING 53
BBX 12 26 0 -4
DWIDTH 12 0
SWIDTH 480 0
BITMAP
00 00
00 00
00 00
00 00
FF C0
FF C0
C0 00
C0 00
C0 00
C0 00
CF 00
CF 00
F0 C0
F0 C0
00 C0
00 C0
00 C0
00 C0
C0 C0
C0 C0
3F 00
3F 00
00 00
00 00
00 00
00 00
ENDCHAR
STARTCHAR six
ENCODING 54
BBX 12 26 0 -4
DWIDTH 12 0
SWIDTH 480 0
BITMAP
00 00
00 00
00 00
00 00
3F 00
3F 00
C0 C0
C0 C0
C0 00
C0 00
C0 00
C0 00
FF 00
FF 00
C0 C0
C0 C0
C0 C0
C0 C0
C0 C0
C0 C0
3F 00
3F 00
00 00
00 00
00 00
00 00
ENDCHAR
STARTCHAR seven
ENCODING 55
BBX 12 26 0 -4
DWIDTH 12 0
SWIDTH 480 0
BITMAP
00 00
00 00
00 00
00 00
FF C0
FF C0
00 C0
00 C0
03 00
03 00
03 00
03 00
0C 00
0C 00
0C 00
0C 00
30 00
30 00
30 00
30 00
30 00
30 00
00 00
00 00
00 00
00 00
ENDCHAR
STARTCHAR eight
ENCODING 56
BBX 12 26 0 -4
DWIDTH 12 0
SWIDTH 480 0
BITMAP
00 00
00 00
00 00
00 00
3F 00
3F 00
C0 C0
C0 C0
C0 C0
C0 C0
C0 C0
C0 C0
3F 00
3F 00
C0 C0
C0 C0
C0 C0
C0 C0
C0 C0
C0 C0
3F 00
3F 00
00 00
00 00
00 00
00 00
ENDCHAR
STARTCHAR nine
ENCODING 57
BBX 12 26 0 -4
DWIDTH 12 0
SWIDTH 480 0
BITMAP
00 00
00 00
00 00
00 00
3F 00
3F 00
C0 C0
C0 C0
C0 C0
C0 C0
C0 C0
C0 C0
3F C0
3F C0
00 C0
00 C0
00 C0
00 C0
C0 C0
C0 C0
3F 00
3F 00
00 00
00 00
00 00
00 00
ENDCHAR
STARTCHAR colon
ENCODING 58
BBX 12 26 0 -4
DWIDTH 12 0
SWIDTH 480 0
BITMAP
00 00
00 00
00 00
00 00
00 00
00 00
00 00
00 00
0C 00
0C 00
3F 00
3F 00
0C 00
0C 00
00 00
00 00
00 00
00 00
0C 00
0C 00
3F 00
3F 00
0C 00
0C 00
00 00
00 00
ENDCHAR
STARTCHAR semicolon
ENCODING 59
BBX 12 26 0 -4
DWIDTH 12 0
SWIDTH 480 0
BITMAP
00 00
00 00
00 00
00 00
00 00
00 00
00 00
00 00
0C 00
0C 00
3F 00
3F 00
0C 00
0C 00
00 00
00 00
00 00
00 00
0F 00
0F 00
0C 00
0C 00
30 00
30 00
00 00
00 00
ENDCHAR
STARTCHAR less
ENCODING 60
BBX 12 26 0 -4
DWIDTH 12 0
SWIDTH 480 0
BITMAP
00 00
00 00
00 00
00 00
00 C0
00 C0
03 00
03 00
0C 00
0C 00
30 00
30 00
C0 00
C0 00
30 00
30 00
0C 00
0C 00
03 00
03 00
00 C0
00 C0
00 00
00 00
00 00
00 00
ENDCHAR
STARTCHAR equal
ENCODING 61
BBX 12 26 0 -4
DWIDTH 12 0
SWIDTH 480 0
BITMAP
00 00
00 00
00 00
00 00
00 00
00 00
00 00
00 00
00 00
00 00
FF C0
FF C0
00 00
00 00
00 00
00 00
FF C0
FF C0
00 00
00 00
00 00
00 00
00 00
00 00
00 00
00 00
ENDCHAR
STARTCHAR greater
ENCODING 62
BBX 12 26 0 -4
DWIDTH 12 0
SWIDTH 480 0
BITMAP
00 00
00 00
00 00
00 00
C0 00
C0 00
30 00
30 00
0C 00
0C 00
03 00
03 00
00 C0
00 C0
03 00
03 00
0C 00
0C 00
30 00
30 00
C0 00
C0 00
00 00
00 00
00 00
00 00
ENDCHAR
STARTCHAR question
ENCODING 63
BBX 12 26 0 -4
DWIDTH 12 0
SWIDTH 480 0
BITMAP
00 00
00 00
00 00
00 00
3F 00
3F 00
C0 C0
C0 C0
C0 C0
C0 C0
00 C0
00 C0
03 00
03 00
0C 00
0C 00
0C 00
0C 00
00 00
00 00
0C 00
0C 00
00 00
00 00
00 00
00 00
ENDCHAR
STARTCHAR at
ENCODING 64
BBX 12 26 0 -4
DWIDTH 12 0
SWIDTH 480 0
BITMAP
00 00
00 00
00 00
00 00
3F 00
3F 00
C0 C0
C0 C0
C0 C0
C0 C0
C3 C0
C3 C0
CC C0
CC C0
CC C0
CC C0
CF 00
CF 00
C0 00
C0 00
3F C0
3F C0
00 00
00 00
00 00
00 00
ENDCHAR
STARTCHAR A
ENCODING 65
BBX 12 26 0 -4
DWIDTH 12 0
SWIDTH 480 0
BITMAP
00 00
00 00
00 00
00 00
0C 00
0C 00
33 00
33 00
C0 C0
C0 C0
C0 C0
C0 C0
C0 C0
C0 C0
FF C0
FF C0
C0 C0
C0 C0
C0 C0
C0 C0
C0 C0
C0 C0
00 00
00 00
00 00
00 00
ENDCHAR
STARTCHAR B
ENCODING 66
BBX 12 26 0 -4
DWIDTH 12 0
SWIDTH 480 0
BITMAP
00 00
00 00
00 00
00 00
FF 00
FF 00
30 C0
30 C0
30 C0
30 C0
30 C0
30 C0
3F 00
3F 00
30 C0
30 C0
30 C0
30 C0
30 C0
30 C0
FF 00
FF 00
00 00
00 00
00 00
00 00
ENDCHAR
STARTCHAR C
ENCODING 67
BBX 12 26 0 -4
DWIDTH 12 0
SWIDTH 480 0
BITMAP
00 00
00 00
00 00
00 00
3F 00
3F 00
C0 C0
C0 C0
C0 00
C0 00
C0 00
C0 00
C0 00
C0 00
C0 00
C0 00
C0 00
C0 00
C0 C0
C0 C0
3F 00
3F 00
00 00
00 00
00 00
00 00
ENDCHAR
STARTCHAR D
ENCODING 68
BBX 12 26 0 -4
DWIDTH 12 0
SWIDTH 480 0
BITMAP
00 00
00 00
00 00
00 00
FF 00
FF 00
30 C0
30 C0
30 C0
30 C0
30 C0
30 C0
30 C0
30 C0
30 C0
30 C0
30 C0
30 C0
30 C0
30 C0
FF 00
FF 00
00 00
00 00
00 00
00 00
ENDCHAR
STARTCHAR E
ENCODING 69
BBX 12 26 0 -4
DWIDTH 12 0
SWIDTH 480 0
BITMAP
00 00
00 00
00 00
00 00
FF C0
FF C0
C0 00
C0 00
C0 00
C0 00
C0 00
C0 00
FF 00
FF 00
C0 00
C0 00
C0 00
C0 00
C0 00
C0 00
FF C0
FF C0
00 00
00 00
00 00
00 00
ENDCHAR
STARTCHAR F
ENCODING 70
BBX 12 26 0 -4
DWIDTH 12 0
SWIDTH 480 0
BITMAP
00 00
00 00
00 00
00 00
FF C0
FF C0
C0 00
C0 00
C0 00
C0 00
C0 00
C0 00
FF 00
FF 00
C0 00
C0 00
C0 00
C0 00
C0 00
C0 00
C0 00
C0 00
00 00
00 00
00 00
00 00
ENDCHAR
STARTCHAR G
ENCODING 71
BBX 12 26 0 -4
DWIDTH 12 0
SWIDTH 480 0
BITMAP
00 00
00 00
00 00
00 00
3F 00
3F 00
C0 C0
C0 C0
C0 00
C0 00
C0 00
C0 00
C0 00
C0 00
C3 C0
C3 C0
C0 C0
C0 C0
C0 C0
C0 C0
3F 00
3F 00
00 00
00 00
00 00
00 00
ENDCHAR
STARTCHAR H
ENCODING 72
BBX 12 26 0 -4
DWIDTH 12 0
SWIDTH 480 0
BITMAP
00 00
00 00
00 00
00 00
C0 C0
C0 C0
C0 C0
C0 C0
C0 C0
C0 C0
C0 C0
C0 C0
FF C0
FF C0
C0 C0
C0 C0
C0 C0
C0 C0
C0 C0
C0 C0
C0 C0
C0 C0
00 00
00 00
00 00
00 00
ENDCHAR
STARTCHAR I
ENCODING 73
BBX 12 26 0 -4
DWIDTH 12 0
SWIDTH 480 0
BITMAP
00 00
00 00
00 00
00 00
3F 00
3F 00
0C 00
0C 00
0C 00
0C 00
0C 00
0C 00
0C 00
0C 00
0C 00
0C 00
0C 00
0C 00
0C 00
0C 00
3F 00
3F 00
00 00
00 00
00 00
00 00
ENDCHAR
STARTCHAR J
ENCODING 74
BBX 12 26 0 -4
DWIDTH 12 0
SWIDTH 480 0
BITMAP
00 00
00 00
00 00
00 00
0F C0
0F C0
03 00
03 00
03 00
03 00
03 00
03 00
03 00
03 00
03 00
03 00
03 00
03 00
C3 00
C3 00
3C 00
3C 00
00 00
00 00
00 00
00 00
ENDCHAR
STARTCHAR K
ENCODING 75
BBX 12 26 0 -4
DWIDTH 12 0
SWIDTH 480 0
BITMAP
00 00
00 00
00 00
00 00
C0 C0
C0 C0
C0 C0
C0 C0
C3 00
C3 00
CC 00
CC 00
F0 00
F0 00
CC 00
CC 00
C3 00
C3 00
C0 C0
C0 C0
C0 C0
C0 C0
00 00
00 00
00 00
00 00
ENDCHAR
STARTCHAR L
ENCODING 76
BBX 12 26 0 -4
DWIDTH 12 0
SWIDTH 480 0
BITMAP
00 00
00 00
00 00
00 00
C0 00
C0 00
C0 00
C0 00
C0 00
C0 00
C0 00
C0 00
C0 00
C0 00
C0 00
C0 00
C0 00
C0 00
C0 00
C0 00
FF C0
FF C0
00 00
00 00
00 00
00 00
ENDCHAR
STARTCHAR M
ENCODING 77
BBX 12 26 0 -4
DWIDTH 12 0
SWIDTH 480 0
BITMAP
00 00
00 00
00 00
00 00
C0 C0
C0 C0
C0 C0
C0 C0
F3 C0
F3 C0
CC C0
CC C0
CC C0
CC C0
C0 C0
C0 C0
C0 C0
C0 C0
C0 C0
C0 C0
C0 C0
C0 C0
00 00
00 00
00 00
00 00
ENDCHAR
STARTCHAR N
ENCODING 78
BBX 12 26 0 -4
DWIDTH 12 0
SWIDTH 480 0
BITMAP
00 00
00 00
00 00
00 00
C0 C0
C0 C0
F0 C0
F0 C0
F0 C0
F0 C0
CC C0
CC C0
CC C0
CC C0
C3 C0
C3 C0
C3 C0
C3 C0
C0 C0
C0 C0
C0 C0
C0 C0
00 00
00 00
00 00
00 00
ENDCHAR
STARTCHAR O
ENCODING 79
BBX 12 26 0 -4
DWIDTH 12 0
SWIDTH 480 0
BITMAP
00 00
00 00
00 00
00 00
3F 00
3F 00
C0 C0
C0 C0
C0 C0
C0 C0
C0 C0
C0 C0
C0 C0
C0 C0
C0 C0
C0 C0
C0 C0
C0 C0
C0 C0
C0 C0
3F 00
3F 00
00 00
00 00
00 00
00 00
ENDCHAR
STARTCHAR P
ENCODING 80
BBX 12 26 0 -4
DWIDTH 12 0
SWIDTH 480 0
BITMAP
00 00
00 00
00 00
00 00
FF 00
FF 00
C0 C0
C0 C0
C0 C0
C0 C0
C0 C0
C0 C0
FF 00
FF 00
C0 00
C0 00
C0 00
C0 00
C0 00
C0 00
C0 00
C0 00
00 00
00 00
00 00
00 00
ENDCHAR
STARTCHAR Q
ENCODING 81
BBX 12 26 0 -4
DWIDTH 12 0
SWIDTH 480 0
BITMAP
00 00
00 00
00 00
00 00
3F 00
3F 00
C0 C0
C0 C0
C0 C0
C0 C0
C0 C0
C0 C0
C0 C0
C0 C0
C0 C0
C0 C0
C0 C0
C0 C0
CC C0
CC C0
3F 00
3F 00
00 C0
00 C0
00 00
00 00
ENDCHAR
STARTCHAR R
ENCODING 82
BBX 12 26 0 -4
DWIDTH 12 0
SWIDTH 480 0
BITMAP
00 00
00 00
00 00
00 00
FF 00
FF 00
C0 C0
C0 C0
C0 C0
C0 C0
C0 C0
C0 C0
FF 00
FF 00
CC 00
CC 00
C3 00
C3 00
C0 C0
C0 C0
C0 C0
C0 C0
00 00
00 00
00 00
00 00
ENDCHAR
STARTCHAR S
ENCODING 83
BBX 12 26 0 -4
DWIDTH 12 0
SWIDTH 480 0
BITMAP
00 00
00 00
00 00
00 00
3F 00
3F 00
C0 C0
C0 C0
C0 00
C0 00
C0 00
C0 00
3F 00
3F 00
00 C0
00 C0
00 C0
00 C0
C0 C0
C0 C0
3F 00
3F 00
00 00
00 00
00 00
00 00
ENDCHAR
STARTCHAR T
ENCODING 84
BBX 12 26 0 -4
DWIDTH 12 0
SWIDTH 480 0
BITMAP
00 00
00 00
00 00
00 00
FF C0
FF C0
0C 00
0C 00
0C 00
0C 00
0C 00
0C 00
0C 00
0C 00
0C 00
0C 00
0C 00
0C 00
0C 00
0C 00
0C 00
0C 00
00 00
00 00
00 00
00 00
ENDCHAR
STARTCHAR U
ENCODING 85
BBX 12 26 0 -4
DWIDTH 12 0
SWIDTH 480 0
BITMAP
00 00
00 00
00 00
00 00
C0 C0
C0 C0
C0 C0
C0 C0
C0 C0
C0 C0
C0 C0
C0 C0
C0 C0
C0 C0
C0 C0
C0 C0
C0 C0
C0 C0
C0 C0
C0 C0
3F 00
3F 00
00 00
00 00
00 00
00 00
ENDCHAR
STARTCHAR V
ENCODING 86
BBX 12 26 0 -4
DWIDTH 12 0
SWIDTH 480 0
BITMAP
00 00
00 00
00 00
00 00
C0 C0
C0 C0
C0 C0
C0 C0
C0 C0
C0 C0
C0 C0
C0 C0
33 00
33 00
33 00
33 00
33 00
33 00
0C 00
0C 00
0C 00
0C 00
00 00
00 00
00 00
00 00
ENDCHAR
STARTCHAR W
ENCODING 87
BBX 12 26 0 -4
DWIDTH 12 0
SWIDTH 480 0
BITMAP
00 00
00 00
00 00
00 00
C0 C0
C0 C0
C0 C0
C0 C0
C0 C0
C0 C0
C0 C0
C0 C0
CC C0
CC C0
CC C0
CC C0
CC C0
CC C0
CC C0
CC C0
33 00
33 00
00 00
00 00
00 00
00 00
ENDCHAR
STARTCHAR X
ENCODING 88
BBX 12 26 0 -4
DWIDTH 12 0
SWIDTH 480 0
BITMAP
00 00
00 00
00 00
00 00
C0 C0
C0 C0
C0 C0
C0 C0
33 00
33 00
33 00
33 00
0C 00
0C 00
33 00
33 00
33 00
33 00
C0 C0
C0 C0
C0 C0
C0 C0
00 00
00 00
00 00
00 00
ENDCHAR
STARTCHAR Y
ENCODING 89
BBX 12 26 0 -4
DWIDTH 12 0
SWIDTH 480 0
BITMAP
00 00
00 00
00 00
00 00
C0 C0
C0 C0
C0 C0
C0 C0
33 00
33 00
33 00
33 00
0C 00
0C 00
0C 00
0C 00
0C 00
0C 00
0C 00
0C 00
0C 00
0C 00
00 00
00 00
00 00
00 00
ENDCHAR
STARTCHAR Z
ENCODING 90
BBX 12 26 0 -4
DWIDTH 12 0
SWIDTH 480 0
BITMAP
00 00
00 00
00 00
00 00
FF C0
FF C0
00 C0
00 C0
03 00
03 00
03 00
03 00
0C 00
0C 00
30 00
30 00
30 00
30 00
C0 00
C0 00
FF C0
FF C0
00 00
00 00
00 00
00 00
ENDCHAR
STARTCHAR bracketleft
ENCODING 91
BBX 12 26 0 -4
DWIDTH 12 0
SWIDTH 480 0
BITMAP
00 00
00 00
3F 00
3F 00
30 00
30 00
30 00
30 00
30 00
30 00
30 00
30 00
30 00
30 00
30 00
30 00
30 00
30 00
30 00
30 00
30 00
30 00
3F 00
3F 00
00 00
00 00
ENDCHAR
STARTCHAR backslash
ENCODING 92
BBX 12 26 0 -4
DWIDTH 12 0
SWIDTH 480 0
BITMAP
00 00
00 00
00 00
00 00
C0 00
C0 00
C0 00
C0 00
30 00
30 00
30 00
30 00
0C 00
0C 00
03 00
03 00
03 00
03 00
00 C0
00 C0
00 C0
00 C0
00 00
00 00
00 00
00 00
ENDCHAR
STARTCHAR bracketright
ENCODING 93
BBX 12 26 0 -4
DWIDTH 12 0
SWIDTH 480 0
BITMAP
00 00
00 00
3F 00
3F 00
03 00
03 00
03 00
03 00
03 00
03 00
03 00
03 00
03 00
03 00
03 00
03 00
03 00
03 00
03 00
03 00
03 00
03 00
3F 00
3F 00
00 00
00 00
ENDCHAR
STARTCHAR asciicircum
ENCODING 94
BBX 12 26 0 -4
DWIDTH 12 0
SWIDTH 480 0
BITMAP
00 00
00 00
00 00
00 00
0C 00
0C 00
33 00
33 00
C0 C0
C0 C0
00 00
00 00
00 00
00 00
00 00
00 00
00 00
00 00
00 00
00 00
00 00
00 00
00 00
00 00
00 00
00 00
ENDCHAR
STARTCHAR underscore
ENCODING 95
BBX 12 26 0 -4
DWIDTH 12 0
SWIDTH 480 0
BITMAP
00 00
00 00
00 00
00 00
00 00
00 00
00 00
00 00
00 00
00 00
00 00
00 00
00 00
00 00
00 00
00 00
00 00
00 00
00 00
00 00
00 00
00 00
FF C0
FF C0
00 00
00 00
ENDCHAR
STARTCHAR grave
ENCODING 96
BBX 12 26 0 -4
DWIDTH 12 0
SWIDTH 480 0
BITMAP
00 00
00 00
0C 00
0C 00
03 00
03 00
00 00
00 00
00 00
00 00
00 00
00 00
00 00
00 00
00 00
00 00
00 00
00 00
00 00
00 00
00 00
00 00
00 00
00 00
00 00
00 00
ENDCHAR
STARTCHAR a
ENCODING 97
BBX 12 26 0 -4
DWIDTH 12 0
SWIDTH 480 0
BITMAP
00 00
00 00
00 00
00 00
00 00
00 00
00 00
00 00
00 00
00 00
3F 00
3F 00
00 C0
00 C0
3F C0
3F C0
C0 C0
C0 C0
C3 C0
C3 C0
3C C0
3C C0
00 00
00 00
00 00
00 00
ENDCHAR
STARTCHAR b
ENCODING 98
BBX 12 26 0 -4
DWIDTH 12 0
SWIDTH 480 0
BITMAP
00 00
00 00
00 00
00 00
C0 00
C0 00
C0 00
C0 00
C0 00
C0 00
FF 00
FF 00
C0 C0
C0 C0
C0 C0
C0 C0
C0 C0
C0 C0
C0 C0
C0 C0
FF 00
FF 00
00 00
00 00
00 00
00 00
ENDCHAR
STARTCHAR c
ENCODING 99
BBX 12 26 0 -4
DWIDTH 12 0
SWIDTH 480 0
BITMAP
00 00
00 00
00 00
00 00
00 00
00 00
00 00
00 00
00 00
00 00
3F 00
3F 00
C0 C0
C0 C0
C0 00
C0 00
C0 00
C0 00
C0 C0
C0 C0
3F 00
3F 00
00 00
00 00
00 00
00 00
ENDCHAR
STARTCHAR d
ENCODING 100
BBX 12 26 0 -4
DWIDTH 12 0
SWIDTH 480 0
BITMAP
00 00
00 00
00 00
00 00
00 C0
00 C0
00 C0
00 C0
00 C0
00 C0
3F C0
3F C0
C0 C0
C0 C0
C0 C0
C0 C0
C0 C0
C0 C0
C0 C0
C0 C0
3F C0
3F C0
00 00
00 00
00 00
00 00
ENDCHAR
STARTCHAR e
ENCODING 101
BBX 12 26 0 -4
DWIDTH 12 0
SWIDTH 480 0
BITMAP
00 00
00 00
00 00
00 00
00 00
00 00
00 00
00 00
00 00
00 00
3F 00
3F 00
C0 C0
C0 C0
FF C0
FF C0
C0 00
C0 00
C0 C0
C0 C0
3F 00
3F 00
00 00
00 00
00 00
00 00
ENDCHAR
STARTCHAR f
ENCODING 102
BBX 12 26 0 -4
DWIDTH 12 0
SWIDTH 480 0
BITMAP
00 00
00 00
00 00
00 00
0F 00
0F 00
30 C0
30 C0
30 00
30 00
30 00
30 00
FF 00
FF 00
30 00
30 00
30 00
30 00
30 00
30 00
30 00
30 00
00 00
00 00
00 00
00 00
ENDCHAR
STARTCHAR g
ENCODING 103
BBX 12 26 0 -4
DWIDTH 12 0
SWIDTH 480 0
BITMAP
00 00
00 00
00 00
00 00
00 00
00 00
00 00
00 00
00 00
00 00
3F 00
3F 00
C0 C0
C0 C0
C0 C0
C0 C0
C0 C0
C0 C0
3F C0
3F C0
00 C0
00 C0
C0 C0
C0 C0
3F 00
3F 00
ENDCHAR
STARTCHAR h
ENCODING 104
BBX 12 26 0 -4
DWIDTH 12 0
SWIDTH 480 0
BITMAP
00 00
00 00
00 00
00 00
C0 00
C0 00
C0 00
C0 00
C0 00
C0 00
CF 00
CF 00
F0 C0
F0 C0
C0 C0
C0 C0
C0 C0
C0 C0
C0 C0
C0 C0
C0 C0
C0 C0
00 00
00 00
00 00
00 00
ENDCHAR
STARTCHAR i
ENCODING 105
BBX 12 26 0 -4
DWIDTH 12 0
SWIDTH 480 0
BITMAP
00 00
00 00
00 00
00 00
00 00
00 00
0C 00
0C 00
00 00
00 00
3C 00
3C 00
0C 00
0C 00
0C 00
0C 00
0C 00
0C 00
0C 00
0C 00
3F 00
3F 00
00 00
00 00
00 00
00 00
ENDCHAR
STARTCHAR j
ENCODING 106
BBX 12 26 0 -4
DWIDTH 12 0
SWIDTH 480 0
BITMAP
00 00
00 00
00 00
00 00
00 00
00 00
03 00
03 00
00 00
00 00
0F 00
0F 00
03 00
03 00
03 00
03 00
03 00
03 00
03 00
03 00
C3 00
C3 00
C3 00
C3 00
3C 00
3C 00
ENDCHAR
STARTCHAR k
ENCODING 107
BBX 12 26 0 -4
DWIDTH 12 0
SWIDTH 480 0
BITMAP
00 00
00 00
00 00
00 00
C0 00
C0 00
C0 00
C0 00
C0 00
C0 00
C3 00
C3 00
CC 00
CC 00
F0 00
F0 00
CC 00
CC 00
C3 00
C3 00
C0 C0
C0 C0
00 00
00 00
00 00
00 00
ENDCHAR
STARTCHAR l
ENCODING 108
BBX 12 26 0 -4
DWIDTH 12 0
SWIDTH 480 0
BITMAP
00 00
00 00
00 00
00 00
3C 00
3C 00
0C 00
0C 00
0C 00
0C 00
0C 00
0C 00
0C 00
0C 00
0C 00
0C 00
0C 00
0C 00
0C 00
0C 00
3F 00
3F 00
00 00
00 00
00 00
00 00
ENDCHAR
STARTCHAR m
ENCODING 109
BBX 12 26 0 -4
DWIDTH 12 0
SWIDTH 480 0
BITMAP
00 00
00 00
00 00
00 00
00 00
00 00
00 00
00 00
00 00
00 00
F3 00
F3 00
CC C0
CC C0
CC C0
CC C0
CC C0
CC C0
CC C0
CC C0
C0 C0
C0 C0
00 00
00 00
00 00
00 00
ENDCHAR
STARTCHAR n
ENCODING 110
BBX 12 26 0 -4
DWIDTH 12 0
SWIDTH 480 0
BITMAP
00 00
00 00
00 00
00 00
00 00
00 00
00 00
00 00
00 00
00 00
CF 00
CF 00
F0 C0
F0 C0
C0 C0
C0 C0
C0 C0
C0 C0
C0 C0
C0 C0
C0 C0
C0 C0
00 00
00 00
00 00
00 00
ENDCHAR
STARTCHAR o
ENCODING 111
BBX 12 26 0 -4
DWIDTH 12 0
SWIDTH 480 0
BITMAP
00 00
00 00
00 00
00 00
00 00
00 00
00 00
00 00
00 00
00 00
3F 00
3F 00
C0 C0
C0 C0
C0 C0
C0 C0
C0 C0
C0 C0
C0 C0
C0 C0
3F 00
3F 00
00 00
00 00
00 00
00 00
ENDCHAR
STARTCHAR p
ENCODING 112
BBX 12 26 0 -4
DWIDTH 12 0
SWIDTH 480 0
BITMAP
00 00
00 00
00 00
00 00
00 00
00 00
00 00
00 00
00 00
00 00
FF 00
FF 00
C0 C0
C0 C0
C0 C0
C0 C0
C0 C0
C0 C0
FF 00
FF 00
C0 00
C0 00
C0 00
C0 00
C0 00
C0 00
ENDCHAR
STARTCHAR q
ENCODING 113
BBX 12 26 0 -4
DWIDTH 12 0
SWIDTH 480 0
BITMAP
00 00
00 00
00 00
00 00
00 00
00 00
00 00
00 00
00 00
00 00
3F C0
3F C0
C0 C0
C0 C0
C0 C0
C0 C0
C0 C0
C0 C0
3F C0
3F C0
00 C0
00 C0
00 C0
00 C0
00 C0
00 C0
ENDCHAR
STARTCHAR r
ENCODING 114
BBX 12 26 0 -4
DWIDTH 12 0
SWIDTH 480 0
BITMAP
00 00
00 00
00 00
00 00
00 00
00 00
00 00
00 00
00 00
00 00
CF 00
CF 00
F0 C0
F0 C0
C0 00
C0 00
C0 00
C0 00
C0 00
C0 00
C0 00
C0 00
00 00
00 00
00 00
00 00
ENDCHAR
STARTCHAR s
ENCODING 115
BBX 12 26 0 -4
DWIDTH 12 0
SWIDTH 480 0
BITMAP
00 00
00 00
00 00
00 00
00 00
00 00
00 00
00 00
00 00
00 00
3F 00
3F 00
C0 C0
C0 C0
3C 00
3C 00
03 00
03 00
C0 C0
C0 C0
3F 00
3F 00
00 00
00 00
00 00
00 00
ENDCHAR
STARTCHAR t
ENCODING 116
BBX 12 26 0 -4
DWIDTH 12 0
SWIDTH 480 0
BITMAP
00 00
00 00
00 00
00 00
00 00
00 00
30 00
30 00
30 00
30 00
FF 00
FF 00
30 00
30 00
30 00
30 00
30 00
30 00
30 C0
30 C0
0F 00
0F 00
00 00
00 00
00 00
00 00
ENDCHAR
STARTCHAR u
ENCODING 117
BBX 12 26 0 -4
DWIDTH 12 0
SWIDTH 480 0
BITMAP
00 00
00 00
00 00
00 00
00 00
00 00
00 00
00 00
00 00
00 00
C0 C0
C0 C0
C0 C0
C0 C0
C0 C0
C0 C0
C0 C0
C0 C0
C3 C0
C3 C0
3C C0
3C C0
00 00
00 00
00 00
00 00
ENDCHAR
STARTCHAR v
ENCODING 118
BBX 12 26 0 -4
DWIDTH 12 0
SWIDTH 480 0
BITMAP
00 00
00 00
00 00
00 00
00 00
00 00
00 00
00 00
00 00
00 00
C0 C0
C0 C0
C0 C0
C0 C0
C0 C0
C0 C0
33 00
33 00
33 00
33 00
0C 00
0C 00
00 00
00 00
00 00
00 00
ENDCHAR
STARTCHAR w
ENCODING 119
BBX 12 26 0 -4
DWIDTH 12 0
SWIDTH 480 0
BITMAP
00 00
00 00
00 00
00 00
00 00
00 00
00 00
00 00
00 00
00 00
C0 C0
C0 C0
C0 C0
C0 C0
CC C0
CC C0
CC C0
CC C0
CC C0
CC C0
33 00
33 00
00 00
00 00
00 00
00 00
ENDCHAR
STARTCHAR x
ENCODING 120
BBX 12 26 0 -4
DWIDTH 12 0
SWIDTH 480 0
BITMAP
00 00
00 00
00 00
00 00
00 00
00 00
00 00
00 00
00 00
00 00
C0 C0
C0 C0
33 00
33 00
0C 00
0C 00
0C 00
0C 00
33 00
33 00
C0 C0
C0 C0
00 00
00 00
00 00
00 00
ENDCHAR
STARTCHAR y
ENCODING 121
BBX 12 26 0 -4
DWIDTH 12 0
SWIDTH 480 0
BITMAP
00 00
00 00
00 00
00 00
00 00
00 00
00 00
00 00
00 00
00 00
C0 C0
C0 C0
C0 C0
C0 C0
C0 C0
C0 C0
C3 C0
C3 C0
3C C0
3C C0
00 C0
00 C0
C0 C0
C0 C0
3F 00
3F 00
ENDCHAR
STARTCHAR z
ENCODING 122
BBX 12 26 0 -4
DWIDTH 12 0
SWIDTH 480 0
BITMAP
00 00
00 00
00 00
00 00
00 00
00 00
00 00
00 00
00 00
00 00
FF C0
FF C0
03 00
03 00
0C 00
0C 00
30 00
30 00
C0 00
C0 00
FF C0
FF C0
00 00
00 00
00 00
00 00
ENDCHAR
STARTCHAR braceleft
ENCODING 123
BBX 12 26 0 -4
DWIDTH 12 0
SWIDTH 480 0
BITMAP
00 00
00 00
03 C0
03 C0
0C 00
0C 00
0C 00
0C 00
0C 00
0C 00
0C 00
0C 00
F0 00
F0 00
0C 00
0C 00
0C 00
0C 00
0C 00
0C 00
0C 00
0C 00
03 C0
03 C0
00 00
00 00
ENDCHAR
STARTCHAR bar
ENCODING 124
BBX 12 26 0 -4
DWIDTH 12 0
SWIDTH 480 0
BITMAP
00 00
00 00
00 00
00 00
0C 00
0C 00
0C 00
0C 00
0C 00
0C 00
0C 00
0C 00
0C 00
0C 00
0C 00
0C 00
0C 00
0C 00
0C 00
0C 00
0C 00
0C 00
00 00
00 00
00 00
00 00
ENDCHAR
STARTCHAR braceright
ENCODING 125
BBX 12 26 0 -4
DWIDTH 12 0
SWIDTH 480 0
BITMAP
00 00
00 00
F0 00
F0 00
0C 00
0C 00
0C 00
0C 00
0C 00
0C 00
0C 00
0C 00
03 C0
03 C0
0C 00
0C 00
0C 00
0C 00
0C 00
0C 00
0C 00
0C 00
F0 00
F0 00
00 00
00 00
ENDCHAR
STARTCHAR asciitilde
ENCODING 126
BBX 12 26 0 -4
DWIDTH 12 0
SWIDTH 480 0
BITMAP
00 00
00 00
00 00
00 00
30 C0
30 C0
CC C0
CC C0
C3 00
C3 00
00 00
00 00
00 00
00 00
00 00
00 00
00 00
00 00
00 00
00 00
00 00
00 00
00 00
00 00
00 00
00 00
ENDCHAR
STARTCHAR space
ENCODING 160
BBX 12 26 0 -4
DWIDTH 12 0
SWIDTH 480 0
BITMAP
00 00
00 00
00 00
00 00
00 00
00 00
00 00
00 00
00 00
00 00
00 00
00 00
00 00
00 00
00 00
00 00
00 00
00 00
00 00
00 00
00 00
00 00
00 00
00 00
00 00
00 00
ENDCHAR
STARTCHAR exclamdown
ENCODING 161
BBX 12 26 0 -4
DWIDTH 12 0
SWIDTH 480 0
BITMAP
00 00
00 00
00 00
00 00
0C 00
0C 00
00 00
00 00
0C 00
0C 00
0C 00
0C 00
0C 00
0C 00
0C 00
0C 00
0C 00
0C 00
0C 00
0C 00
0C 00
0C 00
00 00
00 00
00 00
00 00
ENDCHAR
STARTCHAR cent
ENCODING 162
BBX 12 26 0 -4
DWIDTH 12 0
SWIDTH 480 0
BITMAP
00 00
00 00
00 00
00 00
0C 00
0C 00
3F 00
3F 00
CC C0
CC C0
CC 00
CC 00
CC 00
CC 00
CC C0
CC C0
3F 00
3F 00
0C 00
0C 00
00 00
00 00
00 00
00 00
00 00
00 00
ENDCHAR
STARTCHAR sterling
ENCODING 163
BBX 12 26 0 -4
DWIDTH 12 0
SWIDTH 480 0
BITMAP
00 00
00 00
00 00
00 00
0F 00
0F 00
30 C0
30 C0
30 00
30 00
30 00
30 00
FC 00
FC 00
30 00
30 00
30 00
30 00
30 C0
30 C0
CF 00
CF 00
00 00
00 00
00 00
00 00
ENDCHAR
STARTCHAR currency
ENCODING 164
BBX 12 26 0 -4
DWIDTH 12 0
SWIDTH 480 0
BITMAP
00 00
00 00
00 00
00 00
00 00
00 00
00 00
00 00
C0 C0
C0 C0
3F 00
3F 00
33 00
33 00
33 00
33 00
3F 00
3F 00
C0 C0
C0 C0
00 00
00 00
00 00
00 00
00 00
00 00
ENDCHAR
STARTCHAR yen
ENCODING 165
BBX 12 26 0 -4
DWIDTH 12 0
SWIDTH 480 0
BITMAP
00 00
00 00
00 00
00 00
C0 C0
C0 C0
C0 C0
C0 C0
33 00
33 00
33 00
33 00
FF C0
FF C0
0C 00
0C 00
FF C0
FF C0
0C 00
0C 00
0C 00
0C 00
00 00
00 00
00 00
00 00
ENDCHAR
STARTCHAR brokenbar
ENCODING 166
BBX 12 26 0 -4
DWIDTH 12 0
SWIDTH 480 0
BITMAP
00 00
00 00
00 00
00 00
0C 00
0C 00
0C 00
0C 00
0C 00
0C 00
0C 00
0C 00
00 00
00 00
0C 00
0C 00
0C 00
0C 00
0C 00
0C 00
0C 00
0C 00
00 00
00 00
00 00
00 00
ENDCHAR
STARTCHAR section
ENCODING 167
BBX 12 26 0 -4
DWIDTH 12 0
SWIDTH 480 0
BITMAP
00 00
00 00
0F 00
0F 00
30 C0
30 C0
30 00
30 00
0F 00
0F 00
30 C0
30 C0
30 C0
30 C0
0F 00
0F 00
00 C0
00 C0
30 C0
30 C0
0F 00
0F 00
00 00
00 00
00 00
00 00
ENDCHAR
STARTCHAR dieresis
ENCODING 168
BBX 12 26 0 -4
DWIDTH 12 0
SWIDTH 480 0
BITMAP
00 00
00 00
33 00
33 00
33 00
33 00
00 00
00 00
00 00
00 00
00 00
00 00
00 00
00 00
00 00
00 00
00 00
00 00
00 00
00 00
00 00
00 00
00 00
00 00
00 00
00 00
ENDCHAR
STARTCHAR copyright
ENCODING 169
BBX 12 26 0 -4
DWIDTH 12 0
SWIDTH 480 0
BITMAP
00 00
00 00
3F 00
3F 00
C0 C0
C0 C0
CC C0
CC C0
F3 C0
F3 C0
F0 C0
F0 C0
F3 C0
F3 C0
CC C0
CC C0
C0 C0
C0 C0
3F 00
3F 00
00 00
00 00
00 00
00 00
00 00
00 00
ENDCHAR
STARTCHAR ordfeminine
ENCODING 170
BBX 12 26 0 -4
DWIDTH 12 0
SWIDTH 480 0
BITMAP
00 00
00 00
00 00
00 00
3F 00
3F 00
00 C0
00 C0
3F C0
3F C0
C0 C0
C0 C0
3F C0
3F C0
00 00
00 00
FF C0
FF C0
00 00
00 00
00 00
00 00
00 00
00 00
00 00
00 00
ENDCHAR
STARTCHAR guillemotleft
ENCODING 171
BBX 12 26 0 -4
DWIDTH 12 0
SWIDTH 480 0
BITMAP
00 00
00 00
00 00
00 00
00 00
00 00
00 00
00 00
0C C0
0C C0
33 00
33 00
CC 00
CC 00
CC 00
CC 00
33 00
33 00
0C C0
0C C0
00 00
00 00
00 00
00 00
00 00
00 00
ENDCHAR
STARTCHAR logicalnot
ENCODING 172
BBX 12 26 0 -4
DWIDTH 12 0
SWIDTH 480 0
BITMAP
00 00
00 00
00 00
00 00
00 00
00 00
00 00
00 00
00 00
00 00
00 00
00 00
FF C0
FF C0
00 C0
00 C0
00 C0
00 C0
00 00
00 00
00 00
00 00
00 00
00 00
00 00
00 00
ENDCHAR
STARTCHAR hyphen
ENCODING 173
BBX 12 26 0 -4
DWIDTH 12 0
SWIDTH 480 0
BITMAP
00 00
00 00
00 00
00 00
00 00
00 00
00 00
00 00
00 00
00 00
00 00
00 00
3F 00
3F 00
00 00
00 00
00 00
00 00
00 00
00 00
00 00
00 00
00 00
00 00
00 00
00 00
ENDCHAR
STARTCHAR registered
ENCODING 174
BBX 12 26 0 -4
DWIDTH 12 0
SWIDTH 480 0
BITMAP
00 00
00 00
3F 00
3F 00
C0 C0
C0 C0
FC C0
FC C0
F3 C0
F3 C0
F3 C0
F3 C0
FC C0
FC C0
F3 C0
F3 C0
C0 C0
C0 C0
3F 00
3F 00
00 00
00 00
00 00
00 00
00 00
00 00
ENDCHAR
STARTCHAR macron
ENCODING 175
BBX 12 26 0 -4
DWIDTH 12 0
SWIDTH 480 0
BITMAP
00 00
00 00
00 00
00 00
FF C0
FF C0
00 00
00 00
00 00
00 00
00 00
00 00
00 00
00 00
00 00
00 00
00 00
00 00
00 00
00 00
00 00
00 00
00 00
00 00
00 00
00 00
ENDCHAR
STARTCHAR degree
ENCODING 176
BBX 12 26 0 -4
DWIDTH 12 0
SWIDTH 480 0
BITMAP
00 00
00 00
00 00
00 00
0F 00
0F 00
30 C0
30 C0
30 C0
30 C0
0F 00
0F 00
00 00
00 00
00 00
00 00
00 00
00 00
00 00
00 00
00 00
00 00
00 00
00 00
00 00
00 00
ENDCHAR
STARTCHAR plusminus
ENCODING 177
BBX 12 26 0 -4
DWIDTH 12 0
SWIDTH 480 0
BITMAP
00 00
00 00
00 00
00 00
00 00
00 00
0C 00
0C 00
0C 00
0C 00
FF C0
FF C0
0C 00
0C 00
0C 00
0C 00
00 00
00 00
FF C0
FF C0
00 00
00 00
00 00
00 00
00 00
00 00
ENDCHAR
STARTCHAR twosuperior
ENCODING 178
BBX 12 26 0 -4
DWIDTH 12 0
SWIDTH 480 0
BITMAP
00 00
00 00
30 00
30 00
CC 00
CC 00
0C 00
0C 00
30 00
30 00
FC 00
FC 00
00 00
00 00
00 00
00 00
00 00
00 00
00 00
00 00
00 00
00 00
00 00
00 00
00 00
00 00
ENDCHAR
STARTCHAR threesuperior
ENCODING 179
BBX 12 26 0 -4
DWIDTH 12 0
SWIDTH 480 0
BITMAP
00 00
00 00
30 00
30 00
CC 00
CC 00
30 00
30 00
0C 00
0C 00
F0 00
F0 00
00 00
00 00
00 00
00 00
00 00
00 00
00 00
00 00
00 00
00 00
00 00
00 00
00 00
00 00
ENDCHAR
STARTCHAR acute
ENCODING 180
BBX 12 26 0 -4
DWIDTH 12 0
SWIDTH 480 0
BITMAP
00 00
00 00
03 00
03 00
0C 00
0C 00
00 00
00 00
00 00
00 00
00 00
00 00
00 00
00 00
00 00
00 00
00 00
00 00
00 00
00 00
00 00
00 00
00 00
00 00
00 00
00 00
ENDCHAR
STARTCHAR mu
ENCODING 181
BBX 12 26 0 -4
DWIDTH 12 0
SWIDTH 480 0
BITMAP
00 00
00 00
00 00
00 00
00 00
00 00
00 00
00 00
00 00
00 00
C0 C0
C0 C0
C0 C0
C0 C0
C0 C0
C0 C0
C0 C0
C0 C0
C3 C0
C3 C0
FC C0
FC C0
C0 00
C0 00
C0 00
C0 00
ENDCHAR
STARTCHAR paragraph
ENCODING 182
BBX 12 26 0 -4
DWIDTH 12 0
SWIDTH 480 0
BITMAP
00 00
00 00
00 00
00 00
3F C0
3F C0
FC C0
FC C0
FC C0
FC C0
FC C0
FC C0
FC C0
FC C0
3C C0
3C C0
0C C0
0C C0
0C C0
0C C0
0C C0
0C C0
00 00
00 00
00 00
00 00
ENDCHAR
STARTCHAR periodcentered
ENCODING 183
BBX 12 26 0 -4
DWIDTH 12 0
SWIDTH 480 0
BITMAP
00 00
00 00
00 00
00 00
00 00
00 00
00 00
00 00
00 00
00 00
00 00
00 00
0F 00
0F 00
00 00
00 00
00 00
00 00
00 00
00 00
00 00
00 00
00 00
00 00
00 00
00 00
ENDCHAR
STARTCHAR cedilla
ENCODING 184
BBX 12 26 0 -4
DWIDTH 12 0
SWIDTH 480 0
BITMAP
00 00
00 00
00 00
00 00
00 00
00 00
00 00
00 00
00 00
00 00
00 00
00 00
00 00
00 00
00 00
00 00
00 00
00 00
00 00
00 00
00 00
00 00
03 00
03 00
0C 00
0C 00
ENDCHAR
STARTCHAR onesuperior
ENCODING 185
BBX 12 26 0 -4
DWIDTH 12 0
SWIDTH 480 0
BITMAP
00 00
00 00
30 00
30 00
F0 00
F0 00
30 00
30 00
30 00
30 00
FC 00
FC 00
00 00
00 00
00 00
00 00
00 00
00 00
00 00
00 00
00 00
00 00
00 00
00 00
00 00
00 00
ENDCHAR
STARTCHAR ordmasculine
ENCODING 186
BBX 12 26 0 -4
DWIDTH 12 0
SWIDTH 480 0
BITMAP
00 00
00 00
00 00
00 00
3F 00
3F 00
C0 C0
C0 C0
C0 C0
C0 C0
C0 C0
C0 C0
3F 00
3F 00
00 00
00 00
FF C0
FF C0
00 00
00 00
00 00
00 00
00 00
00 00
00 00
00 00
ENDCHAR
STARTCHAR guillemotright
ENCODING 187
BBX 12 26 0 -4
DWIDTH 12 0
SWIDTH 480 0
BITMAP
00 00
00 00
00 00
00 00
00 00
00 00
00 00
00 00
CC 00
CC 00
33 00
33 00
0C C0
0C C0
0C C0
0C C0
33 00
33 00
CC 00
CC 00
00 00
00 00
00 00
00 00
00 00
00 00
ENDCHAR
STARTCHAR onequarter
ENCODING 188
BBX 12 26 0 -4
DWIDTH 12 0
SWIDTH 480 0
BITMAP
00 00
00 00
30 00
30 00
F0 00
F0 00
30 00
30 00
30 00
30 00
FC 00
FC 00
00 C0
00 C0
03 C0
03 C0
0C C0
0C C0
0F C0
0F C0
00 C0
00 C0
00 00
00 00
00 00
00 00
ENDCHAR
STARTCHAR onehalf
ENCODING 189
BBX 12 26 0 -4
DWIDTH 12 0
SWIDTH 480 0
BITMAP
00 00
00 00
30 00
30 00
F0 00
F0 00
30 00
30 00
30 00
30 00
FC 00
FC 00
03 00
03 00
0C C0
0C C0
00 C0
00 C0
03 00
03 00
0F C0
0F C0
00 00
00 00
00 00
00 00
ENDCHAR
STARTCHAR threequarters
ENCODING 190
BBX 12 26 0 -4
DWIDTH 12 0
SWIDTH 480 0
BITMAP
00 00
00 00
30 00
30 00
CC 00
CC 00
30 00
30 00
0C 00
0C 00
CC 00
CC 00
30 C0
30 C0
03 C0
03 C0
0C C0
0C C0
0F C0
0F C0
00 C0
00 C0
00 00
00 00
00 00
00 00
ENDCHAR
STARTCHAR questiondown
ENCODING 191
BBX 12 26 0 -4
DWIDTH 12 0
SWIDTH 480 0
BITMAP
00 00
00 00
00 00
00 00
0C 00
0C 00
00 00
00 00
0C 00
0C 00
0C 00
0C 00
30 00
30 00
C0 00
C0 00
C0 C0
C0 C0
C0 C0
C0 C0
3F 00
3F 00
00 00
00 00
00 00
00 00
ENDCHAR
STARTCHAR Agrave
ENCODING 192
BBX 12 26 0 -4
DWIDTH 12 0
SWIDTH 480 0
BITMAP
00 00
00 00
30 00
30 00
0C 00
0C 00
00 00
00 00
0C 00
0C 00
33 00
33 00
C0 C0
C0 C0
C0 C0
C0 C0
FF C0
FF C0
C0 C0
C0 C0
C0 C0
C0 C0
00 00
00 00
00 00
00 00
ENDCHAR
STARTCHAR Aacute
ENCODING 193
BBX 12 26 0 -4
DWIDTH 12 0
SWIDTH 480 0
BITMAP
00 00
00 00
03 00
03 00
0C 00
0C 00
00 00
00 00
0C 00
0C 00
33 00
33 00
C0 C0
C0 C0
C0 C0
C0 C0
FF C0
FF C0
C0 C0
C0 C0
C0 C0
C0 C0
00 00
00 00
00 00
00 00
ENDCHAR
STARTCHAR Acircumflex
ENCODING 194
BBX 12 26 0 -4
DWIDTH 12 0
SWIDTH 480 0
BITMAP
00 00
00 00
0F 00
0F 00
30 C0
30 C0
00 00
00 00
0C 00
0C 00
33 00
33 00
C0 C0
C0 C0
C0 C0
C0 C0
FF C0
FF C0
C0 C0
C0 C0
C0 C0
C0 C0
00 00
00 00
00 00
00 00
ENDCHAR
STARTCHAR Atilde
ENCODING 195
BBX 12 26 0 -4
DWIDTH 12 0
SWIDTH 480 0
BITMAP
00 00
00 00
0C C0
0C C0
33 00
33 00
00 00
00 00
0C 00
0C 00
33 00
33 00
C0 C0
C0 C0
C0 C0
C0 C0
FF C0
FF C0
C0 C0
C0 C0
C0 C0
C0 C0
00 00
00 00
00 00
00 00
ENDCHAR
STARTCHAR Adieresis
ENCODING 196
BBX 12 26 0 -4
DWIDTH 12 0
SWIDTH 480 0
BITMAP
00 00
00 00
33 00
33 00
33 00
33 00
00 00
00 00
0C 00
0C 00
33 00
33 00
C0 C0
C0 C0
C0 C0
C0 C0
FF C0
FF C0
C0 C0
C0 C0
C0 C0
C0 C0
00 00
00 00
00 00
00 00
ENDCHAR
STARTCHAR Aring
ENCODING 197
BBX 12 26 0 -4
DWIDTH 12 0
SWIDTH 480 0
BITMAP
00 00
00 00
0C 00
0C 00
33 00
33 00
0C 00
0C 00
0C 00
0C 00
33 00
33 00
C0 C0
C0 C0
C0 C0
C0 C0
FF C0
FF C0
C0 C0
C0 C0
C0 C0
C0 C0
00 00
00 00
00 00
00 00
ENDCHAR
STARTCHAR AE
ENCODING 198
BBX 12 26 0 -4
DWIDTH 12 0
SWIDTH 480 0
BITMAP
00 00
00 00
00 00
00 00
33 C0
33 C0
CC 00
CC 00
CC 00
CC 00
CC 00
CC 00
CF 00
CF 00
FC 00
FC 00
CC 00
CC 00
CC 00
CC 00
CF C0
CF C0
00 00
00 00
00 00
00 00
ENDCHAR
STARTCHAR Ccedilla
ENCODING 199
BBX 12 26 0 -4
DWIDTH 12 0
SWIDTH 480 0
BITMAP
00 00
00 00
00 00
00 00
3F 00
3F 00
C0 C0
C0 C0
C0 00
C0 00
C0 00
C0 00
C0 00
C0 00
C0 00
C0 00
C0 00
C0 00
C0 C0
C0 C0
3F 00
3F 00
0C 00
0C 00
30 00
30 00
ENDCHAR
STARTCHAR Egrave
ENCODING 200
BBX 12 26 0 -4
DWIDTH 12 0
SWIDTH 480 0
BITMAP
00 00
00 00
30 00
30 00
0C 00
0C 00
00 00
00 00
FF C0
FF C0
C0 00
C0 00
C0 00
C0 00
FF 00
FF 00
C0 00
C0 00
C0 00
C0 00
FF C0
FF C0
00 00
00 00
00 00
00 00
ENDCHAR
STARTCHAR Eacute
ENCODING 201
BBX 12 26 0 -4
DWIDTH 12 0
SWIDTH 480 0
BITMAP
00 00
00 00
03 00
03 00
0C 00
0C 00
00 00
00 00
FF C0
FF C0
C0 00
C0 00
C0 00
C0 00
FF 00
FF 00
C0 00
C0 00
C0 00
C0 00
FF C0
FF C0
00 00
00 00
00 00
00 00
ENDCHAR
STARTCHAR Ecircumflex
ENCODING 202
BBX 12 26 0 -4
DWIDTH 12 0
SWIDTH 480 0
BITMAP
00 00
00 00
0F 00
0F 00
30 C0
30 C0
00 00
00 00
FF C0
FF C0
C0 00
C0 00
C0 00
C0 00
FF 00
FF 00
C0 00
C0 00
C0 00
C0 00
FF C0
FF C0
00 00
00 00
00 00
00 00
ENDCHAR
STARTCHAR Edieresis
ENCODING 203
BBX 12 26 0 -4
DWIDTH 12 0
SWIDTH 480 0
BITMAP
00 00
00 00
33 00
33 00
33 00
33 00
00 00
00 00
FF C0
FF C0
C0 00
C0 00
C0 00
C0 00
FF 00
FF 00
C0 00
C0 00
C0 00
C0 00
FF C0
FF C0
00 00
00 00
00 00
00 00
ENDCHAR
STARTCHAR Igrave
ENCODING 204
BBX 12 26 0 -4
DWIDTH 12 0
SWIDTH 480 0
BITMAP
00 00
00 00
30 00
30 00
0C 00
0C 00
00 00
00 00
3F 00
3F 00
0C 00
0C 00
0C 00
0C 00
0C 00
0C 00
0C 00
0C 00
0C 00
0C 00
3F 00
3F 00
00 00
00 00
00 00
00 00
ENDCHAR
STARTCHAR Iacute
ENCODING 205
BBX 12 26 0 -4
DWIDTH 12 0
SWIDTH 480 0
BITMAP
00 00
00 00
03 00
03 00
0C 00
0C 00
00 00
00 00
3F 00
3F 00
0C 00
0C 00
0C 00
0C 00
0C 00
0C 00
0C 00
0C 00
0C 00
0C 00
3F 00
3F 00
00 00
00 00
00 00
00 00
ENDCHAR
STARTCHAR Icircumflex
ENCODING 206
BBX 12 26 0 -4
DWIDTH 12 0
SWIDTH 480 0
BITMAP
00 00
00 00
0F 00
0F 00
30 C0
30 C0
00 00
00 00
3F 00
3F 00
0C 00
0C 00
0C 00
0C 00
0C 00
0C 00
0C 00
0C 00
0C 00
0C 00
3F 00
3F 00
00 00
00 00
00 00
00 00
ENDCHAR
STARTCHAR Idieresis
ENCODING 207
BBX 12 26 0 -4
DWIDTH 12 0
SWIDTH 480 0
BITMAP
00 00
00 00
33 00
33 00
33 00
33 00
00 00
00 00
3F 00
3F 00
0C 00
0C 00
0C 00
0C 00
0C 00
0C 00
0C 00
0C 00
0C 00
0C 00
3F 00
3F 00
00 00
00 00
00 00
00 00
ENDCHAR
STARTCHAR Eth
ENCODING 208
BBX 12 26 0 -4
DWIDTH 12 0
SWIDTH 480 0
BITMAP
00 00
00 00
00 00
00 00
FF 00
FF 00
30 C0
30 C0
30 C0
30 C0
30 C0
30 C0
FC C0
FC C0
30 C0
30 C0
30 C0
30 C0
30 C0
30 C0
FF 00
FF 00
00 00
00 00
00 00
00 00
ENDCHAR
STARTCHAR Ntilde
ENCODING 209
BBX 12 26 0 -4
DWIDTH 12 0
SWIDTH 480 0
BITMAP
00 00
00 00
0C C0
0C C0
33 00
33 00
00 00
00 00
C0 C0
C0 C0
C0 C0
C0 C0
F0 C0
F0 C0
CC C0
CC C0
C3 C0
C3 C0
C0 C0
C0 C0
C0 C0
C0 C0
00 00
00 00
00 00
00 00
ENDCHAR
STARTCHAR Ograve
ENCODING 210
BBX 12 26 0 -4
DWIDTH 12 0
SWIDTH 480 0
BITMAP
00 00
00 00
30 00
30 00
0C 00
0C 00
00 00
00 00
3F 00
3F 00
C0 C0
C0 C0
C0 C0
C0 C0
C0 C0
C0 C0
C0 C0
C0 C0
C0 C0
C0 C0
3F 00
3F 00
00 00
00 00
00 00
00 00
ENDCHAR
STARTCHAR Oacute
ENCODING 211
BBX 12 26 0 -4
DWIDTH 12 0
SWIDTH 480 0
BITMAP
00 00
00 00
03 00
03 00
0C 00
0C 00
00 00
00 00
3F 00
3F 00
C0 C0
C0 C0
C0 C0
C0 C0
C0 C0
C0 C0
C0 C0
C0 C0
C0 C0
C0 C0
3F 00
3F 00
00 00
00 00
00 00
00 00
ENDCHAR
STARTCHAR Ocircumflex
ENCODING 212
BBX 12 26 0 -4
DWIDTH 12 0
SWIDTH 480 0
BITMAP
00 00
00 00
0F 00
0F 00
30 C0
30 C0
00 00
00 00
3F 00
3F 00
C0 C0
C0 C0
C0 C0
C0 C0
C0 C0
C0 C0
C0 C0
C0 C0
C0 C0
C0 C0
3F 00
3F 00
00 00
00 00
00 00
00 00
ENDCHAR
STARTCHAR Otilde
ENCODING 213
BBX 12 26 0 -4
DWIDTH 12 0
SWIDTH 480 0
BITMAP
00 00
00 00
0C C0
0C C0
33 00
33 00
00 00
00 00
3F 00
3F 00
C0 C0
C0 C0
C0 C0
C0 C0
C0 C0
C0 C0
C0 C0
C0 C0
C0 C0
C0 C0
3F 00
3F 00
00 00
00 00
00 00
00 00
ENDCHAR
STARTCHAR Odieresis
ENCODING 214
BBX 12 26 0 -4
DWIDTH 12 0
SWIDTH 480 0
BITMAP
00 00
00 00
33 00
33 00
33 00
33 00
00 00
00 00
3F 00
3F 00
C0 C0
C0 C0
C0 C0
C0 C0
C0 C0
C0 C0
C0 C0
C0 C0
C0 C0
C0 C0
3F 00
3F 00
00 00
00 00
00 00
00 00
ENDCHAR
STARTCHAR multiply
ENCODING 215
BBX 12 26 0 -4
DWIDTH 12 0
SWIDTH 480 0
BITMAP
00 00
00 00
00 00
00 00
00 00
00 00
00 00
00 00
00 00
00 00
C0 C0
C0 C0
33 00
33 00
0C 00
0C 00
33 00
33 00
C0 C0
C0 C0
00 00
00 00
00 00
00 00
00 00
00 00
ENDCHAR
STARTCHAR Oslash
ENCODING 216
BBX 12 26 0 -4
DWIDTH 12 0
SWIDTH 480 0
BITMAP
00 00
00 00
00 C0
00 C0
3F 00
3F 00
C3 C0
C3 C0
C3 C0
C3 C0
CC C0
CC C0
CC C0
CC C0
CC C0
CC C0
F0 C0
F0 C0
F0 C0
F0 C0
3F 00
3F 00
C0 00
C0 00
00 00
00 00
ENDCHAR
STARTCHAR Ugrave
ENCODING 217
BBX 12 26 0 -4
DWIDTH 12 0
SWIDTH 480 0
BITMAP
00 00
00 00
30 00
30 00
0C 00
0C 00
00 00
00 00
C0 C0
C0 C0
C0 C0
C0 C0
C0 C0
C0 C0
C0 C0
C0 C0
C0 C0
C0 C0
C0 C0
C0 C0
3F 00
3F 00
00 00
00 00
00 00
00 00
ENDCHAR
STARTCHAR Uacute
ENCODING 218
BBX 12 26 0 -4
DWIDTH 12 0
SWIDTH 480 0
BITMAP
00 00
00 00
03 00
03 00
0C 00
0C 00
00 00
00 00
C0 C0
C0 C0
C0 C0
C0 C0
C0 C0
C0 C0
C0 C0
C0 C0
C0 C0
C0 C0
C0 C0
C0 C0
3F 00
3F 00
00 00
00 00
00 00
00 00
ENDCHAR
STARTCHAR Ucircumflex
ENCODING 219
BBX 12 26 0 -4
DWIDTH 12 0
SWIDTH 480 0
BITMAP
00 00
00 00
0F 00
0F 00
30 C0
30 C0
00 00
00 00
C0 C0
C0 C0
C0 C0
C0 C0
C0 C0
C0 C0
C0 C0
C0 C0
C0 C0
C0 C0
C0 C0
C0 C0
3F 00
3F 00
00 00
00 00
00 00
00 00
ENDCHAR
STARTCHAR Udieresis
ENCODING 220
BBX 12 26 0 -4
DWIDTH 12 0
SWIDTH 480 0
BITMAP
00 00
00 00
33 00
33 00
33 00
33 00
00 00
00 00
C0 C0
C0 C0
C0 C0
C0 C0
C0 C0
C0 C0
C0 C0
C0 C0
C0 C0
C0 C0
C0 C0
C0 C0
3F 00
3F 00
00 00
00 00
00 00
00 00
ENDCHAR
STARTCHAR Yacute
ENCODING 221
BBX 12 26 0 -4
DWIDTH 12 0
SWIDTH 480 0
BITMAP
00 00
00 00
03 00
03 00
0C 00
0C 00
00 00
00 00
C0 C0
C0 C0
C0 C0
C0 C0
33 00
33 00
0C 00
0C 00
0C 00
0C 00
0C 00
0C 00
0C 00
0C 00
00 00
00 00
00 00
00 00
ENDCHAR
STARTCHAR Thorn
ENCODING 222
BBX 12 26 0 -4
DWIDTH 12 0
SWIDTH 480 0
BITMAP
00 00
00 00
00 00
00 00
C0 00
C0 00
FF 00
FF 00
C0 C0
C0 C0
C0 C0
C0 C0
C0 C0
C0 C0
FF 00
FF 00
C0 00
C0 00
C0 00
C0 00
C0 00
C0 00
00 00
00 00
00 00
00 00
ENDCHAR
STARTCHAR germandbls
ENCODING 223
BBX 12 26 0 -4
DWIDTH 12 0
SWIDTH 480 0
BITMAP
00 00
00 00
00 00
00 00
3C 00
3C 00
C3 00
C3 00
C3 00
C3 00
CC 00
CC 00
CC 00
CC 00
C3 00
C3 00
C0 C0
C0 C0
C0 C0
C0 C0
CF 00
CF 00
00 00
00 00
00 00
00 00
ENDCHAR
STARTCHAR agrave
ENCODING 224
BBX 12 26 0 -4
DWIDTH 12 0
SWIDTH 480 0
BITMAP
00 00
00 00
00 00
00 00
30 00
30 00
0C 00
0C 00
00 00
00 00
3F 00
3F 00
00 C0
00 C0
3F C0
3F C0
C0 C0
C0 C0
C3 C0
C3 C0
3C C0
3C C0
00 00
00 00
00 00
00 00
ENDCHAR
STARTCHAR aacute
ENCODING 225
BBX 12 26 0 -4
DWIDTH 12 0
SWIDTH 480 0
BITMAP
00 00
00 00
00 00
00 00
03 00
03 00
0C 00
0C 00
00 00
00 00
3F 00
3F 00
00 C0
00 C0
3F C0
3F C0
C0 C0
C0 C0
C3 C0
C3 C0
3C C0
3C C0
00 00
00 00
00 00
00 00
ENDCHAR
STARTCHAR acircumflex
ENCODING 226
BBX 12 26 0 -4
DWIDTH 12 0
SWIDTH 480 0
BITMAP
00 00
00 00
00 00
00 00
0F 00
0F 00
30 C0
30 C0
00 00
00 00
3F 00
3F 00
00 C0
00 C0
3F C0
3F C0
C0 C0
C0 C0
C3 C0
C3 C0
3C C0
3C C0
00 00
00 00
00 00
00 00
ENDCHAR
STARTCHAR atilde
ENCODING 227
BBX 12 26 0 -4
DWIDTH 12 0
SWIDTH 480 0
BITMAP
00 00
00 00
00 00
00 00
0C C0
0C C0
33 00
33 00
00 00
00 00
3F 00
3F 00
00 C0
00 C0
3F C0
3F C0
C0 C0
C0 C0
C3 C0
C3 C0
3C C0
3C C0
00 00
00 00
00 00
00 00
ENDCHAR
STARTCHAR adieresis
ENCODING 228
BBX 12 26 0 -4
DWIDTH 12 0
SWIDTH 480 0
BITMAP
00 00
00 00
00 00
00 00
33 00
33 00
33 00
33 00
00 00
00 00
3F 00
3F 00
00 C0
00 C0
3F C0
3F C0
C0 C0
C0 C0
C3 C0
C3 C0
3C C0
3C C0
00 00
00 00
00 00
00 00
ENDCHAR
STARTCHAR aring
ENCODING 229
BBX 12 26 0 -4
DWIDTH 12 0
SWIDTH 480 0
BITMAP
00 00
00 00
0F 00
0F 00
30 C0
30 C0
0F 00
0F 00
00 00
00 00
3F 00
3F 00
00 C0
00 C0
3F C0
3F C0
C0 C0
C0 C0
C3 C0
C3 C0
3C C0
3C C0
00 00
00 00
00 00
00 00
ENDCHAR
STARTCHAR ae
ENCODING 230
BBX 12 26 0 -4
DWIDTH 12 0
SWIDTH 480 0
BITMAP
00 00
00 00
00 00
00 00
00 00
00 00
00 00
00 00
00 00
00 00
3F 00
3F 00
0C C0
0C C0
3F 00
3F 00
CC 00
CC 00
CC C0
CC C0
33 00
33 00
00 00
00 00
00 00
00 00
ENDCHAR
STARTCHAR ccedilla
ENCODING 231
BBX 12 26 0 -4
DWIDTH 12 0
SWIDTH 480 0
BITMAP
00 00
00 00
00 00
00 00
00 00
00 00
00 00
00 00
00 00
00 00
3F 00
3F 00
C0 C0
C0 C0
C0 00
C0 00
C0 00
C0 00
C0 C0
C0 C0
3F 00
3F 00
0C 00
0C 00
30 00
30 00
ENDCHAR
STARTCHAR egrave
ENCODING 232
BBX 12 26 0 -4
DWIDTH 12 0
SWIDTH 480 0
BITMAP
00 00
00 00
00 00
00 00
30 00
30 00
0C 00
0C 00
00 00
00 00
3F 00
3F 00
C0 C0
C0 C0
FF C0
FF C0
C0 00
C0 00
C0 C0
C0 C0
3F 00
3F 00
00 00
00 00
00 00
00 00
ENDCHAR
STARTCHAR eacute
ENCODING 233
BBX 12 26 0 -4
DWIDTH 12 0
SWIDTH 480 0
BITMAP
00 00
00 00
00 00
00 00
03 00
03 00
0C 00
0C 00
00 00
00 00
3F 00
3F 00
C0 C0
C0 C0
FF C0
FF C0
C0 00
C0 00
C0 C0
C0 C0
3F 00
3F 00
00 00
00 00
00 00
00 00
ENDCHAR
STARTCHAR ecircumflex
ENCODING 234
BBX 12 26 0 -4
DWIDTH 12 0
SWIDTH 480 0
BITMAP
00 00
00 00
00 00
00 00
0F 00
0F 00
30 C0
30 C0
00 00
00 00
3F 00
3F 00
C0 C0
C0 C0
FF C0
FF C0
C0 00
C0 00
C0 C0
C0 C0
3F 00
3F 00
00 00
00 00
00 00
00 00
ENDCHAR
STARTCHAR edieresis
ENCODING 235
BBX 12 26 0 -4
DWIDTH 12 0
SWIDTH 480 0
BITMAP
00 00
00 00
00 00
00 00
33 00
33 00
33 00
33 00
00 00
00 00
3F 00
3F 00
C0 C0
C0 C0
FF C0
FF C0
C0 00
C0 00
C0 C0
C0 C0
3F 00
3F 00
00 00
00 00
00 00
00 00
ENDCHAR
STARTCHAR igrave
ENCODING 236
BBX 12 26 0 -4
DWIDTH 12 0
SWIDTH 480 0
BITMAP
00 00
00 00
00 00
00 00
30 00
30 00
0C 00
0C 00
00 00
00 00
3C 00
3C 00
0C 00
0C 00
0C 00
0C 00
0C 00
0C 00
0C 00
0C 00
3F 00
3F 00
00 00
00 00
00 00
00 00
ENDCHAR
STARTCHAR iacute
ENCODING 237
BBX 12 26 0 -4
DWIDTH 12 0
SWIDTH 480 0
BITMAP
00 00
00 00
00 00
00 00
03 00
03 00
0C 00
0C 00
00 00
00 00
3C 00
3C 00
0C 00
0C 00
0C 00
0C 00
0C 00
0C 00
0C 00
0C 00
3F 00
3F 00
00 00
00 00
00 00
00 00
ENDCHAR
STARTCHAR icircumflex
ENCODING 238
BBX 12 26 0 -4
DWIDTH 12 0
SWIDTH 480 0
BITMAP
00 00
00 00
00 00
00 00
0F 00
0F 00
30 C0
30 C0
00 00
00 00
3C 00
3C 00
0C 00
0C 00
0C 00
0C 00
0C 00
0C 00
0C 00
0C 00
3F 00
3F 00
00 00
00 00
00 00
00 00
ENDCHAR
STARTCHAR idieresis
ENCODING 239
BBX 12 26 0 -4
DWIDTH 12 0
SWIDTH 480 0
BITMAP
00 00
00 00
00 00
00 00
33 00
33 00
33 00
33 00
00 00
00 00
3C 00
3C 00
0C 00
0C 00
0C 00
0C 00
0C 00
0C 00
0C 00
0C 00
3F 00
3F 00
00 00
00 00
00 00
00 00
ENDCHAR
STARTCHAR eth
ENCODING 240
BBX 12 26 0 -4
DWIDTH 12 0
SWIDTH 480 0
BITMAP
00 00
00 00
33 00
33 00
0C 00
0C 00
3C 00
3C 00
03 00
03 00
3F 00
3F 00
C0 C0
C0 C0
C0 C0
C0 C0
C0 C0
C0 C0
C0 C0
C0 C0
3F 00
3F 00
00 00
00 00
00 00
00 00
ENDCHAR
STARTCHAR ntilde
ENCODING 241
BBX 12 26 0 -4
DWIDTH 12 0
SWIDTH 480 0
BITMAP
00 00
00 00
00 00
00 00
0C C0
0C C0
33 00
33 00
00 00
00 00
CF 00
CF 00
F0 C0
F0 C0
C0 C0
C0 C0
C0 C0
C0 C0
C0 C0
C0 C0
C0 C0
C0 C0
00 00
00 00
00 00
00 00
ENDCHAR
STARTCHAR ograve
ENCODING 242
BBX 12 26 0 -4
DWIDTH 12 0
SWIDTH 480 0
BITMAP
00 00
00 00
00 00
00 00
30 00
30 00
0C 00
0C 00
00 00
00 00
3F 00
3F 00
C0 C0
C0 C0
C0 C0
C0 C0
C0 C0
C0 C0
C0 C0
C0 C0
3F 00
3F 00
00 00
00 00
00 00
00 00
ENDCHAR
STARTCHAR oacute
ENCODING 243
BBX 12 26 0 -4
DWIDTH 12 0
SWIDTH 480 0
BITMAP
00 00
00 00
00 00
00 00
03 00
03 00
0C 00
0C 00
00 00
00 00
3F 00
3F 00
C0 C0
C0 C0
C0 C0
C0 C0
C0 C0
C0 C0
C0 C0
C0 C0
3F 00
3F 00
00 00
00 00
00 00
00 00
ENDCHAR
STARTCHAR ocircumflex
ENCODING 244
BBX 12 26 0 -4
DWIDTH 12 0
SWIDTH 480 0
BITMAP
00 00
00 00
00 00
00 00
0F 00
0F 00
30 C0
30 C0
00 00
00 00
3F 00
3F 00
C0 C0
C0 C0
C0 C0
C0 C0
C0 C0
C0 C0
C0 C0
C0 C0
3F 00
3F 00
00 00
00 00
00 00
00 00
ENDCHAR
STARTCHAR otilde
ENCODING 245
BBX 12 26 0 -4
DWIDTH 12 0
SWIDTH 480 0
BITMAP
00 00
00 00
00 00
00 00
0C C0
0C C0
33 00
33 00
00 00
00 00
3F 00
3F 00
C0 C0
C0 C0
C0 C0
C0 C0
C0 C0
C0 C0
C0 C0
C0 C0
3F 00
3F 00
00 00
00 00
00 00
00 00
ENDCHAR
STARTCHAR odieresis
ENCODING 246
BBX 12 26 0 -4
DWIDTH 12 0
SWIDTH 480 0
BITMAP
00 00
00 00
00 00
00 00
33 00
33 00
33 00
33 00
00 00
00 00
3F 00
3F 00
C0 C0
C0 C0
C0 C0
C0 C0
C0 C0
C0 C0
C0 C0
C0 C0
3F 00
3F 00
00 00
00 00
00 00
00 00
ENDCHAR
STARTCHAR divide
ENCODING 247
BBX 12 26 0 -4
DWIDTH 12 0
SWIDTH 480 0
BITMAP
00 00
00 00
00 00
00 00
00 00
00 00
0C 00
0C 00
0C 00
0C 00
00 00
00 00
FF C0
FF C0
00 00
00 00
0C 00
0C 00
0C 00
0C 00
00 00
00 00
00 00
00 00
00 00
00 00
ENDCHAR
STARTCHAR oslash
ENCODING 248
BBX 12 26 0 -4
DWIDTH 12 0
SWIDTH 480 0
BITMAP
00 00
00 00
00 00
00 00
00 00
00 00
00 00
00 00
00 C0
00 C0
3F 00
3F 00
C3 C0
C3 C0
CC C0
CC C0
CC C0
CC C0
F0 C0
F0 C0
3F 00
3F 00
C0 00
C0 00
00 00
00 00
ENDCHAR
STARTCHAR ugrave
ENCODING 249
BBX 12 26 0 -4
DWIDTH 12 0
SWIDTH 480 0
BITMAP
00 00
00 00
00 00
00 00
30 00
30 00
0C 00
0C 00
00 00
00 00
C0 C0
C0 C0
C0 C0
C0 C0
C0 C0
C0 C0
C0 C0
C0 C0
C3 C0
C3 C0
3C C0
3C C0
00 00
00 00
00 00
00 00
ENDCHAR
STARTCHAR uacute
ENCODING 250
BBX 12 26 0 -4
DWIDTH 12 0
SWIDTH 480 0
BITMAP
00 00
00 00
00 00
00 00
03 00
03 00
0C 00
0C 00
00 00
00 00
C0 C0
C0 C0
C0 C0
C0 C0
C0 C0
C0 C0
C0 C0
C0 C0
C3 C0
C3 C0
3C C0
3C C0
00 00
00 00
00 00
00 00
ENDCHAR
STARTCHAR ucircumflex
ENCODING 251
BBX 12 26 0 -4
DWIDTH 12 0
SWIDTH 480 0
BITMAP
00 00
00 00
00 00
00 00
0F 00
0F 00
30 C0
30 C0
00 00
00 00
C0 C0
C0 C0
C0 C0
C0 C0
C0 C0
C0 C0
C0 C0
C0 C0
C3 C0
C3 C0
3C C0
3C C0
00 00
00 00
00 00
00 00
ENDCHAR
STARTCHAR udieresis
ENCODING 252
BBX 12 26 0 -4
DWIDTH 12 0
SWIDTH 480 0
BITMAP
00 00
00 00
00 00
00 00
33 00
33 00
33 00
33 00
00 00
00 00
C0 C0
C0 C0
C0 C0
C0 C0
C0 C0
C0 C0
C0 C0
C0 C0
C3 C0
C3 C0
3C C0
3C C0
00 00
00 00
00 00
00 00
ENDCHAR
STARTCHAR yacute
ENCODING 253
BBX 12 26 0 -4
DWIDTH 12 0
SWIDTH 480 0
BITMAP
00 00
00 00
00 00
00 00
03 00
03 00
0C 00
0C 00
00 00
00 00
C0 C0
C0 C0
C0 C0
C0 C0
C0 C0
C0 C0
C3 C0
C3 C0
3C C0
3C C0
00 C0
00 C0
C0 C0
C0 C0
3F 00
3F 00
ENDCHAR
STARTCHAR thorn
ENCODING 254
BBX 12 26 0 -4
DWIDTH 12 0
SWIDTH 480 0
BITMAP
00 00
00 00
00 00
00 00
00 00
00 00
C0 00
C0 00
C0 00
C0 00
CF 00
CF 00
F0 C0
F0 C0
C0 C0
C0 C0
C0 C0
C0 C0
F0 C0
F0 C0
CF 00
CF 00
C0 00
C0 00
C0 00
C0 00
ENDCHAR
STARTCHAR ydieresis
ENCODING 255
BBX 12 26 0 -4
DWIDTH 12 0
SWIDTH 480 0
BITMAP
00 00
00 00
00 00
00 00
33 00
33 00
33 00
33 00
00 00
00 00
C0 C0
C0 C0
C0 C0
C0 C0
C0 C0
C0 C0
C3 C0
C3 C0
3C C0
3C C0
00 C0
00 C0
C0 C0
C0 C0
3F 00
3F 00
ENDCHAR
STARTCHAR Amacron
ENCODING 256
BBX 12 26 0 -4
DWIDTH 12 0
SWIDTH 480 0
BITMAP
00 00
00 00
FF C0
FF C0
00 00
00 00
0C 00
0C 00
33 00
33 00
C0 C0
C0 C0
C0 C0
C0 C0
FF C0
FF C0
C0 C0
C0 C0
C0 C0
C0 C0
C0 C0
C0 C0
00 00
00 00
00 00
00 00
ENDCHAR
STARTCHAR amacron
ENCODING 257
BBX 12 26 0 -4
DWIDTH 12 0
SWIDTH 480 0
BITMAP
00 00
00 00
00 00
00 00
00 00
00 00
FF C0
FF C0
00 00
00 00
3F 00
3F 00
00 C0
00 C0
3F C0
3F C0
C0 C0
C0 C0
C3 C0
C3 C0
3C C0
3C C0
00 00
00 00
00 00
00 00
ENDCHAR
STARTCHAR Abreve
ENCODING 258
BBX 12 26 0 -4
DWIDTH 12 0
SWIDTH 480 0
BITMAP
00 00
00 00
C0 C0
C0 C0
3F 00
3F 00
00 00
00 00
0C 00
0C 00
33 00
33 00
C0 C0
C0 C0
C0 C0
C0 C0
FF C0
FF C0
C0 C0
C0 C0
C0 C0
C0 C0
00 00
00 00
00 00
00 00
ENDCHAR
STARTCHAR abreve
ENCODING 259
BBX 12 26 0 -4
DWIDTH 12 0
SWIDTH 480 0
BITMAP
00 00
00 00
00 00
00 00
C0 C0
C0 C0
3F 00
3F 00
00 00
00 00
3F 00
3F 00
00 C0
00 C0
3F C0
3F C0
C0 C0
C0 C0
C3 C0
C3 C0
3C C0
3C C0
00 00
00 00
00 00
00 00
ENDCHAR
STARTCHAR Aogonek
ENCODING 260
BBX 12 26 0 -4
DWIDTH 12 0
SWIDTH 480 0
BITMAP
00 00
00 00
00 00
00 00
0C 00
0C 00
33 00
33 00
C0 C0
C0 C0
C0 C0
C0 C0
C0 C0
C0 C0
FF C0
FF C0
C0 C0
C0 C0
C0 C0
C0 C0
C0 C0
C0 C0
00 C0
00 C0
00 30
00 30
ENDCHAR
STARTCHAR aogonek
ENCODING 261
BBX 12 26 0 -4
DWIDTH 12 0
SWIDTH 480 0
BITMAP
00 00
00 00
00 00
00 00
00 00
00 00
00 00
00 00
00 00
00 00
3F 00
3F 00
00 C0
00 C0
3F C0
3F C0
C0 C0
C0 C0
C3 C0
C3 C0
3C C0
3C C0
00 C0
00 C0
00 30
00 30
ENDCHAR
STARTCHAR Cacute
ENCODING 262
BBX 12 26 0 -4
DWIDTH 12 0
SWIDTH 480 0
BITMAP
00 00
00 00
03 00
03 00
0C 00
0C 00
00 00
00 00
3F 00
3F 00
C0 C0
C0 C0
C0 00
C0 00
C0 00
C0 00
C0 00
C0 00
C0 C0
C0 C0
3F 00
3F 00
00 00
00 00
00 00
00 00
ENDCHAR
STARTCHAR cacute
ENCODING 263
BBX 12 26 0 -4
DWIDTH 12 0
SWIDTH 480 0
BITMAP
00 00
00 00
00 00
00 00
03 00
03 00
0C 00
0C 00
00 00
00 00
3F 00
3F 00
C0 C0
C0 C0
C0 00
C0 00
C0 00
C0 00
C0 C0
C0 C0
3F 00
3F 00
00 00
00 00
00 00
00 00
ENDCHAR
STARTCHAR Ccircumflex
ENCODING 264
BBX 12 26 0 -4
DWIDTH 12 0
SWIDTH 480 0
BITMAP
00 00
00 00
0F 00
0F 00
30 C0
30 C0
00 00
00 00
3F 00
3F 00
C0 C0
C0 C0
C0 00
C0 00
C0 00
C0 00
C0 00
C0 00
C0 C0
C0 C0
3F 00
3F 00
00 00
00 00
00 00
00 00
ENDCHAR
STARTCHAR ccircumflex
ENCODING 265
BBX 12 26 0 -4
DWIDTH 12 0
SWIDTH 480 0
BITMAP
00 00
00 00
00 00
00 00
0F 00
0F 00
30 C0
30 C0
00 00
00 00
3F 00
3F 00
C0 C0
C0 C0
C0 00
C0 00
C0 00
C0 00
C0 C0
C0 C0
3F 00
3F 00
00 00
00 00
00 00
00 00
ENDCHAR
STARTCHAR Cdotaccent
ENCODING 266
BBX 12 26 0 -4
DWIDTH 12 0
SWIDTH 480 0
BITMAP
00 00
00 00
0C 00
0C 00
0C 00
0C 00
00 00
00 00
3F 00
3F 00
C0 C0
C0 C0
C0 00
C0 00
C0 00
C0 00
C0 00
C0 00
C0 C0
C0 C0
3F 00
3F 00
00 00
00 00
00 00
00 00
ENDCHAR
STARTCHAR cdotaccent
ENCODING 267
BBX 12 26 0 -4
DWIDTH 12 0
SWIDTH 480 0
BITMAP
00 00
00 00
00 00
00 00
0C 00
0C 00
0C 00
0C 00
00 00
00 00
3F 00
3F 00
C0 C0
C0 C0
C0 00
C0 00
C0 00
C0 00
C0 C0
C0 C0
3F 00
3F 00
00 00
00 00
00 00
00 00
ENDCHAR
STARTCHAR Ccaron
ENCODING 268
BBX 12 26 0 -4
DWIDTH 12 0
SWIDTH 480 0
BITMAP
00 00
00 00
30 C0
30 C0
0F 00
0F 00
00 00
00 00
3F 00
3F 00
C0 C0
C0 C0
C0 00
C0 00
C0 00
C0 00
C0 00
C0 00
C0 C0
C0 C0
3F 00
3F 00
00 00
00 00
00 00
00 00
ENDCHAR
STARTCHAR ccaron
ENCODING 269
BBX 12 26 0 -4
DWIDTH 12 0
SWIDTH 480 0
BITMAP
00 00
00 00
00 00
00 00
30 C0
30 C0
0F 00
0F 00
00 00
00 00
3F 00
3F 00
C0 C0
C0 C0
C0 00
C0 00
C0 00
C0 00
C0 C0
C0 C0
3F 00
3F 00
00 00
00 00
00 00
00 00
ENDCHAR
STARTCHAR Dcaron
ENCODING 270
BBX 12 26 0 -4
DWIDTH 12 0
SWIDTH 480 0
BITMAP
00 00
00 00
30 C0
30 C0
0F 00
0F 00
00 00
00 00
FF 00
FF 00
30 C0
30 C0
30 C0
30 C0
30 C0
30 C0
30 C0
30 C0
30 C0
30 C0
FF 00
FF 00
00 00
00 00
00 00
00 00
ENDCHAR
STARTCHAR dcaron
ENCODING 271
BBX 12 26 0 -4
DWIDTH 12 0
SWIDTH 480 0
BITMAP
30 C0
30 C0
0F 00
0F 00
00 00
00 00
00 C0
00 C0
00 C0
00 C0
3F C0
3F C0
C0 C0
C0 C0
C0 C0
C0 C0
C0 C0
C0 C0
C0 C0
C0 C0
3F C0
3F C0
00 00
00 00
00 00
00 00
ENDCHAR
STARTCHAR Dcroat
ENCODING 272
BBX 12 26 0 -4
DWIDTH 12 0
SWIDTH 480 0
BITMAP
00 00
00 00
00 00
00 00
FF 00
FF 00
30 C0
30 C0
30 C0
30 C0
30 C0
30 C0
FC C0
FC C0
30 C0
30 C0
30 C0
30 C0
30 C0
30 C0
FF 00
FF 00
00 00
00 00
00 00
00 00
ENDCHAR
STARTCHAR dcroat
ENCODING 273
BBX 12 26 0 -4
DWIDTH 12 0
SWIDTH 480 0
BITMAP
00 00
00 00
00 00
00 00
00 C0
00 C0
03 F0
03 F0
00 C0
00 C0
3F C0
3F C0
C0 C0
C0 C0
C0 C0
C0 C0
C0 C0
C0 C0
C0 C0
C0 C0
3F C0
3F C0
00 00
00 00
00 00
00 00
ENDCHAR
STARTCHAR Emacron
ENCODING 274
BBX 12 26 0 -4
DWIDTH 12 0
SWIDTH 480 0
BITMAP
00 00
00 00
FF C0
FF C0
00 00
00 00
FF C0
FF C0
C0 00
C0 00
C0 00
C0 00
FF 00
FF 00
C0 00
C0 00
C0 00
C0 00
C0 00
C0 00
FF C0
FF C0
00 00
00 00
00 00
00 00
ENDCHAR
STARTCHAR emacron
ENCODING 275
BBX 12 26 0 -4
DWIDTH 12 0
SWIDTH 480 0
BITMAP
00 00
00 00
00 00
00 00
00 00
00 00
FF C0
FF C0
00 00
00 00
3F 00
3F 00
C0 C0
C0 C0
FF C0
FF C0
C0 00
C0 00
C0 C0
C0 C0
3F 00
3F 00
00 00
00 00
00 00
00 00
ENDCHAR
STARTCHAR Ebreve
ENCODING 276
BBX 12 26 0 -4
DWIDTH 12 0
SWIDTH 480 0
BITMAP
00 00
00 00
C0 C0
C0 C0
3F 00
3F 00
00 00
00 00
FF C0
FF C0
C0 00
C0 00
C0 00
C0 00
FF 00
FF 00
C0 00
C0 00
C0 00
C0 00
FF C0
FF C0
00 00
00 00
00 00
00 00
ENDCHAR
STARTCHAR ebreve
ENCODING 277
BBX 12 26 0 -4
DWIDTH 12 0
SWIDTH 480 0
BITMAP
00 00
00 00
00 00
00 00
C0 C0
C0 C0
3F 00
3F 00
00 00
00 00
3F 00
3F 00
C0 C0
C0 C0
FF C0
FF C0
C0 00
C0 00
C0 C0
C0 C0
3F 00
3F 00
00 00
00 00
00 00
00 00
ENDCHAR
STARTCHAR Edotaccent
ENCODING 278
BBX 12 26 0 -4
DWIDTH 12 0
SWIDTH 480 0
BITMAP
00 00
00 00
0C 00
0C 00
0C 00
0C 00
00 00
00 00
FF C0
FF C0
C0 00
C0 00
C0 00
C0 00
FF 00
FF 00
C0 00
C0 00
C0 00
C0 00
FF C0
FF C0
00 00
00 00
00 00
00 00
ENDCHAR
STARTCHAR edotaccent
ENCODING 279
BBX 12 26 0 -4
DWIDTH 12 0
SWIDTH 480 0
BITMAP
00 00
00 00
00 00
00 00
0C 00
0C 00
0C 00
0C 00
00 00
00 00
3F 00
3F 00
C0 C0
C0 C0
FF C0
FF C0
C0 00
C0 00
C0 C0
C0 C0
3F 00
3F 00
00 00
00 00
00 00
00 00
ENDCHAR
STARTCHAR Eogonek
ENCODING 280
BBX 12 26 0 -4
DWIDTH 12 0
SWIDTH 480 0
BITMAP
00 00
00 00
00 00
00 00
FF C0
FF C0
C0 00
C0 00
C0 00
C0 00
C0 00
C0 00
FF 00
FF 00
C0 00
C0 00
C0 00
C0 00
C0 00
C0 00
FF C0
FF C0
0C 00
0C 00
03 00
03 00
ENDCHAR
STARTCHAR eogonek
ENCODING 281
BBX 12 26 0 -4
DWIDTH 12 0
SWIDTH 480 0
BITMAP
00 00
00 00
00 00
00 00
00 00
00 00
00 00
00 00
00 00
00 00
3F 00
3F 00
C0 C0
C0 C0
FF C0
FF C0
C0 00
C0 00
C0 C0
C0 C0
3F 00
3F 00
0C 00
0C 00
03 00
03 00
ENDCHAR
STARTCHAR Ecaron
ENCODING 282
BBX 12 26 0 -4
DWIDTH 12 0
SWIDTH 480 0
BITMAP
00 00
00 00
30 C0
30 C0
0F 00
0F 00
00 00
00 00
FF C0
FF C0
C0 00
C0 00
C0 00
C0 00
FF 00
FF 00
C0 00
C0 00
C0 00
C0 00
FF C0
FF C0
00 00
00 00
00 00
00 00
ENDCHAR
STARTCHAR ecaron
ENCODING 283
BBX 12 26 0 -4
DWIDTH 12 0
SWIDTH 480 0
BITMAP
00 00
00 00
00 00
00 00
30 C0
30 C0
0F 00
0F 00
00 00
00 00
3F 00
3F 00
C0 C0
C0 C0
FF C0
FF C0
C0 00
C0 00
C0 C0
C0 C0
3F 00
3F 00
00 00
00 00
00 00
00 00
ENDCHAR
STARTCHAR Gcircumflex
ENCODING 284
BBX 12 26 0 -4
DWIDTH 12 0
SWIDTH 480 0
BITMAP
00 00
00 00
0F 00
0F 00
30 C0
30 C0
00 00
00 00
3F 00
3F 00
C0 C0
C0 C0
C0 00
C0 00
C0 00
C0 00
C3 C0
C3 C0
C0 C0
C0 C0
3F 00
3F 00
00 00
00 00
00 00
00 00
ENDCHAR
STARTCHAR gcircumflex
ENCODING 285
BBX 12 26 0 -4
DWIDTH 12 0
SWIDTH 480 0
BITMAP
00 00
00 00
00 00
00 00
0F 00
0F 00
30 C0
30 C0
00 00
00 00
3F 00
3F 00
C0 C0
C0 C0
C0 C0
C0 C0
C0 C0
C0 C0
3F C0
3F C0
00 C0
00 C0
C0 C0
C0 C0
3F 00
3F 00
ENDCHAR
STARTCHAR Gbreve
ENCODING 286
BBX 12 26 0 -4
DWIDTH 12 0
SWIDTH 480 0
BITMAP
00 00
00 00
C0 C0
C0 C0
3F 00
3F 00
00 00
00 00
3F 00
3F 00
C0 C0
C0 C0
C0 00
C0 00
C0 00
C0 00
C3 C0
C3 C0
C0 C0
C0 C0
3F 00
3F 00
00 00
00 00
00 00
00 00
ENDCHAR
STARTCHAR gbreve
ENCODING 287
BBX 12 26 0 -4
DWIDTH 12 0
SWIDTH 480 0
BITMAP
00 00
00 00
00 00
00 00
C0 C0
C0 C0
3F 00
3F 00
00 00
00 00
3F 00
3F 00
C0 C0
C0 C0
C0 C0
C0 C0
C0 C0
C0 C0
3F C0
3F C0
00 C0
00 C0
C0 C0
C0 C0
3F 00
3F 00
ENDCHAR
STARTCHAR Gdotaccent
ENCODING 288
BBX 12 26 0 -4
DWIDTH 12 0
SWIDTH 480 0
BITMAP
00 00
00 00
0C 00
0C 00
0C 00
0C 00
00 00
00 00
3F 00
3F 00
C0 C0
C0 C0
C0 00
C0 00
C0 00
C0 00
C3 C0
C3 C0
C0 C0
C0 C0
3F 00
3F 00
00 00
00 00
00 00
00 00
ENDCHAR
STARTCHAR gdotaccent
ENCODING 289
BBX 12 26 0 -4
DWIDTH 12 0
SWIDTH 480 0
BITMAP
00 00
00 00
00 00
00 00
0C 00
0C 00
0C 00
0C 00
00 00
00 00
3F 00
3F 00
C0 C0
C0 C0
C0 C0
C0 C0
C0 C0
C0 C0
3F C0
3F C0
00 C0
00 C0
C0 C0
C0 C0
3F 00
3F 00
ENDCHAR
STARTCHAR Gcommaaccent
ENCODING 290
BBX 12 26 0 -4
DWIDTH 12 0
SWIDTH 480 0
BITMAP
00 00
00 00
00 00
00 00
3F 00
3F 00
C0 C0
C0 C0
C0 00
C0 00
C0 00
C0 00
C0 00
C0 00
C3 C0
C3 C0
C0 C0
C0 C0
C0 C0
C0 C0
3F 00
3F 00
0C 00
0C 00
30 00
30 00
ENDCHAR
STARTCHAR gcommaaccent
ENCODING 291
BBX 12 26 0 -4
DWIDTH 12 0
SWIDTH 480 0
BITMAP
00 00
00 00
03 00
03 00
0C 00
0C 00
3C 00
3C 00
00 00
00 00
3F 00
3F 00
C0 C0
C0 C0
C0 C0
C0 C0
C0 C0
C0 C0
3F C0
3F C0
00 C0
00 C0
C0 C0
C0 C0
3F 00
3F 00
ENDCHAR
STARTCHAR Hcircumflex
ENCODING 292
BBX 12 26 0 -4
DWIDTH 12 0
SWIDTH 480 0
BITMAP
00 00
00 00
0F 00
0F 00
30 C0
30 C0
00 00
00 00
C0 C0
C0 C0
C0 C0
C0 C0
C0 C0
C0 C0
FF C0
FF C0
C0 C0
C0 C0
C0 C0
C0 C0
C0 C0
C0 C0
00 00
00 00
00 00
00 00
ENDCHAR
STARTCHAR hcircumflex
ENCODING 293
BBX 12 26 0 -4
DWIDTH 12 0
SWIDTH 480 0
BITMAP
00 00
00 00
0F 00
0F 00
30 C0
30 C0
00 00
00 00
C0 00
C0 00
C0 00
C0 00
CF 00
CF 00
F0 C0
F0 C0
C0 C0
C0 C0
C0 C0
C0 C0
C0 C0
C0 C0
00 00
00 00
00 00
00 00
ENDCHAR
STARTCHAR Hbar
ENCODING 294
BBX 12 26 0 -4
DWIDTH 12 0
SWIDTH 480 0
BITMAP
00 00
00 00
00 00
00 00
C0 C0
C0 C0
C0 C0
C0 C0
FF C0
FF C0
C0 C0
C0 C0
FF C0
FF C0
C0 C0
C0 C0
C0 C0
C0 C0
C0 C0
C0 C0
C0 C0
C0 C0
00 00
00 00
00 00
00 00
ENDCHAR
STARTCHAR hbar
ENCODING 295
BBX 12 26 0 -4
DWIDTH 12 0
SWIDTH 480 0
BITMAP
00 00
00 00
00 00
00 00
C0 00
C0 00
FF 00
FF 00
C0 00
C0 00
CF 00
CF 00
F0 C0
F0 C0
C0 C0
C0 C0
C0 C0
C0 C0
C0 C0
C0 C0
C0 C0
C0 C0
00 00
00 00
00 00
00 00
ENDCHAR
STARTCHAR Itilde
ENCODING 296
BBX 12 26 0 -4
DWIDTH 12 0
SWIDTH 480 0
BITMAP
00 00
00 00
0C C0
0C C0
33 00
33 00
00 00
00 00
3F 00
3F 00
0C 00
0C 00
0C 00
0C 00
0C 00
0C 00
0C 00
0C 00
0C 00
0C 00
3F 00
3F 00
00 00
00 00
00 00
00 00
ENDCHAR
STARTCHAR itilde
ENCODING 297
BBX 12 26 0 -4
DWIDTH 12 0
SWIDTH 480 0
BITMAP
00 00
00 00
00 00
00 00
33 00
33 00
CC 00
CC 00
00 00
00 00
3C 00
3C 00
0C 00
0C 00
0C 00
0C 00
0C 00
0C 00
0C 00
0C 00
3F 00
3F 00
00 00
00 00
00 00
00 00
ENDCHAR
STARTCHAR Imacron
ENCODING 298
BBX 12 26 0 -4
DWIDTH 12 0
SWIDTH 480 0
BITMAP
00 00
00 00
FF C0
FF C0
00 00
00 00
3F 00
3F 00
0C 00
0C 00
0C 00
0C 00
0C 00
0C 00
0C 00
0C 00
0C 00
0C 00
0C 00
0C 00
3F 00
3F 00
00 00
00 00
00 00
00 00
ENDCHAR
STARTCHAR imacron
ENCODING 299
BBX 12 26 0 -4
DWIDTH 12 0
SWIDTH 480 0
BITMAP
00 00
00 00
00 00
00 00
00 00
00 00
FF C0
FF C0
00 00
00 00
3C 00
3C 00
0C 00
0C 00
0C 00
0C 00
0C 00
0C 00
0C 00
0C 00
3F 00
3F 00
00 00
00 00
00 00
00 00
ENDCHAR
STARTCHAR Ibreve
ENCODING 300
BBX 12 26 0 -4
DWIDTH 12 0
SWIDTH 480 0
BITMAP
00 00
00 00
C0 C0
C0 C0
3F 00
3F 00
00 00
00 00
3F 00
3F 00
0C 00
0C 00
0C 00
0C 00
0C 00
0C 00
0C 00
0C 00
0C 00
0C 00
3F 00
3F 00
00 00
00 00
00 00
00 00
ENDCHAR
STARTCHAR ibreve
ENCODING 301
BBX 12 26 0 -4
DWIDTH 12 0
SWIDTH 480 0
BITMAP
00 00
00 00
00 00
00 00
C0 C0
C0 C0
3F 00
3F 00
00 00
00 00
3C 00
3C 00
0C 00
0C 00
0C 00
0C 00
0C 00
0C 00
0C 00
0C 00
3F 00
3F 00
00 00
00 00
00 00
00 00
ENDCHAR
STARTCHAR Iogonek
ENCODING 302
BBX 12 26 0 -4
DWIDTH 12 0
SWIDTH 480 0
BITMAP
00 00
00 00
00 00
00 00
3F 00
3F 00
0C 00
0C 00
0C 00
0C 00
0C 00
0C 00
0C 00
0C 00
0C 00
0C 00
0C 00
0C 00
0C 00
0C 00
3F 00
3F 00
0C 00
0C 00
03 00
03 00
ENDCHAR
STARTCHAR iogonek
ENCODING 303
BBX 12 26 0 -4
DWIDTH 12 0
SWIDTH 480 0
BITMAP
00 00
00 00
00 00
00 00
00 00
00 00
0C 00
0C 00
00 00
00 00
3C 00
3C 00
0C 00
0C 00
0C 00
0C 00
0C 00
0C 00
0C 00
0C 00
3F 00
3F 00
0C 00
0C 00
03 00
03 00
ENDCHAR
STARTCHAR Idotaccent
ENCODING 304
BBX 12 26 0 -4
DWIDTH 12 0
SWIDTH 480 0
BITMAP
00 00
00 00
0C 00
0C 00
0C 00
0C 00
00 00
00 00
3F 00
3F 00
0C 00
0C 00
0C 00
0C 00
0C 00
0C 00
0C 00
0C 00
0C 00
0C 00
3F 00
3F 00
00 00
00 00
00 00
00 00
ENDCHAR
STARTCHAR dotlessi
ENCODING 305
BBX 12 26 0 -4
DWIDTH 12 0
SWIDTH 480 0
BITMAP
00 00
00 00
00 00
00 00
00 00
00 00
00 00
00 00
00 00
00 00
3C 00
3C 00
0C 00
0C 00
0C 00
0C 00
0C 00
0C 00
0C 00
0C 00
3F 00
3F 00
00 00
00 00
00 00
00 00
ENDCHAR
STARTCHAR IJ
ENCODING 306
BBX 12 26 0 -4
DWIDTH 12 0
SWIDTH 480 0
BITMAP
00 00
00 00
00 00
00 00
F3 F0
F3 F0
C0 C0
C0 C0
C0 C0
C0 C0
C0 C0
C0 C0
C0 C0
C0 C0
C0 C0
C0 C0
C0 C0
C0 C0
CC C0
CC C0
F3 00
F3 00
00 00
00 00
00 00
00 00
ENDCHAR
STARTCHAR ij
ENCODING 307
BBX 12 26 0 -4
DWIDTH 12 0
SWIDTH 480 0
BITMAP
00 00
00 00
00 00
00 00
00 00
00 00
30 C0
30 C0
00 00
00 00
F3 C0
F3 C0
30 C0
30 C0
30 C0
30 C0
30 C0
30 C0
30 C0
30 C0
FC C0
FC C0
30 C0
30 C0
0F 00
0F 00
ENDCHAR
STARTCHAR Jcircumflex
ENCODING 308
BBX 12 26 0 -4
DWIDTH 12 0
SWIDTH 480 0
BITMAP
00 00
00 00
0F 00
0F 00
30 C0
30 C0
00 00
00 00
0F C0
0F C0
03 00
03 00
03 00
03 00
03 00
03 00
03 00
03 00
C3 00
C3 00
3C 00
3C 00
00 00
00 00
00 00
00 00
ENDCHAR
STARTCHAR jcircumflex
ENCODING 309
BBX 12 26 0 -4
DWIDTH 12 0
SWIDTH 480 0
BITMAP
00 00
00 00
00 00
00 00
0F 00
0F 00
30 C0
30 C0
00 00
00 00
0F 00
0F 00
03 00
03 00
03 00
03 00
03 00
03 00
03 00
03 00
C3 00
C3 00
C3 00
C3 00
3C 00
3C 00
ENDCHAR
STARTCHAR Kcommaaccent
ENCODING 310
BBX 12 26 0 -4
DWIDTH 12 0
SWIDTH 480 0
BITMAP
00 00
00 00
00 00
00 00
C0 C0
C0 C0
C0 C0
C0 C0
C3 00
C3 00
CC 00
CC 00
F0 00
F0 00
CC 00
CC 00
C3 00
C3 00
C0 C0
C0 C0
C0 C0
C0 C0
30 00
30 00
C0 00
C0 00
ENDCHAR
STARTCHAR kcommaaccent
ENCODING 311
BBX 12 26 0 -4
DWIDTH 12 0
SWIDTH 480 0
BITMAP
00 00
00 00
00 00
00 00
C0 00
C0 00
C0 00
C0 00
C0 00
C0 00
C3 00
C3 00
CC 00
CC 00
F0 00
F0 00
CC 00
CC 00
C3 00
C3 00
C0 C0
C0 C0
30 00
30 00
C0 00
C0 00
ENDCHAR
STARTCHAR kgreenlandic
ENCODING 312
BBX 12 26 0 -4
DWIDTH 12 0
SWIDTH 480 0
BITMAP
00 00
00 00
00 00
00 00
00 00
00 00
00 00
00 00
00 00
00 00
C0 C0
C0 C0
C3 00
C3 00
CC 00
CC 00
FC 00
FC 00
C3 00
C3 00
C0 C0
C0 C0
00 00
00 00
00 00
00 00
ENDCHAR
STARTCHAR Lacute
ENCODING 313
BBX 12 26 0 -4
DWIDTH 12 0
SWIDTH 480 0
BITMAP
00 00
00 00
30 00
30 00
C0 00
C0 00
00 00
00 00
C0 00
C0 00
C0 00
C0 00
C0 00
C0 00
C0 00
C0 00
C0 00
C0 00
C0 00
C0 00
FF C0
FF C0
00 00
00 00
00 00
00 00
ENDCHAR
STARTCHAR lacute
ENCODING 314
BBX 12 26 0 -4
DWIDTH 12 0
SWIDTH 480 0
BITMAP
03 00
03 00
0C 00
0C 00
00 00
00 00
3C 00
3C 00
0C 00
0C 00
0C 00
0C 00
0C 00
0C 00
0C 00
0C 00
0C 00
0C 00
0C 00
0C 00
3F 00
3F 00
00 00
00 00
00 00
00 00
ENDCHAR
STARTCHAR Lcommaaccent
ENCODING 315
BBX 12 26 0 -4
DWIDTH 12 0
SWIDTH 480 0
BITMAP
00 00
00 00
00 00
00 00
C0 00
C0 00
C0 00
C0 00
C0 00
C0 00
C0 00
C0 00
C0 00
C0 00
C0 00
C0 00
C0 00
C0 00
C0 00
C0 00
FF C0
FF C0
0C 00
0C 00
30 00
30 00
ENDCHAR
STARTCHAR lcommaaccent
ENCODING 316
BBX 12 26 0 -4
DWIDTH 12 0
SWIDTH 480 0
BITMAP
00 00
00 00
00 00
00 00
3C 00
3C 00
0C 00
0C 00
0C 00
0C 00
0C 00
0C 00
0C 00
0C 00
0C 00
0C 00
0C 00
0C 00
0C 00
0C 00
3F 00
3F 00
0C 00
0C 00
30 00
30 00
ENDCHAR
STARTCHAR Lcaron
ENCODING 317
BBX 12 26 0 -4
DWIDTH 12 0
SWIDTH 480 0
BITMAP
00 00
00 00
C3 00
C3 00
3C 00
3C 00
00 00
00 00
30 00
30 00
30 00
30 00
30 00
30 00
30 00
30 00
30 00
30 00
30 00
30 00
3F C0
3F C0
00 00
00 00
00 00
00 00
ENDCHAR
STARTCHAR lcaron
ENCODING 318
BBX 12 26 0 -4
DWIDTH 12 0
SWIDTH 480 0
BITMAP
C3 00
C3 00
3C 00
3C 00
00 00
00 00
3C 00
3C 00
0C 00
0C 00
0C 00
0C 00
0C 00
0C 00
0C 00
0C 00
0C 00
0C 00
0C 00
0C 00
3F 00
3F 00
00 00
00 00
00 00
00 00
ENDCHAR
STARTCHAR Ldot
ENCODING 319
BBX 12 26 0 -4
DWIDTH 12 0
SWIDTH 480 0
BITMAP
00 00
00 00
00 00
00 00
C0 00
C0 00
C0 00
C0 00
C0 00
C0 00
C3 00
C3 00
C3 00
C3 00
C0 00
C0 00
C0 00
C0 00
C0 00
C0 00
FF C0
FF C0
00 00
00 00
00 00
00 00
ENDCHAR
STARTCHAR ldot
ENCODING 320
BBX 12 26 0 -4
DWIDTH 12 0
SWIDTH 480 0
BITMAP
00 00
00 00
00 00
00 00
3C 00
3C 00
0C 00
0C 00
0C 00
0C 00
0C C0
0C C0
0C C0
0C C0
0C 00
0C 00
0C 00
0C 00
0C 00
0C 00
3F 00
3F 00
00 00
00 00
00 00
00 00
ENDCHAR
STARTCHAR Lslash
ENCODING 321
BBX 12 26 0 -4
DWIDTH 12 0
SWIDTH 480 0
BITMAP
00 00
00 00
00 00
00 00
30 00
30 00
30 00
30 00
3C 00
3C 00
30 00
30 00
F0 00
F0 00
30 00
30 00
30 00
30 00
30 00
30 00
3F C0
3F C0
00 00
00 00
00 00
00 00
ENDCHAR
STARTCHAR lslash
ENCODING 322
BBX 12 26 0 -4
DWIDTH 12 0
SWIDTH 480 0
BITMAP
00 00
00 00
00 00
00 00
3C 00
3C 00
0C 00
0C 00
0F 00
0F 00
0C 00
0C 00
3C 00
3C 00
0C 00
0C 00
0C 00
0C 00
0C 00
0C 00
3F 00
3F 00
00 00
00 00
00 00
00 00
ENDCHAR
STARTCHAR Nacute
ENCODING 323
BBX 12 26 0 -4
DWIDTH 12 0
SWIDTH 480 0
BITMAP
00 00
00 00
03 00
03 00
0C 00
0C 00
00 00
00 00
C0 C0
C0 C0
F0 C0
F0 C0
F0 C0
F0 C0
CC C0
CC C0
C3 C0
C3 C0
C3 C0
C3 C0
C0 C0
C0 C0
00 00
00 00
00 00
00 00
ENDCHAR
STARTCHAR nacute
ENCODING 324
BBX 12 26 0 -4
DWIDTH 12 0
SWIDTH 480 0
BITMAP
00 00
00 00
00 00
00 00
03 00
03 00
0C 00
0C 00
00 00
00 00
CF 00
CF 00
F0 C0
F0 C0
C0 C0
C0 C0
C0 C0
C0 C0
C0 C0
C0 C0
C0 C0
C0 C0
00 00
00 00
00 00
00 00
ENDCHAR
STARTCHAR Ncommaaccent
ENCODING 325
BBX 12 26 0 -4
DWIDTH 12 0
SWIDTH 480 0
BITMAP
00 00
00 00
00 00
00 00
C0 C0
C0 C0
F0 C0
F0 C0
F0 C0
F0 C0
CC C0
CC C0
CC C0
CC C0
C3 C0
C3 C0
C3 C0
C3 C0
C0 C0
C0 C0
C0 C0
C0 C0
30 00
30 00
C0 00
C0 00
ENDCHAR
STARTCHAR ncommaaccent
ENCODING 326
BBX 12 26 0 -4
DWIDTH 12 0
SWIDTH 480 0
BITMAP
00 00
00 00
00 00
00 00
00 00
00 00
00 00
00 00
00 00
00 00
CF 00
CF 00
F0 C0
F0 C0
C0 C0
C0 C0
C0 C0
C0 C0
C0 C0
C0 C0
C0 C0
C0 C0
30 00
30 00
C0 00
C0 00
ENDCHAR
STARTCHAR Ncaron
ENCODING 327
BBX 12 26 0 -4
DWIDTH 12 0
SWIDTH 480 0
BITMAP
00 00
00 00
30 C0
30 C0
0F 00
0F 00
00 00
00 00
C0 C0
C0 C0
F0 C0
F0 C0
F0 C0
F0 C0
CC C0
CC C0
C3 C0
C3 C0
C3 C0
C3 C0
C0 C0
C0 C0
00 00
00 00
00 00
00 00
ENDCHAR
STARTCHAR ncaron
ENCODING 328
BBX 12 26 0 -4
DWIDTH 12 0
SWIDTH 480 0
BITMAP
00 00
00 00
00 00
00 00
30 C0
30 C0
0F 00
0F 00
00 00
00 00
CF 00
CF 00
F0 C0
F0 C0
C0 C0
C0 C0
C0 C0
C0 C0
C0 C0
C0 C0
C0 C0
C0 C0
00 00
00 00
00 00
00 00
ENDCHAR
STARTCHAR napostrophe
ENCODING 329
BBX 12 26 0 -4
DWIDTH 12 0
SWIDTH 480 0
BITMAP
00 00
00 00
F0 00
F0 00
30 00
30 00
C0 00
C0 00
00 00
00 00
CF 00
CF 00
F0 C0
F0 C0
C0 C0
C0 C0
C0 C0
C0 C0
C0 C0
C0 C0
C0 C0
C0 C0
00 00
00 00
00 00
00 00
ENDCHAR
STARTCHAR Eng
ENCODING 330
BBX 12 26 0 -4
DWIDTH 12 0
SWIDTH 480 0
BITMAP
00 00
00 00
00 00
00 00
C0 C0
C0 C0
F0 C0
F0 C0
F0 C0
F0 C0
CC C0
CC C0
CC C0
CC C0
C3 C0
C3 C0
C3 C0
C3 C0
C0 C0
C0 C0
C0 C0
C0 C0
0C C0
0C C0
03 00
03 00
ENDCHAR
STARTCHAR eng
ENCODING 331
BBX 12 26 0 -4
DWIDTH 12 0
SWIDTH 480 0
BITMAP
00 00
00 00
00 00
00 00
00 00
00 00
00 00
00 00
00 00
00 00
CF 00
CF 00
F0 C0
F0 C0
C0 C0
C0 C0
C0 C0
C0 C0
C0 C0
C0 C0
C0 C0
C0 C0
0C C0
0C C0
03 00
03 00
ENDCHAR
STARTCHAR Omacron
ENCODING 332
BBX 12 26 0 -4
DWIDTH 12 0
SWIDTH 480 0
BITMAP
00 00
00 00
FF C0
FF C0
00 00
00 00
3F 00
3F 00
C0 C0
C0 C0
C0 C0
C0 C0
C0 C0
C0 C0
C0 C0
C0 C0
C0 C0
C0 C0
C0 C0
C0 C0
3F 00
3F 00
00 00
00 00
00 00
00 00
ENDCHAR
STARTCHAR omacron
ENCODING 333
BBX 12 26 0 -4
DWIDTH 12 0
SWIDTH 480 0
BITMAP
00 00
00 00
00 00
00 00
00 00
00 00
FF C0
FF C0
00 00
00 00
3F 00
3F 00
C0 C0
C0 C0
C0 C0
C0 C0
C0 C0
C0 C0
C0 C0
C0 C0
3F 00
3F 00
00 00
00 00
00 00
00 00
ENDCHAR
STARTCHAR Obreve
ENCODING 334
BBX 12 26 0 -4
DWIDTH 12 0
SWIDTH 480 0
BITMAP
00 00
00 00
C0 C0
C0 C0
3F 00
3F 00
00 00
00 00
3F 00
3F 00
C0 C0
C0 C0
C0 C0
C0 C0
C0 C0
C0 C0
C0 C0
C0 C0
C0 C0
C0 C0
3F 00
3F 00
00 00
00 00
00 00
00 00
ENDCHAR
STARTCHAR obreve
ENCODING 335
BBX 12 26 0 -4
DWIDTH 12 0
SWIDTH 480 0
BITMAP
00 00
00 00
00 00
00 00
C0 C0
C0 C0
3F 00
3F 00
00 00
00 00
3F 00
3F 00
C0 C0
C0 C0
C0 C0
C0 C0
C0 C0
C0 C0
C0 C0
C0 C0
3F 00
3F 00
00 00
00 00
00 00
00 00
ENDCHAR
STARTCHAR Ohungarumlaut
ENCODING 336
BBX 12 26 0 -4
DWIDTH 12 0
SWIDTH 480 0
BITMAP
00 00
00 00
30 C0
30 C0
C3 00
C3 00
00 00
00 00
3F 00
3F 00
C0 C0
C0 C0
C0 C0
C0 C0
C0 C0
C0 C0
C0 C0
C0 C0
C0 C0
C0 C0
3F 00
3F 00
00 00
00 00
00 00
00 00
ENDCHAR
STARTCHAR ohungarumlaut
ENCODING 337
BBX 12 26 0 -4
DWIDTH 12 0
SWIDTH 480 0
BITMAP
00 00
00 00
00 00
00 00
30 C0
30 C0
C3 00
C3 00
00 00
00 00
3F 00
3F 00
C0 C0
C0 C0
C0 C0
C0 C0
C0 C0
C0 C0
C0 C0
C0 C0
3F 00
3F 00
00 00
00 00
00 00
00 00
ENDCHAR
STARTCHAR OE
ENCODING 338
BBX 12 26 0 -4
DWIDTH 12 0
SWIDTH 480 0
BITMAP
00 00
00 00
00 00
00 00
3F C0
3F C0
CC 00
CC 00
CC 00
CC 00
CC 00
CC 00
CF 00
CF 00
CC 00
CC 00
CC 00
CC 00
CC 00
CC 00
3F C0
3F C0
00 00
00 00
00 00
00 00
ENDCHAR
STARTCHAR oe
ENCODING 339
BBX 12 26 0 -4
DWIDTH 12 0
SWIDTH 480 0
BITMAP
00 00
00 00
00 00
00 00
00 00
00 00
00 00
00 00
00 00
00 00
33 00
33 00
CC C0
CC C0
CF C0
CF C0
CC 00
CC 00
CC C0
CC C0
33 00
33 00
00 00
00 00
00 00
00 00
ENDCHAR
STARTCHAR Racute
ENCODING 340
BBX 12 26 0 -4
DWIDTH 12 0
SWIDTH 480 0
BITMAP
00 00
00 00
03 00
03 00
0C 00
0C 00
00 00
00 00
FF 00
FF 00
C0 C0
C0 C0
C0 C0
C0 C0
FF 00
FF 00
C3 00
C3 00
C0 C0
C0 C0
C0 C0
C0 C0
00 00
00 00
00 00
00 00
ENDCHAR
STARTCHAR racute
ENCODING 341
BBX 12 26 0 -4
DWIDTH 12 0
SWIDTH 480 0
BITMAP
00 00
00 00
00 00
00 00
03 00
03 00
0C 00
0C 00
00 00
00 00
CF 00
CF 00
F0 C0
F0 C0
C0 00
C0 00
C0 00
C0 00
C0 00
C0 00
C0 00
C0 00
00 00
00 00
00 00
00 00
ENDCHAR
STARTCHAR Rcommaaccent
ENCODING 342
BBX 12 26 0 -4
DWIDTH 12 0
SWIDTH 480 0
BITMAP
00 00
00 00
00 00
00 00
FF 00
FF 00
C0 C0
C0 C0
C0 C0
C0 C0
C0 C0
C0 C0
FF 00
FF 00
CC 00
CC 00
C3 00
C3 00
C0 C0
C0 C0
C0 C0
C0 C0
30 00
30 00
C0 00
C0 00
ENDCHAR
STARTCHAR rcommaaccent
ENCODING 343
BBX 12 26 0 -4
DWIDTH 12 0
SWIDTH 480 0
BITMAP
00 00
00 00
00 00
00 00
00 00
00 00
00 00
00 00
00 00
00 00
CF 00
CF 00
F0 C0
F0 C0
C0 00
C0 00
C0 00
C0 00
C0 00
C0 00
C0 00
C0 00
30 00
30 00
C0 00
C0 00
ENDCHAR
STARTCHAR Rcaron
ENCODING 344
BBX 12 26 0 -4
DWIDTH 12 0
SWIDTH 480 0
BITMAP
00 00
00 00
C3 00
C3 00
3C 00
3C 00
00 00
00 00
FF 00
FF 00
C0 C0
C0 C0
C0 C0
C0 C0
FF 00
FF 00
C3 00
C3 00
C0 C0
C0 C0
C0 C0
C0 C0
00 00
00 00
00 00
00 00
ENDCHAR
STARTCHAR rcaron
ENCODING 345
BBX 12 26 0 -4
DWIDTH 12 0
SWIDTH 480 0
BITMAP
00 00
00 00
00 00
00 00
C3 00
C3 00
3C 00
3C 00
00 00
00 00
CF 00
CF 00
F0 C0
F0 C0
C0 00
C0 00
C0 00
C0 00
C0 00
C0 00
C0 00
C0 00
00 00
00 00
00 00
00 00
ENDCHAR
STARTCHAR Sacute
ENCODING 346
BBX 12 26 0 -4
DWIDTH 12 0
SWIDTH 480 0
BITMAP
00 00
00 00
03 00
03 00
0C 00
0C 00
00 00
00 00
3F 00
3F 00
C0 C0
C0 C0
C0 00
C0 00
3F 00
3F 00
00 C0
00 C0
C0 C0
C0 C0
3F 00
3F 00
00 00
00 00
00 00
00 00
ENDCHAR
STARTCHAR sacute
ENCODING 347
BBX 12 26 0 -4
DWIDTH 12 0
SWIDTH 480 0
BITMAP
00 00
00 00
00 00
00 00
03 00
03 00
0C 00
0C 00
00 00
00 00
3F 00
3F 00
C0 C0
C0 C0
3C 00
3C 00
03 00
03 00
C0 C0
C0 C0
3F 00
3F 00
00 00
00 00
00 00
00 00
ENDCHAR
STARTCHAR Scircumflex
ENCODING 348
BBX 12 26 0 -4
DWIDTH 12 0
SWIDTH 480 0
BITMAP
00 00
00 00
0F 00
0F 00
30 C0
30 C0
00 00
00 00
3F 00
3F 00
C0 C0
C0 C0
C0 00
C0 00
3F 00
3F 00
00 C0
00 C0
C0 C0
C0 C0
3F 00
3F 00
00 00
00 00
00 00
00 00
ENDCHAR
STARTCHAR scircumflex
ENCODING 349
BBX 12 26 0 -4
DWIDTH 12 0
SWIDTH 480 0
BITMAP
00 00
00 00
00 00
00 00
0F 00
0F 00
30 C0
30 C0
00 00
00 00
3F 00
3F 00
C0 C0
C0 C0
3C 00
3C 00
03 00
03 00
C0 C0
C0 C0
3F 00
3F 00
00 00
00 00
00 00
00 00
ENDCHAR
STARTCHAR Scedilla
ENCODING 350
BBX 12 26 0 -4
DWIDTH 12 0
SWIDTH 480 0
BITMAP
00 00
00 00
00 00
00 00
3F 00
3F 00
C0 C0
C0 C0
C0 00
C0 00
C0 00
C0 00
3F 00
3F 00
00 C0
00 C0
00 C0
00 C0
C0 C0
C0 C0
3F 00
3F 00
0C 00
0C 00
30 00
30 00
ENDCHAR
STARTCHAR scedilla
ENCODING 351
BBX 12 26 0 -4
DWIDTH 12 0
SWIDTH 480 0
BITMAP
00 00
00 00
00 00
00 00
00 00
00 00
00 00
00 00
00 00
00 00
3F 00
3F 00
C0 C0
C0 C0
3C 00
3C 00
03 00
03 00
C0 C0
C0 C0
3F 00
3F 00
0C 00
0C 00
30 00
30 00
ENDCHAR
STARTCHAR Scaron
ENCODING 352
BBX 12 26 0 -4
DWIDTH 12 0
SWIDTH 480 0
BITMAP
00 00
00 00
30 C0
30 C0
0F 00
0F 00
00 00
00 00
3F 00
3F 00
C0 C0
C0 C0
C0 00
C0 00
3F 00
3F 00
00 C0
00 C0
C0 C0
C0 C0
3F 00
3F 00
00 00
00 00
00 00
00 00
ENDCHAR
STARTCHAR scaron
ENCODING 353
BBX 12 26 0 -4
DWIDTH 12 0
SWIDTH 480 0
BITMAP
00 00
00 00
00 00
00 00
C3 00
C3 00
3C 00
3C 00
00 00
00 00
3F 00
3F 00
C0 C0
C0 C0
3C 00
3C 00
03 00
03 00
C0 C0
C0 C0
3F 00
3F 00
00 00
00 00
00 00
00 00
ENDCHAR
STARTCHAR Tcommaaccent
ENCODING 354
BBX 12 26 0 -4
DWIDTH 12 0
SWIDTH 480 0
BITMAP
00 00
00 00
00 00
00 00
FF C0
FF C0
0C 00
0C 00
0C 00
0C 00
0C 00
0C 00
0C 00
0C 00
0C 00
0C 00
0C 00
0C 00
0C 00
0C 00
0C 00
0C 00
03 00
03 00
0C 00
0C 00
ENDCHAR
STARTCHAR tcommaaccent
ENCODING 355
BBX 12 26 0 -4
DWIDTH 12 0
SWIDTH 480 0
BITMAP
00 00
00 00
00 00
00 00
00 00
00 00
30 00
30 00
30 00
30 00
FF 00
FF 00
30 00
30 00
30 00
30 00
30 00
30 00
30 C0
30 C0
0F 00
0F 00
0C 00
0C 00
30 00
30 00
ENDCHAR
STARTCHAR Tcaron
ENCODING 356
BBX 12 26 0 -4
DWIDTH 12 0
SWIDTH 480 0
BITMAP
00 00
00 00
30 C0
30 C0
0F 00
0F 00
00 00
00 00
FF C0
FF C0
0C 00
0C 00
0C 00
0C 00
0C 00
0C 00
0C 00
0C 00
0C 00
0C 00
0C 00
0C 00
00 00
00 00
00 00
00 00
ENDCHAR
STARTCHAR tcaron
ENCODING 357
BBX 12 26 0 -4
DWIDTH 12 0
SWIDTH 480 0
BITMAP
00 00
00 00
C3 00
C3 00
3C 00
3C 00
00 00
00 00
30 00
30 00
FF 00
FF 00
30 00
30 00
30 00
30 00
30 00
30 00
30 C0
30 C0
0F 00
0F 00
00 00
00 00
00 00
00 00
ENDCHAR
STARTCHAR Tbar
ENCODING 358
BBX 12 26 0 -4
DWIDTH 12 0
SWIDTH 480 0
BITMAP
00 00
00 00
00 00
00 00
FF C0
FF C0
0C 00
0C 00
0C 00
0C 00
3F 00
3F 00
0C 00
0C 00
0C 00
0C 00
0C 00
0C 00
0C 00
0C 00
0C 00
0C 00
00 00
00 00
00 00
00 00
ENDCHAR
STARTCHAR tbar
ENCODING 359
BBX 12 26 0 -4
DWIDTH 12 0
SWIDTH 480 0
BITMAP
00 00
00 00
00 00
00 00
00 00
00 00
30 00
30 00
30 00
30 00
FF 00
FF 00
30 00
30 00
FC 00
FC 00
30 00
30 00
30 C0
30 C0
0F 00
0F 00
00 00
00 00
00 00
00 00
ENDCHAR
STARTCHAR Utilde
ENCODING 360
BBX 12 26 0 -4
DWIDTH 12 0
SWIDTH 480 0
BITMAP
00 00
00 00
0C C0
0C C0
33 00
33 00
00 00
00 00
C0 C0
C0 C0
C0 C0
C0 C0
C0 C0
C0 C0
C0 C0
C0 C0
C0 C0
C0 C0
C0 C0
C0 C0
3F 00
3F 00
00 00
00 00
00 00
00 00
ENDCHAR
STARTCHAR utilde
ENCODING 361
BBX 12 26 0 -4
DWIDTH 12 0
SWIDTH 480 0
BITMAP
00 00
00 00
00 00
00 00
0C C0
0C C0
33 00
33 00
00 00
00 00
C0 C0
C0 C0
C0 C0
C0 C0
C0 C0
C0 C0
C0 C0
C0 C0
C3 C0
C3 C0
3C C0
3C C0
00 00
00 00
00 00
00 00
ENDCHAR
STARTCHAR Umacron
ENCODING 362
BBX 12 26 0 -4
DWIDTH 12 0
SWIDTH 480 0
BITMAP
00 00
00 00
FF C0
FF C0
00 00
00 00
C0 C0
C0 C0
C0 C0
C0 C0
C0 C0
C0 C0
C0 C0
C0 C0
C0 C0
C0 C0
C0 C0
C0 C0
C0 C0
C0 C0
3F 00
3F 00
00 00
00 00
00 00
00 00
ENDCHAR
STARTCHAR umacron
ENCODING 363
BBX 12 26 0 -4
DWIDTH 12 0
SWIDTH 480 0
BITMAP
00 00
00 00
00 00
00 00
00 00
00 00
FF C0
FF C0
00 00
00 00
C0 C0
C0 C0
C0 C0
C0 C0
C0 C0
C0 C0
C0 C0
C0 C0
C3 C0
C3 C0
3C C0
3C C0
00 00
00 00
00 00
00 00
ENDCHAR
STARTCHAR Ubreve
ENCODING 364
BBX 12 26 0 -4
DWIDTH 12 0
SWIDTH 480 0
BITMAP
00 00
00 00
C0 C0
C0 C0
3F 00
3F 00
00 00
00 00
C0 C0
C0 C0
C0 C0
C0 C0
C0 C0
C0 C0
C0 C0
C0 C0
C0 C0
C0 C0
C0 C0
C0 C0
3F 00
3F 00
00 00
00 00
00 00
00 00
ENDCHAR
STARTCHAR ubreve
ENCODING 365
BBX 12 26 0 -4
DWIDTH 12 0
SWIDTH 480 0
BITMAP
00 00
00 00
00 00
00 00
C0 C0
C0 C0
3F 00
3F 00
00 00
00 00
C0 C0
C0 C0
C0 C0
C0 C0
C0 C0
C0 C0
C0 C0
C0 C0
C3 C0
C3 C0
3C C0
3C C0
00 00
00 00
00 00
00 00
ENDCHAR
STARTCHAR Uring
ENCODING 366
BBX 12 26 0 -4
DWIDTH 12 0
SWIDTH 480 0
BITMAP
0C 00
0C 00
33 00
33 00
0C 00
0C 00
00 00
00 00
C0 C0
C0 C0
C0 C0
C0 C0
C0 C0
C0 C0
C0 C0
C0 C0
C0 C0
C0 C0
C0 C0
C0 C0
3F 00
3F 00
00 00
00 00
00 00
00 00
ENDCHAR
STARTCHAR uring
ENCODING 367
BBX 12 26 0 -4
DWIDTH 12 0
SWIDTH 480 0
BITMAP
00 00
00 00
0C 00
0C 00
33 00
33 00
0C 00
0C 00
00 00
00 00
C0 C0
C0 C0
C0 C0
C0 C0
C0 C0
C0 C0
C0 C0
C0 C0
C3 C0
C3 C0
3C C0
3C C0
00 00
00 00
00 00
00 00
ENDCHAR
STARTCHAR Uhungarumlaut
ENCODING 368
BBX 12 26 0 -4
DWIDTH 12 0
SWIDTH 480 0
BITMAP
00 00
00 00
30 C0
30 C0
C3 00
C3 00
00 00
00 00
C0 C0
C0 C0
C0 C0
C0 C0
C0 C0
C0 C0
C0 C0
C0 C0
C0 C0
C0 C0
C0 C0
C0 C0
3F 00
3F 00
00 00
00 00
00 00
00 00
ENDCHAR
STARTCHAR uhungarumlaut
ENCODING 369
BBX 12 26 0 -4
DWIDTH 12 0
SWIDTH 480 0
BITMAP
00 00
00 00
00 00
00 00
30 C0
30 C0
C3 00
C3 00
00 00
00 00
C0 C0
C0 C0
C0 C0
C0 C0
C0 C0
C0 C0
C0 C0
C0 C0
C3 C0
C3 C0
3C C0
3C C0
00 00
00 00
00 00
00 00
ENDCHAR
STARTCHAR Uogonek
ENCODING 370
BBX 12 26 0 -4
DWIDTH 12 0
SWIDTH 480 0
BITMAP
00 00
00 00
00 00
00 00
C0 C0
C0 C0
C0 C0
C0 C0
C0 C0
C0 C0
C0 C0
C0 C0
C0 C0
C0 C0
C0 C0
C0 C0
C0 C0
C0 C0
C0 C0
C0 C0
3F 00
3F 00
0C 00
0C 00
03 00
03 00
ENDCHAR
STARTCHAR uogonek
ENCODING 371
BBX 12 26 0 -4
DWIDTH 12 0
SWIDTH 480 0
BITMAP
00 00
00 00
00 00
00 00
00 00
00 00
00 00
00 00
00 00
00 00
C0 C0
C0 C0
C0 C0
C0 C0
C0 C0
C0 C0
C0 C0
C0 C0
C3 C0
C3 C0
3C C0
3C C0
0C 00
0C 00
03 00
03 00
ENDCHAR
STARTCHAR Wcircumflex
ENCODING 372
BBX 12 26 0 -4
DWIDTH 12 0
SWIDTH 480 0
BITMAP
00 00
00 00
0F 00
0F 00
30 C0
30 C0
00 00
00 00
C0 C0
C0 C0
C0 C0
C0 C0
C0 C0
C0 C0
CC C0
CC C0
CC C0
CC C0
F3 C0
F3 C0
C0 C0
C0 C0
00 00
00 00
00 00
00 00
ENDCHAR
STARTCHAR wcircumflex
ENCODING 373
BBX 12 26 0 -4
DWIDTH 12 0
SWIDTH 480 0
BITMAP
00 00
00 00
00 00
00 00
0F 00
0F 00
30 C0
30 C0
00 00
00 00
C0 C0
C0 C0
C0 C0
C0 C0
CC C0
CC C0
CC C0
CC C0
CC C0
CC C0
33 00
33 00
00 00
00 00
00 00
00 00
ENDCHAR
STARTCHAR Ycircumflex
ENCODING 374
BBX 12 26 0 -4
DWIDTH 12 0
SWIDTH 480 0
BITMAP
00 00
00 00
0F 00
0F 00
30 C0
30 C0
00 00
00 00
C0 C0
C0 C0
33 00
33 00
33 00
33 00
0C 00
0C 00
0C 00
0C 00
0C 00
0C 00
0C 00
0C 00
00 00
00 00
00 00
00 00
ENDCHAR
STARTCHAR ycircumflex
ENCODING 375
BBX 12 26 0 -4
DWIDTH 12 0
SWIDTH 480 0
BITMAP
00 00
00 00
00 00
00 00
0F 00
0F 00
30 C0
30 C0
00 00
00 00
C0 C0
C0 C0
C0 C0
C0 C0
C0 C0
C0 C0
C3 C0
C3 C0
3C C0
3C C0
00 C0
00 C0
C0 C0
C0 C0
3F 00
3F 00
ENDCHAR
STARTCHAR Ydieresis
ENCODING 376
BBX 12 26 0 -4
DWIDTH 12 0
SWIDTH 480 0
BITMAP
00 00
00 00
33 00
33 00
33 00
33 00
00 00
00 00
C0 C0
C0 C0
33 00
33 00
33 00
33 00
0C 00
0C 00
0C 00
0C 00
0C 00
0C 00
0C 00
0C 00
00 00
00 00
00 00
00 00
ENDCHAR
STARTCHAR Zacute
ENCODING 377
BBX 12 26 0 -4
DWIDTH 12 0
SWIDTH 480 0
BITMAP
00 00
00 00
03 00
03 00
0C 00
0C 00
00 00
00 00
FF C0
FF C0
00 C0
00 C0
03 00
03 00
0C 00
0C 00
30 00
30 00
C0 00
C0 00
FF C0
FF C0
00 00
00 00
00 00
00 00
ENDCHAR
STARTCHAR zacute
ENCODING 378
BBX 12 26 0 -4
DWIDTH 12 0
SWIDTH 480 0
BITMAP
00 00
00 00
00 00
00 00
03 00
03 00
0C 00
0C 00
00 00
00 00
FF C0
FF C0
03 00
03 00
0C 00
0C 00
30 00
30 00
C0 00
C0 00
FF C0
FF C0
00 00
00 00
00 00
00 00
ENDCHAR
STARTCHAR Zdotaccent
ENCODING 379
BBX 12 26 0 -4
DWIDTH 12 0
SWIDTH 480 0
BITMAP
00 00
00 00
0C 00
0C 00
0C 00
0C 00
00 00
00 00
FF C0
FF C0
00 C0
00 C0
03 00
03 00
0C 00
0C 00
30 00
30 00
C0 00
C0 00
FF C0
FF C0
00 00
00 00
00 00
00 00
ENDCHAR
STARTCHAR zdotaccent
ENCODING 380
BBX 12 26 0 -4
DWIDTH 12 0
SWIDTH 480 0
BITMAP
00 00
00 00
00 00
00 00
0C 00
0C 00
0C 00
0C 00
00 00
00 00
FF C0
FF C0
03 00
03 00
0C 00
0C 00
30 00
30 00
C0 00
C0 00
FF C0
FF C0
00 00
00 00
00 00
00 00
ENDCHAR
STARTCHAR Zcaron
ENCODING 381
BBX 12 26 0 -4
DWIDTH 12 0
SWIDTH 480 0
BITMAP
00 00
00 00
30 C0
30 C0
0F 00
0F 00
00 00
00 00
FF C0
FF C0
00 C0
00 C0
03 00
03 00
0C 00
0C 00
30 00
30 00
C0 00
C0 00
FF C0
FF C0
00 00
00 00
00 00
00 00
ENDCHAR
STARTCHAR zcaron
ENCODING 382
BBX 12 26 0 -4
DWIDTH 12 0
SWIDTH 480 0
BITMAP
00 00
00 00
00 00
00 00
30 C0
30 C0
0F 00
0F 00
00 00
00 00
FF C0
FF C0
03 00
03 00
0C 00
0C 00
30 00
30 00
C0 00
C0 00
FF C0
FF C0
00 00
00 00
00 00
00 00
ENDCHAR
STARTCHAR longs
ENCODING 383
BBX 12 26 0 -4
DWIDTH 12 0
SWIDTH 480 0
BITMAP
00 00
00 00
00 00
00 00
0F 00
0F 00
30 C0
30 C0
30 00
30 00
30 00
30 00
F0 00
F0 00
30 00
30 00
30 00
30 00
30 00
30 00
30 00
30 00
00 00
00 00
00 00
00 00
ENDCHAR
STARTCHAR uni0180
ENCODING 384
BBX 12 26 0 -4
DWIDTH 12 0
SWIDTH 480 0
BITMAP
00 00
00 00
00 00
00 00
30 00
30 00
FC 00
FC 00
30 00
30 00
3F 00
3F 00
30 C0
30 C0
30 C0
30 C0
30 C0
30 C0
30 C0
30 C0
3F 00
3F 00
00 00
00 00
00 00
00 00
ENDCHAR
STARTCHAR uni0181
ENCODING 385
BBX 12 26 0 -4
DWIDTH 12 0
SWIDTH 480 0
BITMAP
00 00
00 00
00 00
00 00
3F 00
3F 00
CC C0
CC C0
0C C0
0C C0
0C C0
0C C0
0F 00
0F 00
0C C0
0C C0
0C C0
0C C0
0C C0
0C C0
3F 00
3F 00
00 00
00 00
00 00
00 00
ENDCHAR
STARTCHAR uni0182
ENCODING 386
BBX 12 26 0 -4
DWIDTH 12 0
SWIDTH 480 0
BITMAP
00 00
00 00
00 00
00 00
FF C0
FF C0
C0 C0
C0 C0
C0 00
C0 00
C0 00
C0 00
FF 00
FF 00
C0 C0
C0 C0
C0 C0
C0 C0
C0 C0
C0 C0
FF 00
FF 00
00 00
00 00
00 00
00 00
ENDCHAR
STARTCHAR uni0183
ENCODING 387
BBX 12 26 0 -4
DWIDTH 12 0
SWIDTH 480 0
BITMAP
00 00
00 00
00 00
00 00
3F C0
3F C0
30 C0
30 C0
30 00
30 00
30 00
30 00
3F 00
3F 00
30 C0
30 C0
30 C0
30 C0
30 C0
30 C0
3F 00
3F 00
00 00
00 00
00 00
00 00
ENDCHAR
STARTCHAR uni0184
ENCODING 388
BBX 12 26 0 -4
DWIDTH 12 0
SWIDTH 480 0
BITMAP
00 00
00 00
00 00
00 00
30 00
30 00
F0 00
F0 00
30 00
30 00
30 00
30 00
3F 00
3F 00
30 C0
30 C0
30 C0
30 C0
30 C0
30 C0
3F 00
3F 00
00 00
00 00
00 00
00 00
ENDCHAR
STARTCHAR uni0185
ENCODING 389
BBX 12 26 0 -4
DWIDTH 12 0
SWIDTH 480 0
BITMAP
00 00
00 00
00 00
00 00
30 00
30 00
F0 00
F0 00
30 00
30 00
30 00
30 00
3C 00
3C 00
33 00
33 00
33 00
33 00
33 00
33 00
3C 00
3C 00
00 00
00 00
00 00
00 00
ENDCHAR
STARTCHAR uni0186
ENCODING 390
BBX 12 26 0 -4
DWIDTH 12 0
SWIDTH 480 0
BITMAP
00 00
00 00
00 00
00 00
3F 00
3F 00
C0 C0
C0 C0
00 C0
00 C0
00 C0
00 C0
00 C0
00 C0
00 C0
00 C0
00 C0
00 C0
C0 C0
C0 C0
3F 00
3F 00
00 00
00 00
00 00
00 00
ENDCHAR
STARTCHAR uni0187
ENCODING 391
BBX 12 26 0 -4
DWIDTH 12 0
SWIDTH 480 0
BITMAP
00 00
00 00
00 30
00 30
3F C0
3F C0
C0 C0
C0 C0
C0 00
C0 00
C0 00
C0 00
C0 00
C0 00
C0 00
C0 00
C0 00
C0 00
C0 C0
C0 C0
3F 00
3F 00
00 00
00 00
00 00
00 00
ENDCHAR
STARTCHAR uni0188
ENCODING 392
BBX 12 26 0 -4
DWIDTH 12 0
SWIDTH 480 0
BITMAP
00 00
00 00
00 00
00 00
00 00
00 00
00 00
00 00
00 30
00 30
3F C0
3F C0
C0 C0
C0 C0
C0 00
C0 00
C0 00
C0 00
C0 C0
C0 C0
3F 00
3F 00
00 00
00 00
00 00
00 00
ENDCHAR
STARTCHAR uni0189
ENCODING 393
BBX 12 26 0 -4
DWIDTH 12 0
SWIDTH 480 0
BITMAP
00 00
00 00
00 00
00 00
FF 00
FF 00
30 C0
30 C0
30 C0
30 C0
30 C0
30 C0
FC C0
FC C0
30 C0
30 C0
30 C0
30 C0
30 C0
30 C0
FF 00
FF 00
00 00
00 00
00 00
00 00
ENDCHAR
STARTCHAR uni018A
ENCODING 394
BBX 12 26 0 -4
DWIDTH 12 0
SWIDTH 480 0
BITMAP
00 00
00 00
00 00
00 00
3F 00
3F 00
CC C0
CC C0
0C C0
0C C0
0C C0
0C C0
0C C0
0C C0
0C C0
0C C0
0C C0
0C C0
0C C0
0C C0
3F 00
3F 00
00 00
00 00
00 00
00 00
ENDCHAR
STARTCHAR uni018B
ENCODING 395
BBX 12 26 0 -4
DWIDTH 12 0
SWIDTH 480 0
BITMAP
00 00
00 00
00 00
00 00
FF C0
FF C0
C0 C0
C0 C0
00 C0
00 C0
00 C0
00 C0
3F C0
3F C0
C0 C0
C0 C0
C0 C0
C0 C0
C0 C0
C0 C0
3F C0
3F C0
00 00
00 00
00 00
00 00
ENDCHAR
STARTCHAR uni018C
ENCODING 396
BBX 12 26 0 -4
DWIDTH 12 0
SWIDTH 480 0
BITMAP
00 00
00 00
00 00
00 00
3F C0
3F C0
30 C0
30 C0
00 C0
00 C0
00 C0
00 C0
0F C0
0F C0
30 C0
30 C0
30 C0
30 C0
30 C0
30 C0
0F C0
0F C0
00 00
00 00
00 00
00 00
ENDCHAR
STARTCHAR uni018D
ENCODING 397
BBX 12 26 0 -4
DWIDTH 12 0
SWIDTH 480 0
BITMAP
00 00
00 00
00 00
00 00
00 00
00 00
00 00
00 00
00 00
00 00
3F 00
3F 00
C0 C0
C0 C0
C0 C0
C0 C0
C0 C0
C0 C0
3F 00
3F 00
00 C0
00 C0
C0 C0
C0 C0
3F 00
3F 00
ENDCHAR
STARTCHAR uni018E
ENCODING 398
BBX 12 26 0 -4
DWIDTH 12 0
SWIDTH 480 0
BITMAP
00 00
00 00
00 00
00 00
FF C0
FF C0
00 C0
00 C0
00 C0
00 C0
00 C0
00 C0
3F C0
3F C0
00 C0
00 C0
00 C0
00 C0
00 C0
00 C0
FF C0
FF C0
00 00
00 00
00 00
00 00
ENDCHAR
STARTCHAR uni018F
ENCODING 399
BBX 12 26 0 -4
DWIDTH 12 0
SWIDTH 480 0
BITMAP
00 00
00 00
00 00
00 00
3F 00
3F 00
C0 C0
C0 C0
00 C0
00 C0
00 C0
00 C0
FF C0
FF C0
C0 C0
C0 C0
C0 C0
C0 C0
C0 C0
C0 C0
3F 00
3F 00
00 00
00 00
00 00
00 00
ENDCHAR
STARTCHAR uni0190
ENCODING 400
BBX 12 26 0 -4
DWIDTH 12 0
SWIDTH 480 0
BITMAP
00 00
00 00
00 00
00 00
3F 00
3F 00
C0 C0
C0 C0
C0 00
C0 00
C0 00
C0 00
3C 00
3C 00
C0 00
C0 00
C0 C0
C0 C0
C0 C0
C0 C0
3F 00
3F 00
00 00
00 00
00 00
00 00
ENDCHAR
STARTCHAR uni0191
ENCODING 401
BBX 12 26 0 -4
DWIDTH 12 0
SWIDTH 480 0
BITMAP
00 00
00 00
00 00
00 00
0F C0
0F C0
0C 00
0C 00
0C 00
0C 00
0C 00
0C 00
0F C0
0F C0
0C 00
0C 00
0C 00
0C 00
0C 00
0C 00
0C 00
0C 00
CC 00
CC 00
30 00
30 00
ENDCHAR
STARTCHAR florin
ENCODING 402
BBX 12 26 0 -4
DWIDTH 12 0
SWIDTH 480 0
BITMAP
00 00
00 00
00 00
00 00
03 00
03 00
0C C0
0C C0
0C 00
0C 00
0C 00
0C 00
3F 00
3F 00
0C 00
0C 00
0C 00
0C 00
0C 00
0C 00
0C 00
0C 00
CC 00
CC 00
30 00
30 00
ENDCHAR
STARTCHAR uni0193
ENCODING 403
BBX 12 26 0 -4
DWIDTH 12 0
SWIDTH 480 0
BITMAP
00 00
00 00
00 30
00 30
3F C0
3F C0
C0 C0
C0 C0
C0 00
C0 00
C0 00
C0 00
C0 00
C0 00
C3 C0
C3 C0
C0 C0
C0 C0
C0 C0
C0 C0
3F 00
3F 00
00 00
00 00
00 00
00 00
ENDCHAR
STARTCHAR uni0194
ENCODING 404
BBX 12 26 0 -4
DWIDTH 12 0
SWIDTH 480 0
BITMAP
00 00
00 00
00 00
00 00
00 00
00 00
00 00
00 00
00 00
00 00
C0 C0
C0 C0
C0 C0
C0 C0
33 00
33 00
0C 00
0C 00
0C 00
0C 00
33 00
33 00
33 00
33 00
0C 00
0C 00
ENDCHAR
STARTCHAR uni0195
ENCODING 405
BBX 12 26 0 -4
DWIDTH 12 0
SWIDTH 480 0
BITMAP
00 00
00 00
00 00
00 00
C0 00
C0 00
C0 00
C0 00
C0 00
C0 00
F0 C0
F0 C0
CC C0
CC C0
CC C0
CC C0
CC C0
CC C0
CC C0
CC C0
C3 00
C3 00
00 00
00 00
00 00
00 00
ENDCHAR
STARTCHAR uni0196
ENCODING 406
BBX 12 26 0 -4
DWIDTH 12 0
SWIDTH 480 0
BITMAP
00 00
00 00
00 00
00 00
3C 00
3C 00
0C 00
0C 00
0C 00
0C 00
0C 00
0C 00
0C 00
0C 00
0C 00
0C 00
0C 00
0C 00
0C C0
0C C0
03 00
03 00
00 00
00 00
00 00
00 00
ENDCHAR
STARTCHAR uni0197
ENCODING 407
BBX 12 26 0 -4
DWIDTH 12 0
SWIDTH 480 0
BITMAP
00 00
00 00
00 00
00 00
3F 00
3F 00
0C 00
0C 00
0C 00
0C 00
0C 00
0C 00
3F 00
3F 00
0C 00
0C 00
0C 00
0C 00
0C 00
0C 00
3F 00
3F 00
00 00
00 00
00 00
00 00
ENDCHAR
STARTCHAR uni0198
ENCODING 408
BBX 12 26 0 -4
DWIDTH 12 0
SWIDTH 480 0
BITMAP
00 00
00 00
00 00
00 00
C0 C0
C0 C0
C3 30
C3 30
C3 00
C3 00
CC 00
CC 00
F0 00
F0 00
CC 00
CC 00
C3 00
C3 00
C0 C0
C0 C0
C0 C0
C0 C0
00 00
00 00
00 00
00 00
ENDCHAR
STARTCHAR uni0199
ENCODING 409
BBX 12 26 0 -4
DWIDTH 12 0
SWIDTH 480 0
BITMAP
00 00
00 00
00 00
00 00
30 00
30 00
CC 00
CC 00
C0 00
C0 00
C3 00
C3 00
CC 00
CC 00
F0 00
F0 00
CC 00
CC 00
C3 00
C3 00
C0 C0
C0 C0
00 00
00 00
00 00
00 00
ENDCHAR
STARTCHAR uni019A
ENCODING 410
BBX 12 26 0 -4
DWIDTH 12 0
SWIDTH 480 0
BITMAP
00 00
00 00
00 00
00 00
3C 00
3C 00
0C 00
0C 00
0C 00
0C 00
0C 00
0C 00
3F 00
3F 00
0C 00
0C 00
0C 00
0C 00
0C 00
0C 00
3F 00
3F 00
00 00
00 00
00 00
00 00
ENDCHAR
STARTCHAR uni019B
ENCODING 411
BBX 12 26 0 -4
DWIDTH 12 0
SWIDTH 480 0
BITMAP
00 00
00 00
00 00
00 00
C3 00
C3 00
3C 00
3C 00
30 00
30 00
CC 00
CC 00
0C 00
0C 00
33 00
33 00
33 00
33 00
C0 C0
C0 C0
C0 C0
C0 C0
00 00
00 00
00 00
00 00
ENDCHAR
STARTCHAR uni019C
ENCODING 412
BBX 12 26 0 -4
DWIDTH 12 0
SWIDTH 480 0
BITMAP
00 00
00 00
00 00
00 00
CC C0
CC C0
CC C0
CC C0
CC C0
CC C0
CC C0
CC C0
CC C0
CC C0
CC C0
CC C0
CC C0
CC C0
CC C0
CC C0
33 C0
33 C0
00 00
00 00
00 00
00 00
ENDCHAR
STARTCHAR uni019D
ENCODING 413
BBX 12 26 0 -4
DWIDTH 12 0
SWIDTH 480 0
BITMAP
00 00
00 00
00 00
00 00
30 C0
30 C0
30 C0
30 C0
3C C0
3C C0
3C C0
3C C0
3F C0
3F C0
33 C0
33 C0
33 C0
33 C0
30 C0
30 C0
30 C0
30 C0
F0 00
F0 00
30 00
30 00
ENDCHAR
STARTCHAR uni019E
ENCODING 414
BBX 12 26 0 -4
DWIDTH 12 0
SWIDTH 480 0
BITMAP
00 00
00 00
00 00
00 00
00 00
00 00
00 00
00 00
00 00
00 00
CF 00
CF 00
F0 C0
F0 C0
C0 C0
C0 C0
C0 C0
C0 C0
C0 C0
C0 C0
C0 C0
C0 C0
00 C0
00 C0
00 C0
00 C0
ENDCHAR
STARTCHAR uni019F
ENCODING 415
BBX 12 26 0 -4
DWIDTH 12 0
SWIDTH 480 0
BITMAP
00 00
00 00
00 00
00 00
3F 00
3F 00
C0 C0
C0 C0
C0 C0
C0 C0
C0 C0
C0 C0
FF C0
FF C0
C0 C0
C0 C0
C0 C0
C0 C0
C0 C0
C0 C0
3F 00
3F 00
00 00
00 00
00 00
00 00
ENDCHAR
STARTCHAR Ohorn
ENCODING 416
BBX 12 26 0 -4
DWIDTH 12 0
SWIDTH 480 0
BITMAP
00 00
00 00
00 00
00 00
3C 30
3C 30
C3 30
C3 30
C3 C0
C3 C0
C3 00
C3 00
C3 00
C3 00
C3 00
C3 00
C3 00
C3 00
C3 00
C3 00
3C 00
3C 00
00 00
00 00
00 00
00 00
ENDCHAR
STARTCHAR ohorn
ENCODING 417
BBX 12 26 0 -4
DWIDTH 12 0
SWIDTH 480 0
BITMAP
00 00
00 00
00 00
00 00
00 00
00 00
00 00
00 00
00 00
00 00
3C 30
3C 30
C3 30
C3 30
C3 C0
C3 C0
C3 00
C3 00
C3 00
C3 00
3C 00
3C 00
00 00
00 00
00 00
00 00
ENDCHAR
STARTCHAR uni01A2
ENCODING 418
BBX 12 26 0 -4
DWIDTH 12 0
SWIDTH 480 0
BITMAP
00 00
00 00
00 00
00 00
33 00
33 00
CC C0
CC C0
CC C0
CC C0
CC C0
CC C0
CC C0
CC C0
CC C0
CC C0
CC C0
CC C0
CC C0
CC C0
30 C0
30 C0
00 00
00 00
00 00
00 00
ENDCHAR
STARTCHAR uni01A3
ENCODING 419
BBX 12 26 0 -4
DWIDTH 12 0
SWIDTH 480 0
BITMAP
00 00
00 00
00 00
00 00
00 00
00 00
00 00
00 00
00 00
00 00
33 00
33 00
CC C0
CC C0
CC C0
CC C0
CC C0
CC C0
CC C0
CC C0
30 C0
30 C0
00 C0
00 C0
00 C0
00 C0
ENDCHAR
STARTCHAR uni01A4
ENCODING 420
BBX 12 26 0 -4
DWIDTH 12 0
SWIDTH 480 0
BITMAP
00 00
00 00
00 00
00 00
3F 00
3F 00
CC C0
CC C0
CC C0
CC C0
0C C0
0C C0
0F 00
0F 00
0C 00
0C 00
0C 00
0C 00
0C 00
0C 00
0C 00
0C 00
00 00
00 00
00 00
00 00
ENDCHAR
STARTCHAR uni01A5
ENCODING 421
BBX 12 26 0 -4
DWIDTH 12 0
SWIDTH 480 0
BITMAP
00 00
00 00
00 00
00 00
30 00
30 00
CC 00
CC 00
C0 00
C0 00
FF 00
FF 00
C0 C0
C0 C0
C0 C0
C0 C0
C0 C0
C0 C0
FF 00
FF 00
C0 00
C0 00
C0 00
C0 00
C0 00
C0 00
ENDCHAR
STARTCHAR uni01A6
ENCODING 422
BBX 12 26 0 -4
DWIDTH 12 0
SWIDTH 480 0
BITMAP
00 00
00 00
00 00
00 00
C0 00
C0 00
C0 00
C0 00
FF 00
FF 00
C0 C0
C0 C0
C0 C0
C0 C0
C0 C0
C0 C0
FF 00
FF 00
CC 00
CC 00
C3 00
C3 00
00 C0
00 C0
00 C0
00 C0
ENDCHAR
STARTCHAR uni01A7
ENCODING 423
BBX 12 26 0 -4
DWIDTH 12 0
SWIDTH 480 0
BITMAP
00 00
00 00
00 00
00 00
3F 00
3F 00
C0 C0
C0 C0
00 C0
00 C0
00 C0
00 C0
3F 00
3F 00
C0 00
C0 00
C0 00
C0 00
C0 C0
C0 C0
3F 00
3F 00
00 00
00 00
00 00
00 00
ENDCHAR
STARTCHAR uni01A8
ENCODING 424
BBX 12 26 0 -4
DWIDTH 12 0
SWIDTH 480 0
BITMAP
00 00
00 00
00 00
00 00
00 00
00 00
00 00
00 00
00 00
00 00
3F 00
3F 00
C0 C0
C0 C0
0F 00
0F 00
30 00
30 00
C0 C0
C0 C0
3F 00
3F 00
00 00
00 00
00 00
00 00
ENDCHAR
STARTCHAR uni01A9
ENCODING 425
BBX 12 26 0 -4
DWIDTH 12 0
SWIDTH 480 0
BITMAP
00 00
00 00
00 00
00 00
FF C0
FF C0
C0 00
C0 00
30 00
30 00
0C 00
0C 00
03 00
03 00
0C 00
0C 00
30 00
30 00
C0 00
C0 00
FF C0
FF C0
00 00
00 00
00 00
00 00
ENDCHAR
STARTCHAR uni01AA
ENCODING 426
BBX 12 26 0 -4
DWIDTH 12 0
SWIDTH 480 0
BITMAP
00 00
00 00
00 00
00 00
30 00
30 00
CC 00
CC 00
3C 00
3C 00
0C 00
0C 00
0C 00
0C 00
0C 00
0C 00
0C 00
0C 00
0C 00
0C 00
0C C0
0C C0
03 00
03 00
00 00
00 00
ENDCHAR
STARTCHAR uni01AB
ENCODING 427
BBX 12 26 0 -4
DWIDTH 12 0
SWIDTH 480 0
BITMAP
00 00
00 00
00 00
00 00
00 00
00 00
30 00
30 00
30 00
30 00
FF 00
FF 00
30 00
30 00
30 00
30 00
30 00
30 00
30 C0
30 C0
0F 00
0F 00
03 00
03 00
0C 00
0C 00
ENDCHAR
STARTCHAR uni01AC
ENCODING 428
BBX 12 26 0 -4
DWIDTH 12 0
SWIDTH 480 0
BITMAP
00 00
00 00
00 00
00 00
3F C0
3F C0
CC 00
CC 00
CC 00
CC 00
0C 00
0C 00
0C 00
0C 00
0C 00
0C 00
0C 00
0C 00
0C 00
0C 00
0C 00
0C 00
00 00
00 00
00 00
00 00
ENDCHAR
STARTCHAR uni01AD
ENCODING 429
BBX 12 26 0 -4
DWIDTH 12 0
SWIDTH 480 0
BITMAP
00 00
00 00
00 00
00 00
0C 00
0C 00
33 00
33 00
30 00
30 00
FF 00
FF 00
30 00
30 00
30 00
30 00
30 00
30 00
30 C0
30 C0
0F 00
0F 00
00 00
00 00
00 00
00 00
ENDCHAR
STARTCHAR uni01AE
ENCODING 430
BBX 12 26 0 -4
DWIDTH 12 0
SWIDTH 480 0
BITMAP
00 00
00 00
00 00
00 00
FF C0
FF C0
0C 00
0C 00
0C 00
0C 00
0C 00
0C 00
0C 00
0C 00
0C 00
0C 00
0C 00
0C 00
0C 00
0C 00
0C 00
0C 00
0C C0
0C C0
03 00
03 00
ENDCHAR
STARTCHAR Uhorn
ENCODING 431
BBX 12 26 0 -4
DWIDTH 12 0
SWIDTH 480 0
BITMAP
00 00
00 00
00 00
00 00
C3 30
C3 30
C3 30
C3 30
C3 C0
C3 C0
C3 00
C3 00
C3 00
C3 00
C3 00
C3 00
C3 00
C3 00
C3 00
C3 00
3C 00
3C 00
00 00
00 00
00 00
00 00
ENDCHAR
STARTCHAR uhorn
ENCODING 432
BBX 12 26 0 -4
DWIDTH 12 0
SWIDTH 480 0
BITMAP
00 00
00 00
00 00
00 00
00 00
00 00
00 00
00 00
00 00
00 00
C3 30
C3 30
C3 30
C3 30
C3 C0
C3 C0
C3 00
C3 00
CF 00
CF 00
33 00
33 00
00 00
00 00
00 00
00 00
ENDCHAR
STARTCHAR uni01B1
ENCODING 433
BBX 12 26 0 -4
DWIDTH 12 0
SWIDTH 480 0
BITMAP
00 00
00 00
00 00
00 00
F3 C0
F3 C0
33 00
33 00
33 00
33 00
C0 C0
C0 C0
C0 C0
C0 C0
C0 C0
C0 C0
C0 C0
C0 C0
C0 C0
C0 C0
3F 00
3F 00
00 00
00 00
00 00
00 00
ENDCHAR
STARTCHAR uni01B2
ENCODING 434
BBX 12 26 0 -4
DWIDTH 12 0
SWIDTH 480 0
BITMAP
00 00
00 00
00 00
00 00
C3 00
C3 00
C0 C0
C0 C0
C0 C0
C0 C0
C0 C0
C0 C0
C0 C0
C0 C0
C0 C0
C0 C0
C0 C0
C0 C0
C0 C0
C0 C0
3F 00
3F 00
00 00
00 00
00 00
00 00
ENDCHAR
STARTCHAR uni01B3
ENCODING 435
BBX 12 26 0 -4
DWIDTH 12 0
SWIDTH 480 0
BITMAP
00 00
00 00
00 00
00 00
3C C0
3C C0
CC C0
CC C0
CC C0
CC C0
0C C0
0C C0
03 00
03 00
03 00
03 00
03 00
03 00
03 00
03 00
03 00
03 00
00 00
00 00
00 00
00 00
ENDCHAR
STARTCHAR uni01B4
ENCODING 436
BBX 12 26 0 -4
DWIDTH 12 0
SWIDTH 480 0
BITMAP
00 00
00 00
00 00
00 00
00 00
00 00
00 00
00 00
00 C0
00 C0
C3 30
C3 30
C3 00
C3 00
C3 00
C3 00
C3 00
C3 00
3F 00
3F 00
03 00
03 00
C3 00
C3 00
3C 00
3C 00
ENDCHAR
STARTCHAR uni01B5
ENCODING 437
BBX 12 26 0 -4
DWIDTH 12 0
SWIDTH 480 0
BITMAP
00 00
00 00
00 00
00 00
FF C0
FF C0
00 C0
00 C0
03 00
03 00
03 00
03 00
FF C0
FF C0
30 00
30 00
30 00
30 00
C0 00
C0 00
FF C0
FF C0
00 00
00 00
00 00
00 00
ENDCHAR
STARTCHAR uni01B6
ENCODING 438
BBX 12 26 0 -4
DWIDTH 12 0
SWIDTH 480 0
BITMAP
00 00
00 00
00 00
00 00
00 00
00 00
00 00
00 00
00 00
00 00
FF C0
FF C0
03 00
03 00
FF C0
FF C0
30 00
30 00
C0 00
C0 00
FF C0
FF C0
00 00
00 00
00 00
00 00
ENDCHAR
STARTCHAR uni01B7
ENCODING 439
BBX 12 26 0 -4
DWIDTH 12 0
SWIDTH 480 0
BITMAP
00 00
00 00
00 00
00 00
FF C0
FF C0
00 C0
00 C0
03 00
03 00
0C 00
0C 00
3F 00
3F 00
00 C0
00 C0
00 C0
00 C0
C0 C0
C0 C0
3F 00
3F 00
00 00
00 00
00 00
00 00
ENDCHAR
STARTCHAR uni01B8
ENCODING 440
BBX 12 26 0 -4
DWIDTH 12 0
SWIDTH 480 0
BITMAP
00 00
00 00
00 00
00 00
FF C0
FF C0
C0 00
C0 00
30 00
30 00
0C 00
0C 00
3F 00
3F 00
C0 00
C0 00
C0 00
C0 00
C0 C0
C0 C0
3F 00
3F 00
00 00
00 00
00 00
00 00
ENDCHAR
STARTCHAR uni01B9
ENCODING 441
BBX 12 26 0 -4
DWIDTH 12 0
SWIDTH 480 0
BITMAP
00 00
00 00
00 00
00 00
00 00
00 00
00 00
00 00
00 00
00 00
FF C0
FF C0
30 00
30 00
0C 00
0C 00
3F 00
3F 00
C0 00
C0 00
C0 00
C0 00
C0 C0
C0 C0
3F 00
3F 00
ENDCHAR
STARTCHAR uni01BA
ENCODING 442
BBX 12 26 0 -4
DWIDTH 12 0
SWIDTH 480 0
BITMAP
00 00
00 00
00 00
00 00
00 00
00 00
00 00
00 00
00 00
00 00
FF C0
FF C0
03 00
03 00
0C 00
0C 00
3F 00
3F 00
03 00
03 00
3C 00
3C 00
C0 C0
C0 C0
3F 00
3F 00
ENDCHAR
STARTCHAR uni01BB
ENCODING 443
BBX 12 26 0 -4
DWIDTH 12 0
SWIDTH 480 0
BITMAP
00 00
00 00
00 00
00 00
3F 00
3F 00
C0 C0
C0 C0
C0 C0
C0 C0
00 C0
00 C0
03 00
03 00
FF C0
FF C0
30 00
30 00
C0 00
C0 00
FF C0
FF C0
00 00
00 00
00 00
00 00
ENDCHAR
STARTCHAR uni01BC
ENCODING 444
BBX 12 26 0 -4
DWIDTH 12 0
SWIDTH 480 0
BITMAP
00 00
00 00
00 00
00 00
FF C0
FF C0
C0 C0
C0 C0
C0 00
C0 00
CF 00
CF 00
F0 C0
F0 C0
00 C0
00 C0
00 C0
00 C0
C0 C0
C0 C0
3F 00
3F 00
00 00
00 00
00 00
00 00
ENDCHAR
STARTCHAR uni01BD
ENCODING 445
BBX 12 26 0 -4
DWIDTH 12 0
SWIDTH 480 0
BITMAP
00 00
00 00
00 00
00 00
3F C0
3F C0
30 C0
30 C0
30 00
30 00
33 00
33 00
3C C0
3C C0
00 C0
00 C0
00 C0
00 C0
30 C0
30 C0
0F 00
0F 00
00 00
00 00
00 00
00 00
ENDCHAR
STARTCHAR uni01BE
ENCODING 446
BBX 12 26 0 -4
DWIDTH 12 0
SWIDTH 480 0
BITMAP
00 00
00 00
00 00
00 00
00 00
00 00
00 00
00 00
0C 00
0C 00
0C 00
0C 00
3F 00
3F 00
0C 00
0C 00
03 00
03 00
33 00
33 00
0C 00
0C 00
00 00
00 00
00 00
00 00
ENDCHAR
STARTCHAR uni01BF
ENCODING 447
BBX 12 26 0 -4
DWIDTH 12 0
SWIDTH 480 0
BITMAP
00 00
00 00
00 00
00 00
00 00
00 00
00 00
00 00
00 00
00 00
33 00
33 00
3C C0
3C C0
30 C0
30 C0
30 C0
30 C0
33 00
33 00
3C 00
3C 00
30 00
30 00
F0 00
F0 00
ENDCHAR
STARTCHAR uni01C0
ENCODING 448
BBX 12 26 0 -4
DWIDTH 12 0
SWIDTH 480 0
BITMAP
00 00
00 00
00 00
00 00
0C 00
0C 00
0C 00
0C 00
0C 00
0C 00
0C 00
0C 00
0C 00
0C 00
0C 00
0C 00
0C 00
0C 00
0C 00
0C 00
0C 00
0C 00
0C 00
0C 00
0C 00
0C 00
ENDCHAR
STARTCHAR uni01C1
ENCODING 449
BBX 12 26 0 -4
DWIDTH 12 0
SWIDTH 480 0
BITMAP
00 00
00 00
00 00
00 00
33 00
33 00
33 00
33 00
33 00
33 00
33 00
33 00
33 00
33 00
33 00
33 00
33 00
33 00
33 00
33 00
33 00
33 00
33 00
33 00
33 00
33 00
ENDCHAR
STARTCHAR uni01C2
ENCODING 450
BBX 12 26 0 -4
DWIDTH 12 0
SWIDTH 480 0
BITMAP
00 00
00 00
00 00
00 00
00 00
00 00
00 00
00 00
0C 00
0C 00
0C 00
0C 00
FF C0
FF C0
0C 00
0C 00
FF C0
FF C0
0C 00
0C 00
0C 00
0C 00
00 00
00 00
00 00
00 00
ENDCHAR
STARTCHAR uni01C3
ENCODING 451
BBX 12 26 0 -4
DWIDTH 12 0
SWIDTH 480 0
BITMAP
00 00
00 00
00 00
00 00
0C 00
0C 00
0C 00
0C 00
0C 00
0C 00
0C 00
0C 00
0C 00
0C 00
0C 00
0C 00
0C 00
0C 00
00 00
00 00
0C 00
0C 00
00 00
00 00
00 00
00 00
ENDCHAR
STARTCHAR uni01C4
ENCODING 452
BBX 12 26 0 -4
DWIDTH 12 0
SWIDTH 480 0
BITMAP
00 00
00 00
0C C0
0C C0
03 00
03 00
00 00
00 00
F3 C0
F3 C0
CC C0
CC C0
CC C0
CC C0
CF 00
CF 00
CF 00
CF 00
CF 00
CF 00
F3 C0
F3 C0
00 00
00 00
00 00
00 00
ENDCHAR
STARTCHAR uni01C5
ENCODING 453
BBX 12 26 0 -4
DWIDTH 12 0
SWIDTH 480 0
BITMAP
00 00
00 00
00 00
00 00
0C C0
0C C0
03 00
03 00
F0 00
F0 00
CC 00
CC 00
CF C0
CF C0
CC C0
CC C0
CC C0
CC C0
CF 00
CF 00
F3 C0
F3 C0
00 00
00 00
00 00
00 00
ENDCHAR
STARTCHAR uni01C6
ENCODING 454
BBX 12 26 0 -4
DWIDTH 12 0
SWIDTH 480 0
BITMAP
00 00
00 00
0C C0
0C C0
03 00
03 00
00 00
00 00
0C 00
0C 00
0C 00
0C 00
3F C0
3F C0
CC C0
CC C0
CC C0
CC C0
CF 00
CF 00
3F C0
3F C0
00 00
00 00
00 00
00 00
ENDCHAR
STARTCHAR uni01C7
ENCODING 455
BBX 12 26 0 -4
DWIDTH 12 0
SWIDTH 480 0
BITMAP
00 00
00 00
00 00
00 00
C0 C0
C0 C0
C0 C0
C0 C0
C0 C0
C0 C0
C0 C0
C0 C0
C0 C0
C0 C0
C0 C0
C0 C0
C0 C0
C0 C0
CC C0
CC C0
FF 00
FF 00
00 00
00 00
00 00
00 00
ENDCHAR
STARTCHAR uni01C8
ENCODING 456
BBX 12 26 0 -4
DWIDTH 12 0
SWIDTH 480 0
BITMAP
00 00
00 00
00 00
00 00
C0 00
C0 00
C0 C0
C0 C0
C0 00
C0 00
C3 C0
C3 C0
C0 C0
C0 C0
C0 C0
C0 C0
C0 C0
C0 C0
C0 C0
C0 C0
FF C0
FF C0
0C C0
0C C0
03 00
03 00
ENDCHAR
STARTCHAR uni01C9
ENCODING 457
BBX 12 26 0 -4
DWIDTH 12 0
SWIDTH 480 0
BITMAP
00 00
00 00
00 00
00 00
F0 00
F0 00
30 C0
30 C0
30 00
30 00
33 C0
33 C0
30 C0
30 C0
30 C0
30 C0
30 C0
30 C0
30 C0
30 C0
FC C0
FC C0
0C C0
0C C0
03 00
03 00
ENDCHAR
STARTCHAR uni01CA
ENCODING 458
BBX 12 26 0 -4
DWIDTH 12 0
SWIDTH 480 0
BITMAP
00 00
00 00
00 00
00 00
CF C0
CF C0
CC C0
CC C0
FC C0
FC C0
FC C0
FC C0
FC C0
FC C0
FC C0
FC C0
FC C0
FC C0
CF C0
CF C0
CF C0
CF C0
00 00
00 00
00 00
00 00
ENDCHAR
STARTCHAR uni01CB
ENCODING 459
BBX 12 26 0 -4
DWIDTH 12 0
SWIDTH 480 0
BITMAP
00 00
00 00
00 00
00 00
CC 00
CC 00
CC C0
CC C0
FC 00
FC 00
FF C0
FF C0
FC C0
FC C0
FC C0
FC C0
FC C0
FC C0
CC C0
CC C0
CC C0
CC C0
0C C0
0C C0
03 00
03 00
ENDCHAR
STARTCHAR uni01CC
ENCODING 460
BBX 12 26 0 -4
DWIDTH 12 0
SWIDTH 480 0
BITMAP
00 00
00 00
00 00
00 00
00 00
00 00
00 C0
00 C0
00 00
00 00
F0 C0
F0 C0
CC C0
CC C0
CC C0
CC C0
CC C0
CC C0
CC C0
CC C0
CC C0
CC C0
0C C0
0C C0
03 00
03 00
ENDCHAR
STARTCHAR uni01CD
ENCODING 461
BBX 12 26 0 -4
DWIDTH 12 0
SWIDTH 480 0
BITMAP
00 00
00 00
30 C0
30 C0
0F 00
0F 00
00 00
00 00
0C 00
0C 00
33 00
33 00
C0 C0
C0 C0
C0 C0
C0 C0
FF C0
FF C0
C0 C0
C0 C0
C0 C0
C0 C0
00 00
00 00
00 00
00 00
ENDCHAR
STARTCHAR uni01CE
ENCODING 462
BBX 12 26 0 -4
DWIDTH 12 0
SWIDTH 480 0
BITMAP
00 00
00 00
00 00
00 00
30 C0
30 C0
0F 00
0F 00
00 00
00 00
3F 00
3F 00
00 C0
00 C0
3F C0
3F C0
C0 C0
C0 C0
C3 C0
C3 C0
3C C0
3C C0
00 00
00 00
00 00
00 00
ENDCHAR
STARTCHAR uni01CF
ENCODING 463
BBX 12 26 0 -4
DWIDTH 12 0
SWIDTH 480 0
BITMAP
00 00
00 00
30 C0
30 C0
0F 00
0F 00
00 00
00 00
3F 00
3F 00
0C 00
0C 00
0C 00
0C 00
0C 00
0C 00
0C 00
0C 00
0C 00
0C 00
3F 00
3F 00
00 00
00 00
00 00
00 00
ENDCHAR
STARTCHAR uni01D0
ENCODING 464
BBX 12 26 0 -4
DWIDTH 12 0
SWIDTH 480 0
BITMAP
00 00
00 00
00 00
00 00
C3 00
C3 00
3C 00
3C 00
00 00
00 00
3C 00
3C 00
0C 00
0C 00
0C 00
0C 00
0C 00
0C 00
0C 00
0C 00
3F 00
3F 00
00 00
00 00
00 00
00 00
ENDCHAR
STARTCHAR uni01D1
ENCODING 465
BBX 12 26 0 -4
DWIDTH 12 0
SWIDTH 480 0
BITMAP
00 00
00 00
30 C0
30 C0
0F 00
0F 00
00 00
00 00
3F 00
3F 00
C0 C0
C0 C0
C0 C0
C0 C0
C0 C0
C0 C0
C0 C0
C0 C0
C0 C0
C0 C0
3F 00
3F 00
00 00
00 00
00 00
00 00
ENDCHAR
STARTCHAR uni01D2
ENCODING 466
BBX 12 26 0 -4
DWIDTH 12 0
SWIDTH 480 0
BITMAP
00 00
00 00
00 00
00 00
30 C0
30 C0
0F 00
0F 00
00 00
00 00
3F 00
3F 00
C0 C0
C0 C0
C0 C0
C0 C0
C0 C0
C0 C0
C0 C0
C0 C0
3F 00
3F 00
00 00
00 00
00 00
00 00
ENDCHAR
STARTCHAR uni01D3
ENCODING 467
BBX 12 26 0 -4
DWIDTH 12 0
SWIDTH 480 0
BITMAP
00 00
00 00
30 C0
30 C0
0F 00
0F 00
00 00
00 00
C0 C0
C0 C0
C0 C0
C0 C0
C0 C0
C0 C0
C0 C0
C0 C0
C0 C0
C0 C0
C0 C0
C0 C0
3F 00
3F 00
00 00
00 00
00 00
00 00
ENDCHAR
STARTCHAR uni01D4
ENCODING 468
BBX 12 26 0 -4
DWIDTH 12 0
SWIDTH 480 0
BITMAP
00 00
00 00
00 00
00 00
30 C0
30 C0
0F 00
0F 00
00 00
00 00
C0 C0
C0 C0
C0 C0
C0 C0
C0 C0
C0 C0
C0 C0
C0 C0
C3 C0
C3 C0
3C C0
3C C0
00 00
00 00
00 00
00 00
ENDCHAR
STARTCHAR uni01D5
ENCODING 469
BBX 12 26 0 -4
DWIDTH 12 0
SWIDTH 480 0
BITMAP
00 00
00 00
FF C0
FF C0
00 00
00 00
33 00
33 00
00 00
00 00
C0 C0
C0 C0
C0 C0
C0 C0
C0 C0
C0 C0
C0 C0
C0 C0
C0 C0
C0 C0
3F 00
3F 00
00 00
00 00
00 00
00 00
ENDCHAR
STARTCHAR uni01D6
ENCODING 470
BBX 12 26 0 -4
DWIDTH 12 0
SWIDTH 480 0
BITMAP
00 00
00 00
FF C0
FF C0
00 00
00 00
33 00
33 00
33 00
33 00
00 00
00 00
C0 C0
C0 C0
C0 C0
C0 C0
C0 C0
C0 C0
C3 C0
C3 C0
3C C0
3C C0
00 00
00 00
00 00
00 00
ENDCHAR
STARTCHAR uni01D7
ENCODING 471
BBX 12 26 0 -4
DWIDTH 12 0
SWIDTH 480 0
BITMAP
03 00
03 00
0C 00
0C 00
00 00
00 00
33 00
33 00
00 00
00 00
C0 C0
C0 C0
C0 C0
C0 C0
C0 C0
C0 C0
C0 C0
C0 C0
C0 C0
C0 C0
3F 00
3F 00
00 00
00 00
00 00
00 00
ENDCHAR
STARTCHAR uni01D8
ENCODING 472
BBX 12 26 0 -4
DWIDTH 12 0
SWIDTH 480 0
BITMAP
03 00
03 00
0C 00
0C 00
00 00
00 00
33 00
33 00
33 00
33 00
00 00
00 00
C0 C0
C0 C0
C0 C0
C0 C0
C0 C0
C0 C0
C3 C0
C3 C0
3C C0
3C C0
00 00
00 00
00 00
00 00
ENDCHAR
STARTCHAR uni01D9
ENCODING 473
BBX 12 26 0 -4
DWIDTH 12 0
SWIDTH 480 0
BITMAP
30 C0
30 C0
0F 00
0F 00
00 00
00 00
33 00
33 00
00 00
00 00
C0 C0
C0 C0
C0 C0
C0 C0
C0 C0
C0 C0
C0 C0
C0 C0
C0 C0
C0 C0
3F 00
3F 00
00 00
00 00
00 00
00 00
ENDCHAR
STARTCHAR uni01DA
ENCODING 474
BBX 12 26 0 -4
DWIDTH 12 0
SWIDTH 480 0
BITMAP
30 C0
30 C0
0F 00
0F 00
00 00
00 00
33 00
33 00
33 00
33 00
00 00
00 00
C0 C0
C0 C0
C0 C0
C0 C0
C0 C0
C0 C0
C3 C0
C3 C0
3C C0
3C C0
00 00
00 00
00 00
00 00
ENDCHAR
STARTCHAR uni01DB
ENCODING 475
BBX 12 26 0 -4
DWIDTH 12 0
SWIDTH 480 0
BITMAP
30 00
30 00
0C 00
0C 00
00 00
00 00
33 00
33 00
00 00
00 00
C0 C0
C0 C0
C0 C0
C0 C0
C0 C0
C0 C0
C0 C0
C0 C0
C0 C0
C0 C0
3F 00
3F 00
00 00
00 00
00 00
00 00
ENDCHAR
STARTCHAR uni01DC
ENCODING 476
BBX 12 26 0 -4
DWIDTH 12 0
SWIDTH 480 0
BITMAP
30 00
30 00
0C 00
0C 00
00 00
00 00
33 00
33 00
33 00
33 00
00 00
00 00
C0 C0
C0 C0
C0 C0
C0 C0
C0 C0
C0 C0
C3 C0
C3 C0
3C C0
3C C0
00 00
00 00
00 00
00 00
ENDCHAR
STARTCHAR uni01DD
ENCODING 477
BBX 12 26 0 -4
DWIDTH 12 0
SWIDTH 480 0
BITMAP
00 00
00 00
00 00
00 00
00 00
00 00
00 00
00 00
00 00
00 00
3F 00
3F 00
C0 C0
C0 C0
00 C0
00 C0
FF C0
FF C0
C0 C0
C0 C0
3F 00
3F 00
00 00
00 00
00 00
00 00
ENDCHAR
STARTCHAR uni01DE
ENCODING 478
BBX 12 26 0 -4
DWIDTH 12 0
SWIDTH 480 0
BITMAP
FF C0
FF C0
00 00
00 00
33 00
33 00
00 00
00 00
0C 00
0C 00
33 00
33 00
C0 C0
C0 C0
C0 C0
C0 C0
FF C0
FF C0
C0 C0
C0 C0
C0 C0
C0 C0
00 00
00 00
00 00
00 00
ENDCHAR
STARTCHAR uni01DF
ENCODING 479
BBX 12 26 0 -4
DWIDTH 12 0
SWIDTH 480 0
BITMAP
FF C0
FF C0
00 00
00 00
33 00
33 00
33 00
33 00
00 00
00 00
3F 00
3F 00
00 C0
00 C0
3F C0
3F C0
C0 C0
C0 C0
C3 C0
C3 C0
3C C0
3C C0
00 00
00 00
00 00
00 00
ENDCHAR
STARTCHAR uni01E0
ENCODING 480
BBX 12 26 0 -4
DWIDTH 12 0
SWIDTH 480 0
BITMAP
FF C0
FF C0
00 00
00 00
0C 00
0C 00
00 00
00 00
0C 00
0C 00
33 00
33 00
C0 C0
C0 C0
C0 C0
C0 C0
FF C0
FF C0
C0 C0
C0 C0
C0 C0
C0 C0
00 00
00 00
00 00
00 00
ENDCHAR
STARTCHAR uni01E1
ENCODING 481
BBX 12 26 0 -4
DWIDTH 12 0
SWIDTH 480 0
BITMAP
FF C0
FF C0
00 00
00 00
0C 00
0C 00
0C 00
0C 00
00 00
00 00
3F 00
3F 00
00 C0
00 C0
3F C0
3F C0
C0 C0
C0 C0
C3 C0
C3 C0
3C C0
3C C0
00 00
00 00
00 00
00 00
ENDCHAR
STARTCHAR uni01E2
ENCODING 482
BBX 12 26 0 -4
DWIDTH 12 0
SWIDTH 480 0
BITMAP
00 00
00 00
00 00
00 00
FF C0
FF C0
00 00
00 00
33 C0
33 C0
CC 00
CC 00
CC 00
CC 00
FF 00
FF 00
CC 00
CC 00
CC 00
CC 00
CF C0
CF C0
00 00
00 00
00 00
00 00
ENDCHAR
STARTCHAR uni01E3
ENCODING 483
BBX 12 26 0 -4
DWIDTH 12 0
SWIDTH 480 0
BITMAP
00 00
00 00
00 00
00 00
00 00
00 00
FF C0
FF C0
00 00
00 00
3F 00
3F 00
0C C0
0C C0
3F 00
3F 00
CC 00
CC 00
CC C0
CC C0
33 00
33 00
00 00
00 00
00 00
00 00
ENDCHAR
STARTCHAR uni01E4
ENCODING 484
BBX 12 26 0 -4
DWIDTH 12 0
SWIDTH 480 0
BITMAP
00 00
00 00
00 00
00 00
3C 00
3C 00
C3 00
C3 00
C0 00
C0 00
C0 00
C0 00
C0 00
C0 00
CF 00
CF 00
CF C0
CF C0
C3 00
C3 00
3C 00
3C 00
00 00
00 00
00 00
00 00
ENDCHAR
STARTCHAR uni01E5
ENCODING 485
BBX 12 26 0 -4
DWIDTH 12 0
SWIDTH 480 0
BITMAP
00 00
00 00
00 00
00 00
00 00
00 00
00 00
00 00
00 00
00 00
3C 00
3C 00
C3 00
C3 00
C3 00
C3 00
C3 00
C3 00
3F 00
3F 00
03 00
03 00
FF C0
FF C0
3C 00
3C 00
ENDCHAR
STARTCHAR Gcaron
ENCODING 486
BBX 12 26 0 -4
DWIDTH 12 0
SWIDTH 480 0
BITMAP
00 00
00 00
30 C0
30 C0
0F 00
0F 00
00 00
00 00
3F 00
3F 00
C0 C0
C0 C0
C0 00
C0 00
C3 C0
C3 C0
C0 C0
C0 C0
C0 C0
C0 C0
3F 00
3F 00
00 00
00 00
00 00
00 00
ENDCHAR
STARTCHAR gcaron
ENCODING 487
BBX 12 26 0 -4
DWIDTH 12 0
SWIDTH 480 0
BITMAP
00 00
00 00
30 C0
30 C0
0F 00
0F 00
00 00
00 00
00 00
00 00
3F 00
3F 00
C0 C0
C0 C0
C0 C0
C0 C0
C0 C0
C0 C0
3F C0
3F C0
00 C0
00 C0
C0 C0
C0 C0
3F 00
3F 00
ENDCHAR
STARTCHAR uni01E8
ENCODING 488
BBX 12 26 0 -4
DWIDTH 12 0
SWIDTH 480 0
BITMAP
00 00
00 00
30 C0
30 C0
0F 00
0F 00
00 00
00 00
C0 C0
C0 C0
C3 00
C3 00
CC 00
CC 00
F0 00
F0 00
CC 00
CC 00
C3 00
C3 00
C0 C0
C0 C0
00 00
00 00
00 00
00 00
ENDCHAR
STARTCHAR uni01E9
ENCODING 489
BBX 12 26 0 -4
DWIDTH 12 0
SWIDTH 480 0
BITMAP
00 00
00 00
30 C0
30 C0
0F 00
0F 00
00 00
00 00
C0 00
C0 00
C0 00
C0 00
C3 00
C3 00
CC 00
CC 00
F0 00
F0 00
CC 00
CC 00
C3 00
C3 00
00 00
00 00
00 00
00 00
ENDCHAR
STARTCHAR uni01EA
ENCODING 490
BBX 12 26 0 -4
DWIDTH 12 0
SWIDTH 480 0
BITMAP
00 00
00 00
00 00
00 00
3F 00
3F 00
C0 C0
C0 C0
C0 C0
C0 C0
C0 C0
C0 C0
C0 C0
C0 C0
C0 C0
C0 C0
C0 C0
C0 C0
C0 C0
C0 C0
3F 00
3F 00
0C 00
0C 00
03 00
03 00
ENDCHAR
STARTCHAR uni01EB
ENCODING 491
BBX 12 26 0 -4
DWIDTH 12 0
SWIDTH 480 0
BITMAP
00 00
00 00
00 00
00 00
00 00
00 00
00 00
00 00
00 00
00 00
3F 00
3F 00
C0 C0
C0 C0
C0 C0
C0 C0
C0 C0
C0 C0
C0 C0
C0 C0
3F 00
3F 00
0C 00
0C 00
03 00
03 00
ENDCHAR
STARTCHAR uni01EC
ENCODING 492
BBX 12 26 0 -4
DWIDTH 12 0
SWIDTH 480 0
BITMAP
00 00
00 00
00 00
00 00
FF C0
FF C0
00 00
00 00
3F 00
3F 00
C0 C0
C0 C0
C0 C0
C0 C0
C0 C0
C0 C0
C0 C0
C0 C0
C0 C0
C0 C0
3F 00
3F 00
0C 00
0C 00
03 00
03 00
ENDCHAR
STARTCHAR uni01ED
ENCODING 493
BBX 12 26 0 -4
DWIDTH 12 0
SWIDTH 480 0
BITMAP
00 00
00 00
00 00
00 00
00 00
00 00
FF C0
FF C0
00 00
00 00
3F 00
3F 00
C0 C0
C0 C0
C0 C0
C0 C0
C0 C0
C0 C0
C0 C0
C0 C0
3F 00
3F 00
0C 00
0C 00
03 00
03 00
ENDCHAR
STARTCHAR uni01EE
ENCODING 494
BBX 12 26 0 -4
DWIDTH 12 0
SWIDTH 480 0
BITMAP
00 00
00 00
30 C0
30 C0
0F 00
0F 00
00 00
00 00
FF C0
FF C0
03 00
03 00
0C 00
0C 00
3F 00
3F 00
00 C0
00 C0
C0 C0
C0 C0
3F 00
3F 00
00 00
00 00
00 00
00 00
ENDCHAR
STARTCHAR uni01EF
ENCODING 495
BBX 12 26 0 -4
DWIDTH 12 0
SWIDTH 480 0
BITMAP
00 00
00 00
00 00
00 00
30 C0
30 C0
0F 00
0F 00
00 00
00 00
FF C0
FF C0
03 00
03 00
0C 00
0C 00
3F 00
3F 00
00 C0
00 C0
00 C0
00 C0
C0 C0
C0 C0
3F 00
3F 00
ENDCHAR
STARTCHAR uni01F0
ENCODING 496
BBX 12 26 0 -4
DWIDTH 12 0
SWIDTH 480 0
BITMAP
00 00
00 00
00 00
00 00
30 C0
30 C0
0F 00
0F 00
00 00
00 00
0F 00
0F 00
03 00
03 00
03 00
03 00
03 00
03 00
03 00
03 00
C3 00
C3 00
C3 00
C3 00
3C 00
3C 00
ENDCHAR
STARTCHAR uni01F1
ENCODING 497
BBX 12 26 0 -4
DWIDTH 12 0
SWIDTH 480 0
BITMAP
00 00
00 00
00 00
00 00
F3 C0
F3 C0
CC C0
CC C0
CC C0
CC C0
CC C0
CC C0
CC C0
CC C0
CF 00
CF 00
CF 00
CF 00
CF 00
CF 00
F3 C0
F3 C0
00 00
00 00
00 00
00 00
ENDCHAR
STARTCHAR uni01F2
ENCODING 498
BBX 12 26 0 -4
DWIDTH 12 0
SWIDTH 480 0
BITMAP
00 00
00 00
00 00
00 00
F0 00
F0 00
CC 00
CC 00
CC 00
CC 00
CF C0
CF C0
CC C0
CC C0
CC C0
CC C0
CF 00
CF 00
CF 00
CF 00
F3 C0
F3 C0
00 00
00 00
00 00
00 00
ENDCHAR
STARTCHAR uni01F3
ENCODING 499
BBX 12 26 0 -4
DWIDTH 12 0
SWIDTH 480 0
BITMAP
00 00
00 00
00 00
00 00
0C 00
0C 00
0C 00
0C 00
0C 00
0C 00
3F C0
3F C0
CC C0
CC C0
CC C0
CC C0
CF 00
CF 00
CF 00
CF 00
3F C0
3F C0
00 00
00 00
00 00
00 00
ENDCHAR
STARTCHAR uni01F4
ENCODING 500
BBX 12 26 0 -4
DWIDTH 12 0
SWIDTH 480 0
BITMAP
00 00
00 00
03 00
03 00
0C 00
0C 00
00 00
00 00
3F 00
3F 00
C0 C0
C0 C0
C0 00
C0 00
C3 C0
C3 C0
C0 C0
C0 C0
C0 C0
C0 C0
3F 00
3F 00
00 00
00 00
00 00
00 00
ENDCHAR
STARTCHAR uni01F5
ENCODING 501
BBX 12 26 0 -4
DWIDTH 12 0
SWIDTH 480 0
BITMAP
00 00
00 00
00 00
00 00
03 00
03 00
0C 00
0C 00
00 00
00 00
3F 00
3F 00
C0 C0
C0 C0
C0 C0
C0 C0
C0 C0
C0 C0
3F C0
3F C0
00 C0
00 C0
C0 C0
C0 C0
3F 00
3F 00
ENDCHAR
STARTCHAR uni01F6
ENCODING 502
BBX 12 26 0 -4
DWIDTH 12 0
SWIDTH 480 0
BITMAP
00 00
00 00
00 00
00 00
CC 00
CC 00
CC 00
CC 00
CC 00
CC 00
CC C0
CC C0
FC C0
FC C0
CC C0
CC C0
CC C0
CC C0
CC C0
CC C0
C3 00
C3 00
00 00
00 00
00 00
00 00
ENDCHAR
STARTCHAR uni01F7
ENCODING 503
BBX 12 26 0 -4
DWIDTH 12 0
SWIDTH 480 0
BITMAP
00 00
00 00
00 00
00 00
CF 00
CF 00
F0 C0
F0 C0
C0 C0
C0 C0
C0 C0
C0 C0
C3 00
C3 00
CC 00
CC 00
F0 00
F0 00
C0 00
C0 00
C0 00
C0 00
C0 00
C0 00
00 00
00 00
ENDCHAR
STARTCHAR uni01F8
ENCODING 504
BBX 12 26 0 -4
DWIDTH 12 0
SWIDTH 480 0
BITMAP
00 00
00 00
30 00
30 00
0C 00
0C 00
00 00
00 00
C0 C0
C0 C0
F0 C0
F0 C0
F0 C0
F0 C0
CC C0
CC C0
C3 C0
C3 C0
C3 C0
C3 C0
C0 C0
C0 C0
00 00
00 00
00 00
00 00
ENDCHAR
STARTCHAR uni01F9
ENCODING 505
BBX 12 26 0 -4
DWIDTH 12 0
SWIDTH 480 0
BITMAP
00 00
00 00
00 00
00 00
30 00
30 00
0C 00
0C 00
00 00
00 00
CF 00
CF 00
F0 C0
F0 C0
C0 C0
C0 C0
C0 C0
C0 C0
C0 C0
C0 C0
C0 C0
C0 C0
00 00
00 00
00 00
00 00
ENDCHAR
STARTCHAR Aringacute
ENCODING 506
BBX 12 26 0 -4
DWIDTH 12 0
SWIDTH 480 0
BITMAP
03 00
03 00
0C 00
0C 00
00 00
00 00
0C 00
0C 00
33 00
33 00
0C 00
0C 00
0C 00
0C 00
33 00
33 00
C0 C0
C0 C0
FF C0
FF C0
C0 C0
C0 C0
00 00
00 00
00 00
00 00
ENDCHAR
STARTCHAR aringacute
ENCODING 507
BBX 12 26 0 -4
DWIDTH 12 0
SWIDTH 480 0
BITMAP
03 00
03 00
0C 00
0C 00
0F 00
0F 00
30 C0
30 C0
0F 00
0F 00
3F 00
3F 00
00 C0
00 C0
3F C0
3F C0
C0 C0
C0 C0
C3 C0
C3 C0
3C C0
3C C0
00 00
00 00
00 00
00 00
ENDCHAR
STARTCHAR AEacute
ENCODING 508
BBX 12 26 0 -4
DWIDTH 12 0
SWIDTH 480 0
BITMAP
00 00
00 00
03 00
03 00
0C 00
0C 00
00 00
00 00
33 C0
33 C0
CC 00
CC 00
CC 00
CC 00
FF 00
FF 00
CC 00
CC 00
CC 00
CC 00
CF C0
CF C0
00 00
00 00
00 00
00 00
ENDCHAR
STARTCHAR aeacute
ENCODING 509
BBX 12 26 0 -4
DWIDTH 12 0
SWIDTH 480 0
BITMAP
00 00
00 00
00 00
00 00
03 00
03 00
0C 00
0C 00
00 00
00 00
3F 00
3F 00
0C C0
0C C0
3F 00
3F 00
CC 00
CC 00
CC C0
CC C0
33 00
33 00
00 00
00 00
00 00
00 00
ENDCHAR
STARTCHAR Oslashacute
ENCODING 510
BBX 12 26 0 -4
DWIDTH 12 0
SWIDTH 480 0
BITMAP
00 00
00 00
03 00
03 00
0C 00
0C 00
00 C0
00 C0
3F 00
3F 00
C3 C0
C3 C0
C3 C0
C3 C0
CC C0
CC C0
F0 C0
F0 C0
F0 C0
F0 C0
3F 00
3F 00
C0 00
C0 00
00 00
00 00
ENDCHAR
STARTCHAR oslashacute
ENCODING 511
BBX 12 26 0 -4
DWIDTH 12 0
SWIDTH 480 0
BITMAP
00 00
00 00
00 00
00 00
03 00
03 00
0C 00
0C 00
00 C0
00 C0
3F 00
3F 00
C3 C0
C3 C0
CC C0
CC C0
CC C0
CC C0
F0 C0
F0 C0
3F 00
3F 00
C0 00
C0 00
00 00
00 00
ENDCHAR
STARTCHAR uni0200
ENCODING 512
BBX 12 26 0 -4
DWIDTH 12 0
SWIDTH 480 0
BITMAP
00 00
00 00
C3 00
C3 00
30 C0
30 C0
00 00
00 00
0C 00
0C 00
33 00
33 00
C0 C0
C0 C0
C0 C0
C0 C0
FF C0
FF C0
C0 C0
C0 C0
C0 C0
C0 C0
00 00
00 00
00 00
00 00
ENDCHAR
STARTCHAR uni0201
ENCODING 513
BBX 12 26 0 -4
DWIDTH 12 0
SWIDTH 480 0
BITMAP
00 00
00 00
00 00
00 00
C3 00
C3 00
30 C0
30 C0
00 00
00 00
3F 00
3F 00
00 C0
00 C0
3F C0
3F C0
C0 C0
C0 C0
C3 C0
C3 C0
3C C0
3C C0
00 00
00 00
00 00
00 00
ENDCHAR
STARTCHAR uni0202
ENCODING 514
BBX 12 26 0 -4
DWIDTH 12 0
SWIDTH 480 0
BITMAP
00 00
00 00
3F 00
3F 00
C0 C0
C0 C0
00 00
00 00
0C 00
0C 00
33 00
33 00
C0 C0
C0 C0
C0 C0
C0 C0
FF C0
FF C0
C0 C0
C0 C0
C0 C0
C0 C0
00 00
00 00
00 00
00 00
ENDCHAR
STARTCHAR uni0203
ENCODING 515
BBX 12 26 0 -4
DWIDTH 12 0
SWIDTH 480 0
BITMAP
00 00
00 00
00 00
00 00
3F 00
3F 00
C0 C0
C0 C0
00 00
00 00
3F 00
3F 00
00 C0
00 C0
3F C0
3F C0
C0 C0
C0 C0
C3 C0
C3 C0
3C C0
3C C0
00 00
00 00
00 00
00 00
ENDCHAR
STARTCHAR uni0204
ENCODING 516
BBX 12 26 0 -4
DWIDTH 12 0
SWIDTH 480 0
BITMAP
00 00
00 00
C3 00
C3 00
30 C0
30 C0
00 00
00 00
FF C0
FF C0
C0 00
C0 00
C0 00
C0 00
FF 00
FF 00
C0 00
C0 00
C0 00
C0 00
FF C0
FF C0
00 00
00 00
00 00
00 00
ENDCHAR
STARTCHAR uni0205
ENCODING 517
BBX 12 26 0 -4
DWIDTH 12 0
SWIDTH 480 0
BITMAP
00 00
00 00
00 00
00 00
C3 00
C3 00
30 C0
30 C0
00 00
00 00
3F 00
3F 00
C0 C0
C0 C0
FF C0
FF C0
C0 00
C0 00
C0 C0
C0 C0
3F 00
3F 00
00 00
00 00
00 00
00 00
ENDCHAR
STARTCHAR uni0206
ENCODING 518
BBX 12 26 0 -4
DWIDTH 12 0
SWIDTH 480 0
BITMAP
00 00
00 00
3F 00
3F 00
C0 C0
C0 C0
00 00
00 00
FF C0
FF C0
C0 00
C0 00
C0 00
C0 00
FF 00
FF 00
C0 00
C0 00
C0 00
C0 00
FF C0
FF C0
00 00
00 00
00 00
00 00
ENDCHAR
STARTCHAR uni0207
ENCODING 519
BBX 12 26 0 -4
DWIDTH 12 0
SWIDTH 480 0
BITMAP
00 00
00 00
00 00
00 00
3F 00
3F 00
C0 C0
C0 C0
00 00
00 00
3F 00
3F 00
C0 C0
C0 C0
FF C0
FF C0
C0 00
C0 00
C0 C0
C0 C0
3F 00
3F 00
00 00
00 00
00 00
00 00
ENDCHAR
STARTCHAR uni0208
ENCODING 520
BBX 12 26 0 -4
DWIDTH 12 0
SWIDTH 480 0
BITMAP
00 00
00 00
C3 00
C3 00
30 C0
30 C0
00 00
00 00
3F 00
3F 00
0C 00
0C 00
0C 00
0C 00
0C 00
0C 00
0C 00
0C 00
0C 00
0C 00
3F 00
3F 00
00 00
00 00
00 00
00 00
ENDCHAR
STARTCHAR uni0209
ENCODING 521
BBX 12 26 0 -4
DWIDTH 12 0
SWIDTH 480 0
BITMAP
00 00
00 00
00 00
00 00
C3 00
C3 00
30 C0
30 C0
00 00
00 00
3C 00
3C 00
0C 00
0C 00
0C 00
0C 00
0C 00
0C 00
0C 00
0C 00
3F 00
3F 00
00 00
00 00
00 00
00 00
ENDCHAR
STARTCHAR uni020A
ENCODING 522
BBX 12 26 0 -4
DWIDTH 12 0
SWIDTH 480 0
BITMAP
00 00
00 00
3F 00
3F 00
C0 C0
C0 C0
00 00
00 00
3F 00
3F 00
0C 00
0C 00
0C 00
0C 00
0C 00
0C 00
0C 00
0C 00
0C 00
0C 00
3F 00
3F 00
00 00
00 00
00 00
00 00
ENDCHAR
STARTCHAR uni020B
ENCODING 523
BBX 12 26 0 -4
DWIDTH 12 0
SWIDTH 480 0
BITMAP
00 00
00 00
00 00
00 00
3F 00
3F 00
C0 C0
C0 C0
00 00
00 00
3C 00
3C 00
0C 00
0C 00
0C 00
0C 00
0C 00
0C 00
0C 00
0C 00
3F 00
3F 00
00 00
00 00
00 00
00 00
ENDCHAR
STARTCHAR uni020C
ENCODING 524
BBX 12 26 0 -4
DWIDTH 12 0
SWIDTH 480 0
BITMAP
00 00
00 00
C3 00
C3 00
30 C0
30 C0
00 00
00 00
3F 00
3F 00
C0 C0
C0 C0
C0 C0
C0 C0
C0 C0
C0 C0
C0 C0
C0 C0
C0 C0
C0 C0
3F 00
3F 00
00 00
00 00
00 00
00 00
ENDCHAR
STARTCHAR uni020D
ENCODING 525
BBX 12 26 0 -4
DWIDTH 12 0
SWIDTH 480 0
BITMAP
00 00
00 00
00 00
00 00
C3 00
C3 00
30 C0
30 C0
00 00
00 00
3F 00
3F 00
C0 C0
C0 C0
C0 C0
C0 C0
C0 C0
C0 C0
C0 C0
C0 C0
3F 00
3F 00
00 00
00 00
00 00
00 00
ENDCHAR
STARTCHAR uni020E
ENCODING 526
BBX 12 26 0 -4
DWIDTH 12 0
SWIDTH 480 0
BITMAP
00 00
00 00
3F 00
3F 00
C0 C0
C0 C0
00 00
00 00
3F 00
3F 00
C0 C0
C0 C0
C0 C0
C0 C0
C0 C0
C0 C0
C0 C0
C0 C0
C0 C0
C0 C0
3F 00
3F 00
00 00
00 00
00 00
00 00
ENDCHAR
STARTCHAR uni020F
ENCODING 527
BBX 12 26 0 -4
DWIDTH 12 0
SWIDTH 480 0
BITMAP
00 00
00 00
00 00
00 00
3F 00
3F 00
C0 C0
C0 C0
00 00
00 00
3F 00
3F 00
C0 C0
C0 C0
C0 C0
C0 C0
C0 C0
C0 C0
C0 C0
C0 C0
3F 00
3F 00
00 00
00 00
00 00
00 00
ENDCHAR
STARTCHAR uni0210
ENCODING 528
BBX 12 26 0 -4
DWIDTH 12 0
SWIDTH 480 0
BITMAP
00 00
00 00
C3 00
C3 00
30 C0
30 C0
00 00
00 00
FF 00
FF 00
C0 C0
C0 C0
C0 C0
C0 C0
FF 00
FF 00
C3 00
C3 00
C0 C0
C0 C0
C0 C0
C0 C0
00 00
00 00
00 00
00 00
ENDCHAR
STARTCHAR uni0211
ENCODING 529
BBX 12 26 0 -4
DWIDTH 12 0
SWIDTH 480 0
BITMAP
00 00
00 00
00 00
00 00
C3 00
C3 00
30 C0
30 C0
00 00
00 00
CF 00
CF 00
F0 C0
F0 C0
C0 00
C0 00
C0 00
C0 00
C0 00
C0 00
C0 00
C0 00
00 00
00 00
00 00
00 00
ENDCHAR
STARTCHAR uni0212
ENCODING 530
BBX 12 26 0 -4
DWIDTH 12 0
SWIDTH 480 0
BITMAP
00 00
00 00
3F 00
3F 00
C0 C0
C0 C0
00 00
00 00
FF 00
FF 00
C0 C0
C0 C0
C0 C0
C0 C0
FF 00
FF 00
C3 00
C3 00
C0 C0
C0 C0
C0 C0
C0 C0
00 00
00 00
00 00
00 00
ENDCHAR
STARTCHAR uni0213
ENCODING 531
BBX 12 26 0 -4
DWIDTH 12 0
SWIDTH 480 0
BITMAP
00 00
00 00
00 00
00 00
3F 00
3F 00
C0 C0
C0 C0
00 00
00 00
CF 00
CF 00
F0 C0
F0 C0
C0 00
C0 00
C0 00
C0 00
C0 00
C0 00
C0 00
C0 00
00 00
00 00
00 00
00 00
ENDCHAR
STARTCHAR uni0214
ENCODING 532
BBX 12 26 0 -4
DWIDTH 12 0
SWIDTH 480 0
BITMAP
00 00
00 00
C3 00
C3 00
30 C0
30 C0
00 00
00 00
C0 C0
C0 C0
C0 C0
C0 C0
C0 C0
C0 C0
C0 C0
C0 C0
C0 C0
C0 C0
C0 C0
C0 C0
3F 00
3F 00
00 00
00 00
00 00
00 00
ENDCHAR
STARTCHAR uni0215
ENCODING 533
BBX 12 26 0 -4
DWIDTH 12 0
SWIDTH 480 0
BITMAP
00 00
00 00
00 00
00 00
C3 00
C3 00
30 C0
30 C0
00 00
00 00
C0 C0
C0 C0
C0 C0
C0 C0
C0 C0
C0 C0
C0 C0
C0 C0
C3 C0
C3 C0
3C C0
3C C0
00 00
00 00
00 00
00 00
ENDCHAR
STARTCHAR uni0216
ENCODING 534
BBX 12 26 0 -4
DWIDTH 12 0
SWIDTH 480 0
BITMAP
00 00
00 00
3F 00
3F 00
C0 C0
C0 C0
00 00
00 00
C0 C0
C0 C0
C0 C0
C0 C0
C0 C0
C0 C0
C0 C0
C0 C0
C0 C0
C0 C0
C0 C0
C0 C0
3F 00
3F 00
00 00
00 00
00 00
00 00
ENDCHAR
STARTCHAR uni0217
ENCODING 535
BBX 12 26 0 -4
DWIDTH 12 0
SWIDTH 480 0
BITMAP
00 00
00 00
00 00
00 00
3F 00
3F 00
C0 C0
C0 C0
00 00
00 00
C0 C0
C0 C0
C0 C0
C0 C0
C0 C0
C0 C0
C0 C0
C0 C0
C3 C0
C3 C0
3C C0
3C C0
00 00
00 00
00 00
00 00
ENDCHAR
STARTCHAR Scommaaccent
ENCODING 536
BBX 12 26 0 -4
DWIDTH 12 0
SWIDTH 480 0
BITMAP
00 00
00 00
00 00
00 00
3F 00
3F 00
C0 C0
C0 C0
C0 00
C0 00
C0 00
C0 00
3F 00
3F 00
00 C0
00 C0
00 C0
00 C0
C0 C0
C0 C0
3F 00
3F 00
0C 00
0C 00
30 00
30 00
ENDCHAR
STARTCHAR scommaaccent
ENCODING 537
BBX 12 26 0 -4
DWIDTH 12 0
SWIDTH 480 0
BITMAP
00 00
00 00
00 00
00 00
00 00
00 00
00 00
00 00
00 00
00 00
3F 00
3F 00
C0 C0
C0 C0
3C 00
3C 00
03 00
03 00
C0 C0
C0 C0
3F 00
3F 00
0C 00
0C 00
30 00
30 00
ENDCHAR
STARTCHAR Tcommaaccent
ENCODING 538
BBX 12 26 0 -4
DWIDTH 12 0
SWIDTH 480 0
BITMAP
00 00
00 00
00 00
00 00
FF C0
FF C0
0C 00
0C 00
0C 00
0C 00
0C 00
0C 00
0C 00
0C 00
0C 00
0C 00
0C 00
0C 00
0C 00
0C 00
0C 00
0C 00
03 00
03 00
0C 00
0C 00
ENDCHAR
STARTCHAR tcommaaccent
ENCODING 539
BBX 12 26 0 -4
DWIDTH 12 0
SWIDTH 480 0
BITMAP
00 00
00 00
00 00
00 00
00 00
00 00
30 00
30 00
30 00
30 00
FF 00
FF 00
30 00
30 00
30 00
30 00
30 00
30 00
30 C0
30 C0
0F 00
0F 00
03 00
03 00
0C 00
0C 00
ENDCHAR
STARTCHAR uni021C
ENCODING 540
BBX 12 26 0 -4
DWIDTH 12 0
SWIDTH 480 0
BITMAP
00 00
00 00
00 00
00 00
FF 00
FF 00
C0 C0
C0 C0
00 C0
00 C0
03 00
03 00
0F 00
0F 00
30 C0
30 C0
00 C0
00 C0
03 00
03 00
FC 00
FC 00
00 00
00 00
00 00
00 00
ENDCHAR
STARTCHAR uni021D
ENCODING 541
BBX 12 26 0 -4
DWIDTH 12 0
SWIDTH 480 0
BITMAP
00 00
00 00
00 00
00 00
00 00
00 00
00 00
00 00
00 00
00 00
FF 00
FF 00
C0 C0
C0 C0
03 00
03 00
0F 00
0F 00
30 C0
30 C0
00 C0
00 C0
03 00
03 00
FC 00
FC 00
ENDCHAR
STARTCHAR uni021E
ENCODING 542
BBX 12 26 0 -4
DWIDTH 12 0
SWIDTH 480 0
BITMAP
00 00
00 00
30 C0
30 C0
0F 00
0F 00
00 00
00 00
C0 C0
C0 C0
C0 C0
C0 C0
C0 C0
C0 C0
FF C0
FF C0
C0 C0
C0 C0
C0 C0
C0 C0
C0 C0
C0 C0
00 00
00 00
00 00
00 00
ENDCHAR
STARTCHAR uni021F
ENCODING 543
BBX 12 26 0 -4
DWIDTH 12 0
SWIDTH 480 0
BITMAP
00 00
00 00
30 C0
30 C0
0F 00
0F 00
00 00
00 00
C0 00
C0 00
C0 00
C0 00
CF 00
CF 00
F0 C0
F0 C0
C0 C0
C0 C0
C0 C0
C0 C0
C0 C0
C0 C0
00 00
00 00
00 00
00 00
ENDCHAR
STARTCHAR uni0220
ENCODING 544
BBX 12 26 0 -4
DWIDTH 12 0
SWIDTH 480 0
BITMAP
00 00
00 00
00 00
00 00
CF 00
CF 00
F0 C0
F0 C0
C0 C0
C0 C0
C0 C0
C0 C0
C0 C0
C0 C0
C0 C0
C0 C0
C0 C0
C0 C0
C0 C0
C0 C0
C0 C0
C0 C0
00 C0
00 C0
00 C0
00 C0
ENDCHAR
STARTCHAR uni0222
ENCODING 546
BBX 12 26 0 -4
DWIDTH 12 0
SWIDTH 480 0
BITMAP
00 00
00 00
00 00
00 00
03 00
03 00
30 C0
30 C0
C0 C0
C0 C0
C0 C0
C0 C0
3F 00
3F 00
C0 C0
C0 C0
C0 C0
C0 C0
C0 C0
C0 C0
3F 00
3F 00
00 00
00 00
00 00
00 00
ENDCHAR
STARTCHAR uni0223
ENCODING 547
BBX 12 26 0 -4
DWIDTH 12 0
SWIDTH 480 0
BITMAP
00 00
00 00
00 00
00 00
00 00
00 00
00 00
00 00
33 00
33 00
C0 C0
C0 C0
C0 C0
C0 C0
3F 00
3F 00
C0 C0
C0 C0
C0 C0
C0 C0
3F 00
3F 00
00 00
00 00
00 00
00 00
ENDCHAR
STARTCHAR uni0224
ENCODING 548
BBX 12 26 0 -4
DWIDTH 12 0
SWIDTH 480 0
BITMAP
00 00
00 00
00 00
00 00
FF C0
FF C0
00 C0
00 C0
03 00
03 00
03 00
03 00
0C 00
0C 00
30 00
30 00
30 00
30 00
C0 00
C0 00
FF C0
FF C0
00 C0
00 C0
03 00
03 00
ENDCHAR
STARTCHAR uni0225
ENCODING 549
BBX 12 26 0 -4
DWIDTH 12 0
SWIDTH 480 0
BITMAP
00 00
00 00
00 00
00 00
00 00
00 00
00 00
00 00
00 00
00 00
FF C0
FF C0
03 00
03 00
0C 00
0C 00
30 00
30 00
C0 00
C0 00
FF C0
FF C0
00 C0
00 C0
03 00
03 00
ENDCHAR
STARTCHAR uni0226
ENCODING 550
BBX 12 26 0 -4
DWIDTH 12 0
SWIDTH 480 0
BITMAP
00 00
00 00
00 00
00 00
0C 00
0C 00
00 00
00 00
0C 00
0C 00
33 00
33 00
C0 C0
C0 C0
C0 C0
C0 C0
FF C0
FF C0
C0 C0
C0 C0
C0 C0
C0 C0
00 00
00 00
00 00
00 00
ENDCHAR
STARTCHAR uni0227
ENCODING 551
BBX 12 26 0 -4
DWIDTH 12 0
SWIDTH 480 0
BITMAP
00 00
00 00
00 00
00 00
00 00
00 00
0C 00
0C 00
00 00
00 00
3F 00
3F 00
00 C0
00 C0
3F C0
3F C0
C0 C0
C0 C0
C3 C0
C3 C0
3C C0
3C C0
00 00
00 00
00 00
00 00
ENDCHAR
STARTCHAR uni0228
ENCODING 552
BBX 12 26 0 -4
DWIDTH 12 0
SWIDTH 480 0
BITMAP
00 00
00 00
00 00
00 00
FF C0
FF C0
C0 00
C0 00
C0 00
C0 00
C0 00
C0 00
FF 00
FF 00
C0 00
C0 00
C0 00
C0 00
C0 00
C0 00
FF C0
FF C0
03 00
03 00
3C 00
3C 00
ENDCHAR
STARTCHAR uni0229
ENCODING 553
BBX 12 26 0 -4
DWIDTH 12 0
SWIDTH 480 0
BITMAP
00 00
00 00
00 00
00 00
00 00
00 00
00 00
00 00
00 00
00 00
3F 00
3F 00
C0 C0
C0 C0
FF C0
FF C0
C0 00
C0 00
C0 C0
C0 C0
3F 00
3F 00
03 00
03 00
3C 00
3C 00
ENDCHAR
STARTCHAR uni022A
ENCODING 554
BBX 12 26 0 -4
DWIDTH 12 0
SWIDTH 480 0
BITMAP
3F 00
3F 00
00 00
00 00
33 00
33 00
00 00
00 00
3F 00
3F 00
C0 C0
C0 C0
C0 C0
C0 C0
C0 C0
C0 C0
C0 C0
C0 C0
C0 C0
C0 C0
3F 00
3F 00
00 00
00 00
00 00
00 00
ENDCHAR
STARTCHAR uni022B
ENCODING 555
BBX 12 26 0 -4
DWIDTH 12 0
SWIDTH 480 0
BITMAP
00 00
00 00
3F 00
3F 00
00 00
00 00
33 00
33 00
00 00
00 00
3F 00
3F 00
C0 C0
C0 C0
C0 C0
C0 C0
C0 C0
C0 C0
C0 C0
C0 C0
3F 00
3F 00
00 00
00 00
00 00
00 00
ENDCHAR
STARTCHAR uni022C
ENCODING 556
BBX 12 26 0 -4
DWIDTH 12 0
SWIDTH 480 0
BITMAP
3F C0
3F C0
00 00
00 00
0C C0
0C C0
33 00
33 00
3F 00
3F 00
C0 C0
C0 C0
C0 C0
C0 C0
C0 C0
C0 C0
C0 C0
C0 C0
C0 C0
C0 C0
3F 00
3F 00
00 00
00 00
00 00
00 00
ENDCHAR
STARTCHAR uni022D
ENCODING 557
BBX 12 26 0 -4
DWIDTH 12 0
SWIDTH 480 0
BITMAP
3F C0
3F C0
00 00
00 00
0C C0
0C C0
33 00
33 00
00 00
00 00
3F 00
3F 00
C0 C0
C0 C0
C0 C0
C0 C0
C0 C0
C0 C0
C0 C0
C0 C0
3F 00
3F 00
00 00
00 00
00 00
00 00
ENDCHAR
STARTCHAR uni022E
ENCODING 558
BBX 12 26 0 -4
DWIDTH 12 0
SWIDTH 480 0
BITMAP
00 00
00 00
00 00
00 00
0C 00
0C 00
00 00
00 00
3F 00
3F 00
C0 C0
C0 C0
C0 C0
C0 C0
C0 C0
C0 C0
C0 C0
C0 C0
C0 C0
C0 C0
3F 00
3F 00
00 00
00 00
00 00
00 00
ENDCHAR
STARTCHAR uni022F
ENCODING 559
BBX 12 26 0 -4
DWIDTH 12 0
SWIDTH 480 0
BITMAP
00 00
00 00
00 00
00 00
00 00
00 00
0C 00
0C 00
00 00
00 00
3F 00
3F 00
C0 C0
C0 C0
C0 C0
C0 C0
C0 C0
C0 C0
C0 C0
C0 C0
3F 00
3F 00
00 00
00 00
00 00
00 00
ENDCHAR
STARTCHAR uni0230
ENCODING 560
BBX 12 26 0 -4
DWIDTH 12 0
SWIDTH 480 0
BITMAP
3F 00
3F 00
00 00
00 00
0C 00
0C 00
00 00
00 00
3F 00
3F 00
C0 C0
C0 C0
C0 C0
C0 C0
C0 C0
C0 C0
C0 C0
C0 C0
C0 C0
C0 C0
3F 00
3F 00
00 00
00 00
00 00
00 00
ENDCHAR
STARTCHAR uni0231
ENCODING 561
BBX 12 26 0 -4
DWIDTH 12 0
SWIDTH 480 0
BITMAP
00 00
00 00
3F 00
3F 00
00 00
00 00
0C 00
0C 00
00 00
00 00
3F 00
3F 00
C0 C0
C0 C0
C0 C0
C0 C0
C0 C0
C0 C0
C0 C0
C0 C0
3F 00
3F 00
00 00
00 00
00 00
00 00
ENDCHAR
STARTCHAR uni0232
ENCODING 562
BBX 12 26 0 -4
DWIDTH 12 0
SWIDTH 480 0
BITMAP
00 00
00 00
3F 00
3F 00
00 00
00 00
C0 C0
C0 C0
C0 C0
C0 C0
33 00
33 00
33 00
33 00
0C 00
0C 00
0C 00
0C 00
0C 00
0C 00
0C 00
0C 00
00 00
00 00
00 00
00 00
ENDCHAR
STARTCHAR uni0233
ENCODING 563
BBX 12 26 0 -4
DWIDTH 12 0
SWIDTH 480 0
BITMAP
00 00
00 00
00 00
00 00
00 00
00 00
3F 00
3F 00
00 00
00 00
C0 C0
C0 C0
C0 C0
C0 C0
C0 C0
C0 C0
C3 C0
C3 C0
3C C0
3C C0
00 C0
00 C0
C0 C0
C0 C0
3F 00
3F 00
ENDCHAR
STARTCHAR uni0250
ENCODING 592
BBX 12 26 0 -4
DWIDTH 12 0
SWIDTH 480 0
BITMAP
00 00
00 00
00 00
00 00
00 00
00 00
00 00
00 00
00 00
00 00
CF 00
CF 00
F0 C0
F0 C0
C0 C0
C0 C0
FF 00
FF 00
C0 00
C0 00
3F 00
3F 00
00 00
00 00
00 00
00 00
ENDCHAR
STARTCHAR uni0251
ENCODING 593
BBX 12 26 0 -4
DWIDTH 12 0
SWIDTH 480 0
BITMAP
00 00
00 00
00 00
00 00
00 00
00 00
00 00
00 00
00 00
00 00
3C C0
3C C0
C3 C0
C3 C0
C0 C0
C0 C0
C0 C0
C0 C0
C3 C0
C3 C0
3C C0
3C C0
00 00
00 00
00 00
00 00
ENDCHAR
STARTCHAR uni0252
ENCODING 594
BBX 12 26 0 -4
DWIDTH 12 0
SWIDTH 480 0
BITMAP
00 00
00 00
00 00
00 00
00 00
00 00
00 00
00 00
00 00
00 00
CF 00
CF 00
F0 C0
F0 C0
C0 C0
C0 C0
C0 C0
C0 C0
F0 C0
F0 C0
CF 00
CF 00
00 00
00 00
00 00
00 00
ENDCHAR
STARTCHAR uni0253
ENCODING 595
BBX 12 26 0 -4
DWIDTH 12 0
SWIDTH 480 0
BITMAP
00 00
00 00
00 00
00 00
3C 00
3C 00
C3 00
C3 00
C0 00
C0 00
FF 00
FF 00
C0 C0
C0 C0
C0 C0
C0 C0
C0 C0
C0 C0
C0 C0
C0 C0
FF 00
FF 00
00 00
00 00
00 00
00 00
ENDCHAR
STARTCHAR uni0254
ENCODING 596
BBX 12 26 0 -4
DWIDTH 12 0
SWIDTH 480 0
BITMAP
00 00
00 00
00 00
00 00
00 00
00 00
00 00
00 00
00 00
00 00
3F 00
3F 00
C0 C0
C0 C0
00 C0
00 C0
00 C0
00 C0
C0 C0
C0 C0
3F 00
3F 00
00 00
00 00
00 00
00 00
ENDCHAR
STARTCHAR uni0255
ENCODING 597
BBX 12 26 0 -4
DWIDTH 12 0
SWIDTH 480 0
BITMAP
00 00
00 00
00 00
00 00
00 00
00 00
00 00
00 00
00 00
00 00
3F 00
3F 00
C0 C0
C0 C0
C0 00
C0 00
CF 00
CF 00
F0 C0
F0 C0
3F 00
3F 00
C0 00
C0 00
00 00
00 00
ENDCHAR
STARTCHAR uni0256
ENCODING 598
BBX 12 26 0 -4
DWIDTH 12 0
SWIDTH 480 0
BITMAP
00 00
00 00
00 00
00 00
03 00
03 00
03 00
03 00
03 00
03 00
3F 00
3F 00
C3 00
C3 00
C3 00
C3 00
C3 00
C3 00
C3 00
C3 00
3F 00
3F 00
03 30
03 30
00 C0
00 C0
ENDCHAR
STARTCHAR uni0257
ENCODING 599
BBX 12 26 0 -4
DWIDTH 12 0
SWIDTH 480 0
BITMAP
00 00
00 00
00 C0
00 C0
03 30
03 30
03 00
03 00
03 00
03 00
3F 00
3F 00
C3 00
C3 00
C3 00
C3 00
C3 00
C3 00
C3 00
C3 00
3F 00
3F 00
00 00
00 00
00 00
00 00
ENDCHAR
STARTCHAR uni0258
ENCODING 600
BBX 12 26 0 -4
DWIDTH 12 0
SWIDTH 480 0
BITMAP
00 00
00 00
00 00
00 00
00 00
00 00
00 00
00 00
00 00
00 00
3F 00
3F 00
C0 C0
C0 C0
FF C0
FF C0
00 C0
00 C0
C0 C0
C0 C0
3F 00
3F 00
00 00
00 00
00 00
00 00
ENDCHAR
STARTCHAR uni0259
ENCODING 601
BBX 12 26 0 -4
DWIDTH 12 0
SWIDTH 480 0
BITMAP
00 00
00 00
00 00
00 00
00 00
00 00
00 00
00 00
00 00
00 00
3F 00
3F 00
C0 C0
C0 C0
00 C0
00 C0
FF C0
FF C0
C0 C0
C0 C0
3F 00
3F 00
00 00
00 00
00 00
00 00
ENDCHAR
STARTCHAR uni025A
ENCODING 602
BBX 12 26 0 -4
DWIDTH 12 0
SWIDTH 480 0
BITMAP
00 00
00 00
00 00
00 00
00 00
00 00
00 00
00 00
00 00
00 00
3C 00
3C 00
C3 C0
C3 C0
0F 30
0F 30
33 00
33 00
C3 00
C3 00
3C 00
3C 00
00 00
00 00
00 00
00 00
ENDCHAR
STARTCHAR uni025B
ENCODING 603
BBX 12 26 0 -4
DWIDTH 12 0
SWIDTH 480 0
BITMAP
00 00
00 00
00 00
00 00
00 00
00 00
00 00
00 00
00 00
00 00
3F 00
3F 00
C0 C0
C0 C0
3C 00
3C 00
C0 00
C0 00
C0 C0
C0 C0
3F 00
3F 00
00 00
00 00
00 00
00 00
ENDCHAR
STARTCHAR uni025C
ENCODING 604
BBX 12 26 0 -4
DWIDTH 12 0
SWIDTH 480 0
BITMAP
00 00
00 00
00 00
00 00
00 00
00 00
00 00
00 00
00 00
00 00
3F 00
3F 00
C0 C0
C0 C0
0F 00
0F 00
00 C0
00 C0
C0 C0
C0 C0
3F 00
3F 00
00 00
00 00
00 00
00 00
ENDCHAR
STARTCHAR uni025D
ENCODING 605
BBX 12 26 0 -4
DWIDTH 12 0
SWIDTH 480 0
BITMAP
00 00
00 00
00 00
00 00
00 00
00 00
00 00
00 00
00 00
00 00
3C 00
3C 00
C3 C0
C3 C0
0C 30
0C 30
03 00
03 00
C3 00
C3 00
3C 00
3C 00
00 00
00 00
00 00
00 00
ENDCHAR
STARTCHAR uni025E
ENCODING 606
BBX 12 26 0 -4
DWIDTH 12 0
SWIDTH 480 0
BITMAP
00 00
00 00
00 00
00 00
00 00
00 00
00 00
00 00
00 00
00 00
3F 00
3F 00
C0 C0
C0 C0
CF 00
CF 00
C0 C0
C0 C0
C0 C0
C0 C0
3F 00
3F 00
00 00
00 00
00 00
00 00
ENDCHAR
STARTCHAR uni025F
ENCODING 607
BBX 12 26 0 -4
DWIDTH 12 0
SWIDTH 480 0
BITMAP
00 00
00 00
00 00
00 00
00 00
00 00
00 00
00 00
03 00
03 00
03 00
03 00
03 00
03 00
03 00
03 00
3F C0
3F C0
03 00
03 00
03 00
03 00
C3 00
C3 00
3C 00
3C 00
ENDCHAR
STARTCHAR uni0260
ENCODING 608
BBX 12 26 0 -4
DWIDTH 12 0
SWIDTH 480 0
BITMAP
00 00
00 00
00 00
00 00
00 C0
00 C0
03 30
03 30
03 00
03 00
3F 00
3F 00
C3 00
C3 00
C3 00
C3 00
C3 00
C3 00
3F 00
3F 00
03 00
03 00
C3 00
C3 00
3C 00
3C 00
ENDCHAR
STARTCHAR uni0261
ENCODING 609
BBX 12 26 0 -4
DWIDTH 12 0
SWIDTH 480 0
BITMAP
00 00
00 00
00 00
00 00
00 00
00 00
00 00
00 00
00 00
00 00
3F C0
3F C0
C0 C0
C0 C0
C0 C0
C0 C0
C0 C0
C0 C0
3F C0
3F C0
00 C0
00 C0
C0 C0
C0 C0
3F 00
3F 00
ENDCHAR
STARTCHAR uni0262
ENCODING 610
BBX 12 26 0 -4
DWIDTH 12 0
SWIDTH 480 0
BITMAP
00 00
00 00
00 00
00 00
00 00
00 00
00 00
00 00
00 00
00 00
3F 00
3F 00
C0 C0
C0 C0
C0 00
C0 00
C3 C0
C3 C0
C0 C0
C0 C0
3F 00
3F 00
00 00
00 00
00 00
00 00
ENDCHAR
STARTCHAR uni0263
ENCODING 611
BBX 12 26 0 -4
DWIDTH 12 0
SWIDTH 480 0
BITMAP
00 00
00 00
00 00
00 00
00 00
00 00
00 00
00 00
00 00
00 00
C0 C0
C0 C0
C0 C0
C0 C0
33 00
33 00
33 00
33 00
0C 00
0C 00
0C 00
0C 00
33 00
33 00
0C 00
0C 00
ENDCHAR
STARTCHAR uni0264
ENCODING 612
BBX 12 26 0 -4
DWIDTH 12 0
SWIDTH 480 0
BITMAP
00 00
00 00
00 00
00 00
00 00
00 00
00 00
00 00
00 00
00 00
33 00
33 00
CC C0
CC C0
0C 00
0C 00
33 00
33 00
33 00
33 00
0C 00
0C 00
00 00
00 00
00 00
00 00
ENDCHAR
STARTCHAR uni0265
ENCODING 613
BBX 12 26 0 -4
DWIDTH 12 0
SWIDTH 480 0
BITMAP
00 00
00 00
00 00
00 00
00 00
00 00
00 00
00 00
00 00
00 00
C0 C0
C0 C0
C0 C0
C0 C0
C0 C0
C0 C0
C0 C0
C0 C0
C3 C0
C3 C0
3C C0
3C C0
00 C0
00 C0
00 C0
00 C0
ENDCHAR
STARTCHAR uni0266
ENCODING 614
BBX 12 26 0 -4
DWIDTH 12 0
SWIDTH 480 0
BITMAP
00 00
00 00
00 00
00 00
3C 00
3C 00
C3 00
C3 00
C0 00
C0 00
CF 00
CF 00
F0 C0
F0 C0
C0 C0
C0 C0
C0 C0
C0 C0
C0 C0
C0 C0
C0 C0
C0 C0
00 00
00 00
00 00
00 00
ENDCHAR
STARTCHAR uni0267
ENCODING 615
BBX 12 26 0 -4
DWIDTH 12 0
SWIDTH 480 0
BITMAP
00 00
00 00
00 00
00 00
3C 00
3C 00
C3 00
C3 00
C0 00
C0 00
CF 00
CF 00
F0 C0
F0 C0
C0 C0
C0 C0
C0 C0
C0 C0
C0 C0
C0 C0
C0 C0
C0 C0
0C C0
0C C0
03 00
03 00
ENDCHAR
STARTCHAR uni0268
ENCODING 616
BBX 12 26 0 -4
DWIDTH 12 0
SWIDTH 480 0
BITMAP
00 00
00 00
00 00
00 00
00 00
00 00
0C 00
0C 00
00 00
00 00
3C 00
3C 00
0C 00
0C 00
3F 00
3F 00
0C 00
0C 00
0C 00
0C 00
3F 00
3F 00
00 00
00 00
00 00
00 00
ENDCHAR
STARTCHAR uni0269
ENCODING 617
BBX 12 26 0 -4
DWIDTH 12 0
SWIDTH 480 0
BITMAP
00 00
00 00
00 00
00 00
00 00
00 00
00 00
00 00
00 00
00 00
3C 00
3C 00
0C 00
0C 00
0C 00
0C 00
0C 00
0C 00
0C C0
0C C0
03 00
03 00
00 00
00 00
00 00
00 00
ENDCHAR
STARTCHAR uni026A
ENCODING 618
BBX 12 26 0 -4
DWIDTH 12 0
SWIDTH 480 0
BITMAP
00 00
00 00
00 00
00 00
00 00
00 00
00 00
00 00
00 00
00 00
3F 00
3F 00
0C 00
0C 00
0C 00
0C 00
0C 00
0C 00
0C 00
0C 00
3F 00
3F 00
00 00
00 00
00 00
00 00
ENDCHAR
STARTCHAR uni026B
ENCODING 619
BBX 12 26 0 -4
DWIDTH 12 0
SWIDTH 480 0
BITMAP
00 00
00 00
00 00
00 00
3C 00
3C 00
0C 00
0C 00
0C 00
0C 00
3C C0
3C C0
CF 00
CF 00
0C 00
0C 00
0C 00
0C 00
0C 00
0C 00
3F 00
3F 00
00 00
00 00
00 00
00 00
ENDCHAR
STARTCHAR uni026C
ENCODING 620
BBX 12 26 0 -4
DWIDTH 12 0
SWIDTH 480 0
BITMAP
00 00
00 00
00 00
00 00
3C 00
3C 00
0C 00
0C 00
0C 00
0C 00
3C 00
3C 00
CC 00
CC 00
3F C0
3F C0
0C 00
0C 00
0C 00
0C 00
3F 00
3F 00
00 00
00 00
00 00
00 00
ENDCHAR
STARTCHAR uni026D
ENCODING 621
BBX 12 26 0 -4
DWIDTH 12 0
SWIDTH 480 0
BITMAP
00 00
00 00
00 00
00 00
3C 00
3C 00
0C 00
0C 00
0C 00
0C 00
0C 00
0C 00
0C 00
0C 00
0C 00
0C 00
0C 00
0C 00
0C 00
0C 00
0C 00
0C 00
0C C0
0C C0
03 00
03 00
ENDCHAR
STARTCHAR uni026E
ENCODING 622
BBX 12 26 0 -4
DWIDTH 12 0
SWIDTH 480 0
BITMAP
00 00
00 00
00 00
00 00
F0 00
F0 00
30 00
30 00
30 00
30 00
3F C0
3F C0
30 C0
30 C0
33 00
33 00
3F 00
3F 00
30 C0
30 C0
FC C0
FC C0
00 C0
00 C0
0F 00
0F 00
ENDCHAR
STARTCHAR uni026F
ENCODING 623
BBX 12 26 0 -4
DWIDTH 12 0
SWIDTH 480 0
BITMAP
00 00
00 00
00 00
00 00
00 00
00 00
00 00
00 00
00 00
00 00
C0 C0
C0 C0
CC C0
CC C0
CC C0
CC C0
CC C0
CC C0
CC C0
CC C0
33 C0
33 C0
00 00
00 00
00 00
00 00
ENDCHAR
STARTCHAR uni0270
ENCODING 624
BBX 12 26 0 -4
DWIDTH 12 0
SWIDTH 480 0
BITMAP
00 00
00 00
00 00
00 00
00 00
00 00
00 00
00 00
00 00
00 00
C0 C0
C0 C0
CC C0
CC C0
CC C0
CC C0
CC C0
CC C0
CC C0
CC C0
33 C0
33 C0
00 C0
00 C0
00 C0
00 C0
ENDCHAR
STARTCHAR uni0271
ENCODING 625
BBX 12 26 0 -4
DWIDTH 12 0
SWIDTH 480 0
BITMAP
00 00
00 00
00 00
00 00
00 00
00 00
00 00
00 00
00 00
00 00
F3 00
F3 00
CC C0
CC C0
CC C0
CC C0
CC C0
CC C0
CC C0
CC C0
C0 C0
C0 C0
0C C0
0C C0
03 00
03 00
ENDCHAR
STARTCHAR uni0272
ENCODING 626
BBX 12 26 0 -4
DWIDTH 12 0
SWIDTH 480 0
BITMAP
00 00
00 00
00 00
00 00
00 00
00 00
00 00
00 00
00 00
00 00
33 00
33 00
3C C0
3C C0
30 C0
30 C0
30 C0
30 C0
30 C0
30 C0
30 C0
30 C0
30 00
30 00
C0 00
C0 00
ENDCHAR
STARTCHAR uni0273
ENCODING 627
BBX 12 26 0 -4
DWIDTH 12 0
SWIDTH 480 0
BITMAP
00 00
00 00
00 00
00 00
00 00
00 00
00 00
00 00
00 00
00 00
CC 00
CC 00
F3 00
F3 00
C3 00
C3 00
C3 00
C3 00
C3 00
C3 00
C3 00
C3 00
03 30
03 30
00 C0
00 C0
ENDCHAR
STARTCHAR uni0274
ENCODING 628
BBX 12 26 0 -4
DWIDTH 12 0
SWIDTH 480 0
BITMAP
00 00
00 00
00 00
00 00
00 00
00 00
00 00
00 00
00 00
00 00
C0 C0
C0 C0
F0 C0
F0 C0
CC C0
CC C0
CC C0
CC C0
C3 C0
C3 C0
C0 C0
C0 C0
00 00
00 00
00 00
00 00
ENDCHAR
STARTCHAR uni0275
ENCODING 629
BBX 12 26 0 -4
DWIDTH 12 0
SWIDTH 480 0
BITMAP
00 00
00 00
00 00
00 00
00 00
00 00
00 00
00 00
00 00
00 00
3F 00
3F 00
C0 C0
C0 C0
FF C0
FF C0
C0 C0
C0 C0
C0 C0
C0 C0
3F 00
3F 00
00 00
00 00
00 00
00 00
ENDCHAR
STARTCHAR uni0276
ENCODING 630
BBX 12 26 0 -4
DWIDTH 12 0
SWIDTH 480 0
BITMAP
00 00
00 00
00 00
00 00
00 00
00 00
00 00
00 00
00 00
00 00
3F C0
3F C0
CC 00
CC 00
CF 00
CF 00
CC 00
CC 00
CC 00
CC 00
3F C0
3F C0
00 00
00 00
00 00
00 00
ENDCHAR
STARTCHAR uni0277
ENCODING 631
BBX 12 26 0 -4
DWIDTH 12 0
SWIDTH 480 0
BITMAP
00 00
00 00
00 00
00 00
00 00
00 00
00 00
00 00
00 00
00 00
3F 00
3F 00
C0 C0
C0 C0
CC C0
CC C0
CC C0
CC C0
CC C0
CC C0
33 00
33 00
00 00
00 00
00 00
00 00
ENDCHAR
STARTCHAR uni0278
ENCODING 632
BBX 12 26 0 -4
DWIDTH 12 0
SWIDTH 480 0
BITMAP
00 00
00 00
00 00
00 00
00 00
00 00
0C 00
0C 00
0C 00
0C 00
3F 00
3F 00
CC C0
CC C0
CC C0
CC C0
CC C0
CC C0
CC C0
CC C0
3F 00
3F 00
0C 00
0C 00
0C 00
0C 00
ENDCHAR
STARTCHAR uni0279
ENCODING 633
BBX 12 26 0 -4
DWIDTH 12 0
SWIDTH 480 0
BITMAP
00 00
00 00
00 00
00 00
00 00
00 00
00 00
00 00
00 00
00 00
00 C0
00 C0
00 C0
00 C0
00 C0
00 C0
00 C0
00 C0
C3 C0
C3 C0
3C C0
3C C0
00 00
00 00
00 00
00 00
ENDCHAR
STARTCHAR uni027A
ENCODING 634
BBX 12 26 0 -4
DWIDTH 12 0
SWIDTH 480 0
BITMAP
00 00
00 00
00 00
00 00
00 C0
00 C0
00 C0
00 C0
00 C0
00 C0
00 C0
00 C0
00 C0
00 C0
00 C0
00 C0
00 C0
00 C0
C3 C0
C3 C0
3C C0
3C C0
00 00
00 00
00 00
00 00
ENDCHAR
STARTCHAR uni027B
ENCODING 635
BBX 12 26 0 -4
DWIDTH 12 0
SWIDTH 480 0
BITMAP
00 00
00 00
00 00
00 00
00 00
00 00
00 00
00 00
00 00
00 00
03 00
03 00
03 00
03 00
03 00
03 00
03 00
03 00
CF 00
CF 00
33 00
33 00
03 30
03 30
00 C0
00 C0
ENDCHAR
STARTCHAR uni027C
ENCODING 636
BBX 12 26 0 -4
DWIDTH 12 0
SWIDTH 480 0
BITMAP
00 00
00 00
00 00
00 00
00 00
00 00
00 00
00 00
00 00
00 00
CF 00
CF 00
F0 C0
F0 C0
C0 00
C0 00
C0 00
C0 00
C0 00
C0 00
C0 00
C0 00
C0 00
C0 00
C0 00
C0 00
ENDCHAR
STARTCHAR uni027D
ENCODING 637
BBX 12 26 0 -4
DWIDTH 12 0
SWIDTH 480 0
BITMAP
00 00
00 00
00 00
00 00
00 00
00 00
00 00
00 00
00 00
00 00
CF 00
CF 00
F0 C0
F0 C0
C0 00
C0 00
C0 00
C0 00
C0 00
C0 00
C0 00
C0 00
CC 00
CC 00
30 00
30 00
ENDCHAR
STARTCHAR uni027E
ENCODING 638
BBX 12 26 0 -4
DWIDTH 12 0
SWIDTH 480 0
BITMAP
00 00
00 00
00 00
00 00
00 00
00 00
00 00
00 00
00 00
00 00
0F 00
0F 00
30 C0
30 C0
C0 00
C0 00
C0 00
C0 00
C0 00
C0 00
C0 00
C0 00
00 00
00 00
00 00
00 00
ENDCHAR
STARTCHAR uni027F
ENCODING 639
BBX 12 26 0 -4
DWIDTH 12 0
SWIDTH 480 0
BITMAP
00 00
00 00
00 00
00 00
00 00
00 00
00 00
00 00
00 00
00 00
3C 00
3C 00
C3 00
C3 00
00 C0
00 C0
00 C0
00 C0
00 C0
00 C0
00 C0
00 C0
00 00
00 00
00 00
00 00
ENDCHAR
STARTCHAR uni0280
ENCODING 640
BBX 12 26 0 -4
DWIDTH 12 0
SWIDTH 480 0
BITMAP
00 00
00 00
00 00
00 00
00 00
00 00
00 00
00 00
00 00
00 00
FF 00
FF 00
C0 C0
C0 C0
FF 00
FF 00
CC 00
CC 00
C3 00
C3 00
C0 C0
C0 C0
00 00
00 00
00 00
00 00
ENDCHAR
STARTCHAR uni0281
ENCODING 641
BBX 12 26 0 -4
DWIDTH 12 0
SWIDTH 480 0
BITMAP
00 00
00 00
00 00
00 00
00 00
00 00
00 00
00 00
00 00
00 00
C0 C0
C0 C0
C3 00
C3 00
CC 00
CC 00
FF 00
FF 00
C0 C0
C0 C0
FF 00
FF 00
00 00
00 00
00 00
00 00
ENDCHAR
STARTCHAR uni0282
ENCODING 642
BBX 12 26 0 -4
DWIDTH 12 0
SWIDTH 480 0
BITMAP
00 00
00 00
00 00
00 00
00 00
00 00
00 00
00 00
00 00
00 00
3F C0
3F C0
C0 00
C0 00
3F 00
3F 00
00 C0
00 C0
00 C0
00 C0
FF 00
FF 00
C0 00
C0 00
30 00
30 00
ENDCHAR
STARTCHAR uni0283
ENCODING 643
BBX 12 26 0 -4
DWIDTH 12 0
SWIDTH 480 0
BITMAP
00 00
00 00
00 00
00 00
03 00
03 00
0C C0
0C C0
0C 00
0C 00
0C 00
0C 00
0C 00
0C 00
0C 00
0C 00
0C 00
0C 00
0C 00
0C 00
0C 00
0C 00
CC 00
CC 00
30 00
30 00
ENDCHAR
STARTCHAR uni0284
ENCODING 644
BBX 12 26 0 -4
DWIDTH 12 0
SWIDTH 480 0
BITMAP
00 00
00 00
00 00
00 00
03 00
03 00
0C C0
0C C0
0C 00
0C 00
0C 00
0C 00
0C 00
0C 00
0C 00
0C 00
3F 00
3F 00
0C 00
0C 00
0C 00
0C 00
CC 00
CC 00
30 00
30 00
ENDCHAR
STARTCHAR uni0285
ENCODING 645
BBX 12 26 0 -4
DWIDTH 12 0
SWIDTH 480 0
BITMAP
00 00
00 00
00 00
00 00
00 00
00 00
00 00
00 00
00 00
00 00
30 00
30 00
CC 00
CC 00
0C 00
0C 00
0C 00
0C 00
0C 00
0C 00
0C 00
0C 00
0C C0
0C C0
03 00
03 00
ENDCHAR
STARTCHAR uni0286
ENCODING 646
BBX 12 26 0 -4
DWIDTH 12 0
SWIDTH 480 0
BITMAP
00 00
00 00
00 00
00 00
03 00
03 00
0C C0
0C C0
0C 00
0C 00
0C 00
0C 00
0C 00
0C 00
0C 00
0C 00
0C 00
0C 00
3C 00
3C 00
CF 00
CF 00
CC C0
CC C0
30 00
30 00
ENDCHAR
STARTCHAR uni0287
ENCODING 647
BBX 12 26 0 -4
DWIDTH 12 0
SWIDTH 480 0
BITMAP
00 00
00 00
00 00
00 00
00 00
00 00
00 00
00 00
00 00
00 00
3C 00
3C 00
C3 00
C3 00
03 00
03 00
03 00
03 00
03 00
03 00
3F C0
3F C0
03 00
03 00
03 00
03 00
ENDCHAR
STARTCHAR uni0288
ENCODING 648
BBX 12 26 0 -4
DWIDTH 12 0
SWIDTH 480 0
BITMAP
00 00
00 00
00 00
00 00
00 00
00 00
30 00
30 00
30 00
30 00
FF 00
FF 00
30 00
30 00
30 00
30 00
30 00
30 00
30 00
30 00
30 00
30 00
30 C0
30 C0
0F 00
0F 00
ENDCHAR
STARTCHAR uni0289
ENCODING 649
BBX 12 26 0 -4
DWIDTH 12 0
SWIDTH 480 0
BITMAP
00 00
00 00
00 00
00 00
00 00
00 00
00 00
00 00
00 00
00 00
30 C0
30 C0
30 C0
30 C0
FF F0
FF F0
30 C0
30 C0
33 C0
33 C0
0C C0
0C C0
00 00
00 00
00 00
00 00
ENDCHAR
STARTCHAR uni028A
ENCODING 650
BBX 12 26 0 -4
DWIDTH 12 0
SWIDTH 480 0
BITMAP
00 00
00 00
00 00
00 00
00 00
00 00
00 00
00 00
00 00
00 00
F3 C0
F3 C0
33 00
33 00
C0 C0
C0 C0
C0 C0
C0 C0
C0 C0
C0 C0
3F 00
3F 00
00 00
00 00
00 00
00 00
ENDCHAR
STARTCHAR uni028B
ENCODING 651
BBX 12 26 0 -4
DWIDTH 12 0
SWIDTH 480 0
BITMAP
00 00
00 00
00 00
00 00
00 00
00 00
00 00
00 00
00 00
00 00
C3 00
C3 00
C0 C0
C0 C0
C0 C0
C0 C0
C0 C0
C0 C0
C3 00
C3 00
3C 00
3C 00
00 00
00 00
00 00
00 00
ENDCHAR
STARTCHAR uni028C
ENCODING 652
BBX 12 26 0 -4
DWIDTH 12 0
SWIDTH 480 0
BITMAP
00 00
00 00
00 00
00 00
00 00
00 00
00 00
00 00
00 00
00 00
0C 00
0C 00
33 00
33 00
33 00
33 00
C0 C0
C0 C0
C0 C0
C0 C0
C0 C0
C0 C0
00 00
00 00
00 00
00 00
ENDCHAR
STARTCHAR uni028D
ENCODING 653
BBX 12 26 0 -4
DWIDTH 12 0
SWIDTH 480 0
BITMAP
00 00
00 00
00 00
00 00
00 00
00 00
00 00
00 00
00 00
00 00
33 00
33 00
CC C0
CC C0
CC C0
CC C0
CC C0
CC C0
C0 C0
C0 C0
C0 C0
C0 C0
00 00
00 00
00 00
00 00
ENDCHAR
STARTCHAR uni028E
ENCODING 654
BBX 12 26 0 -4
DWIDTH 12 0
SWIDTH 480 0
BITMAP
00 00
00 00
00 00
00 00
00 C0
00 C0
03 00
03 00
03 00
03 00
0C 00
0C 00
0C 00
0C 00
33 00
33 00
33 00
33 00
C0 C0
C0 C0
C0 C0
C0 C0
00 00
00 00
00 00
00 00
ENDCHAR
STARTCHAR uni028F
ENCODING 655
BBX 12 26 0 -4
DWIDTH 12 0
SWIDTH 480 0
BITMAP
00 00
00 00
00 00
00 00
00 00
00 00
00 00
00 00
00 00
00 00
C0 C0
C0 C0
33 00
33 00
33 00
33 00
0C 00
0C 00
0C 00
0C 00
0C 00
0C 00
00 00
00 00
00 00
00 00
ENDCHAR
STARTCHAR uni0290
ENCODING 656
BBX 12 26 0 -4
DWIDTH 12 0
SWIDTH 480 0
BITMAP
00 00
00 00
00 00
00 00
00 00
00 00
00 00
00 00
00 00
00 00
FF C0
FF C0
03 00
03 00
0C 00
0C 00
30 00
30 00
C0 00
C0 00
FF C0
FF C0
03 00
03 00
00 C0
00 C0
ENDCHAR
STARTCHAR uni0291
ENCODING 657
BBX 12 26 0 -4
DWIDTH 12 0
SWIDTH 480 0
BITMAP
00 00
00 00
00 00
00 00
00 00
00 00
00 00
00 00
00 00
00 00
FF C0
FF C0
03 00
03 00
0C 00
0C 00
33 00
33 00
CC C0
CC C0
FF 00
FF 00
30 00
30 00
00 00
00 00
ENDCHAR
STARTCHAR uni0292
ENCODING 658
BBX 12 26 0 -4
DWIDTH 12 0
SWIDTH 480 0
BITMAP
00 00
00 00
00 00
00 00
00 00
00 00
00 00
00 00
00 00
00 00
FF C0
FF C0
03 00
03 00
0C 00
0C 00
3F 00
3F 00
00 C0
00 C0
00 C0
00 C0
C0 C0
C0 C0
3F 00
3F 00
ENDCHAR
STARTCHAR uni0293
ENCODING 659
BBX 12 26 0 -4
DWIDTH 12 0
SWIDTH 480 0
BITMAP
00 00
00 00
00 00
00 00
00 00
00 00
00 00
00 00
00 00
00 00
FF C0
FF C0
03 00
03 00
0C 00
0C 00
3F 00
3F 00
00 C0
00 C0
3C C0
3C C0
C3 C0
C3 C0
3F C0
3F C0
ENDCHAR
STARTCHAR uni0294
ENCODING 660
BBX 12 26 0 -4
DWIDTH 12 0
SWIDTH 480 0
BITMAP
00 00
00 00
00 00
00 00
0F 00
0F 00
30 C0
30 C0
00 C0
00 C0
00 C0
00 C0
0F 00
0F 00
0C 00
0C 00
0C 00
0C 00
0C 00
0C 00
3F 00
3F 00
00 00
00 00
00 00
00 00
ENDCHAR
STARTCHAR uni0295
ENCODING 661
BBX 12 26 0 -4
DWIDTH 12 0
SWIDTH 480 0
BITMAP
00 00
00 00
00 00
00 00
0F 00
0F 00
30 C0
30 C0
30 00
30 00
30 00
30 00
0F 00
0F 00
03 00
03 00
03 00
03 00
03 00
03 00
0F C0
0F C0
00 00
00 00
00 00
00 00
ENDCHAR
STARTCHAR uni0296
ENCODING 662
BBX 12 26 0 -4
DWIDTH 12 0
SWIDTH 480 0
BITMAP
00 00
00 00
00 00
00 00
3F 00
3F 00
0C 00
0C 00
0C 00
0C 00
0C 00
0C 00
0F 00
0F 00
00 C0
00 C0
00 C0
00 C0
30 C0
30 C0
0F 00
0F 00
00 00
00 00
00 00
00 00
ENDCHAR
STARTCHAR uni0297
ENCODING 663
BBX 12 26 0 -4
DWIDTH 12 0
SWIDTH 480 0
BITMAP
00 00
00 00
00 00
00 00
00 00
00 00
3F 00
3F 00
C0 C0
C0 C0
C0 00
C0 00
C0 00
C0 00
C0 00
C0 00
C0 00
C0 00
C0 00
C0 00
C0 00
C0 00
C0 C0
C0 C0
3F 00
3F 00
ENDCHAR
STARTCHAR uni0298
ENCODING 664
BBX 12 26 0 -4
DWIDTH 12 0
SWIDTH 480 0
BITMAP
00 00
00 00
00 00
00 00
00 00
00 00
00 00
00 00
00 00
00 00
00 00
00 00
3F 00
3F 00
C0 C0
C0 C0
CC C0
CC C0
C0 C0
C0 C0
3F 00
3F 00
00 00
00 00
00 00
00 00
ENDCHAR
STARTCHAR uni0299
ENCODING 665
BBX 12 26 0 -4
DWIDTH 12 0
SWIDTH 480 0
BITMAP
00 00
00 00
00 00
00 00
00 00
00 00
00 00
00 00
00 00
00 00
FF 00
FF 00
C0 C0
C0 C0
FF 00
FF 00
C0 C0
C0 C0
C0 C0
C0 C0
FF 00
FF 00
00 00
00 00
00 00
00 00
ENDCHAR
STARTCHAR uni029A
ENCODING 666
BBX 12 26 0 -4
DWIDTH 12 0
SWIDTH 480 0
BITMAP
00 00
00 00
00 00
00 00
00 00
00 00
00 00
00 00
00 00
00 00
3F 00
3F 00
C0 C0
C0 C0
3C C0
3C C0
C0 C0
C0 C0
C0 C0
C0 C0
3F 00
3F 00
00 00
00 00
00 00
00 00
ENDCHAR
STARTCHAR uni029B
ENCODING 667
BBX 12 26 0 -4
DWIDTH 12 0
SWIDTH 480 0
BITMAP
00 00
00 00
00 00
00 00
00 00
00 00
00 00
00 00
00 30
00 30
3F C0
3F C0
C0 C0
C0 C0
C0 00
C0 00
C3 C0
C3 C0
C0 C0
C0 C0
3F 00
3F 00
00 00
00 00
00 00
00 00
ENDCHAR
STARTCHAR uni029C
ENCODING 668
BBX 12 26 0 -4
DWIDTH 12 0
SWIDTH 480 0
BITMAP
00 00
00 00
00 00
00 00
00 00
00 00
00 00
00 00
00 00
00 00
C0 C0
C0 C0
C0 C0
C0 C0
FF C0
FF C0
C0 C0
C0 C0
C0 C0
C0 C0
C0 C0
C0 C0
00 00
00 00
00 00
00 00
ENDCHAR
STARTCHAR uni029D
ENCODING 669
BBX 12 26 0 -4
DWIDTH 12 0
SWIDTH 480 0
BITMAP
00 00
00 00
00 00
00 00
00 00
00 00
03 00
03 00
00 00
00 00
0F 00
0F 00
03 00
03 00
03 00
03 00
03 00
03 00
03 00
03 00
3F 00
3F 00
C3 C0
C3 C0
3C C0
3C C0
ENDCHAR
STARTCHAR uni029E
ENCODING 670
BBX 12 26 0 -4
DWIDTH 12 0
SWIDTH 480 0
BITMAP
00 00
00 00
00 00
00 00
00 00
00 00
00 00
00 00
00 00
00 00
C0 C0
C0 C0
30 C0
30 C0
0C C0
0C C0
03 C0
03 C0
0C C0
0C C0
30 C0
30 C0
00 C0
00 C0
00 C0
00 C0
ENDCHAR
STARTCHAR uni029F
ENCODING 671
BBX 12 26 0 -4
DWIDTH 12 0
SWIDTH 480 0
BITMAP
00 00
00 00
00 00
00 00
00 00
00 00
00 00
00 00
00 00
00 00
30 00
30 00
30 00
30 00
30 00
30 00
30 00
30 00
30 00
30 00
3F C0
3F C0
00 00
00 00
00 00
00 00
ENDCHAR
STARTCHAR uni02A0
ENCODING 672
BBX 12 26 0 -4
DWIDTH 12 0
SWIDTH 480 0
BITMAP
00 00
00 00
00 00
00 00
00 00
00 00
00 C0
00 C0
03 30
03 30
3F 00
3F 00
C3 00
C3 00
C3 00
C3 00
C3 00
C3 00
3F 00
3F 00
03 00
03 00
03 00
03 00
03 00
03 00
ENDCHAR
STARTCHAR uni02A1
ENCODING 673
BBX 12 26 0 -4
DWIDTH 12 0
SWIDTH 480 0
BITMAP
00 00
00 00
00 00
00 00
0F 00
0F 00
30 C0
30 C0
00 C0
00 C0
00 C0
00 C0
0F 00
0F 00
0C 00
0C 00
3F 00
3F 00
0C 00
0C 00
3F 00
3F 00
00 00
00 00
00 00
00 00
ENDCHAR
STARTCHAR uni02A2
ENCODING 674
BBX 12 26 0 -4
DWIDTH 12 0
SWIDTH 480 0
BITMAP
00 00
00 00
00 00
00 00
0F 00
0F 00
30 C0
30 C0
30 00
30 00
30 00
30 00
0F 00
0F 00
03 00
03 00
0F C0
0F C0
03 00
03 00
0F C0
0F C0
00 00
00 00
00 00
00 00
ENDCHAR
STARTCHAR uni02A3
ENCODING 675
BBX 12 26 0 -4
DWIDTH 12 0
SWIDTH 480 0
BITMAP
00 00
00 00
00 00
00 00
0C 00
0C 00
0C 00
0C 00
0C 00
0C 00
3F C0
3F C0
CC C0
CC C0
CC C0
CC C0
CF 00
CF 00
CF 00
CF 00
3F C0
3F C0
00 00
00 00
00 00
00 00
ENDCHAR
STARTCHAR uni02A4
ENCODING 676
BBX 12 26 0 -4
DWIDTH 12 0
SWIDTH 480 0
BITMAP
00 00
00 00
00 00
00 00
0C 00
0C 00
0C 00
0C 00
0C 00
0C 00
3F C0
3F C0
CC C0
CC C0
CC C0
CC C0
CF 00
CF 00
CF 00
CF 00
3C C0
3C C0
00 C0
00 C0
0F 00
0F 00
ENDCHAR
STARTCHAR uni02A5
ENCODING 677
BBX 12 26 0 -4
DWIDTH 12 0
SWIDTH 480 0
BITMAP
00 00
00 00
00 00
00 00
0C 00
0C 00
0C 00
0C 00
0C 00
0C 00
3F C0
3F C0
CC C0
CC C0
CC C0
CC C0
CF F0
CF F0
CF 30
CF 30
3F C0
3F C0
03 00
03 00
0C 00
0C 00
ENDCHAR
STARTCHAR uni02A6
ENCODING 678
BBX 12 26 0 -4
DWIDTH 12 0
SWIDTH 480 0
BITMAP
00 00
00 00
00 00
00 00
00 00
00 00
30 00
30 00
30 00
30 00
FC 00
FC 00
33 C0
33 C0
3C 00
3C 00
33 00
33 00
30 C0
30 C0
0F 00
0F 00
00 00
00 00
00 00
00 00
ENDCHAR
STARTCHAR uni02A7
ENCODING 679
BBX 12 26 0 -4
DWIDTH 12 0
SWIDTH 480 0
BITMAP
00 00
00 00
00 00
00 00
00 C0
00 C0
33 00
33 00
33 00
33 00
FF C0
FF C0
33 00
33 00
33 00
33 00
33 00
33 00
33 00
33 00
0F 00
0F 00
33 00
33 00
0C 00
0C 00
ENDCHAR
STARTCHAR uni02A8
ENCODING 680
BBX 12 26 0 -4
DWIDTH 12 0
SWIDTH 480 0
BITMAP
00 00
00 00
00 00
00 00
00 00
00 00
30 00
30 00
30 00
30 00
FC 00
FC 00
33 C0
33 C0
3C 00
3C 00
3C C0
3C C0
3F 30
3F 30
0F C0
0F C0
0C 00
0C 00
30 00
30 00
ENDCHAR
STARTCHAR uni02A9
ENCODING 681
BBX 12 26 0 -4
DWIDTH 12 0
SWIDTH 480 0
BITMAP
00 00
00 00
00 00
00 00
3C 00
3C 00
C3 00
C3 00
C0 00
C0 00
C0 00
C0 00
FF 00
FF 00
CC C0
CC C0
CC C0
CC C0
CC C0
CC C0
CC C0
CC C0
00 C0
00 C0
0F 00
0F 00
ENDCHAR
STARTCHAR uni02AA
ENCODING 682
BBX 12 26 0 -4
DWIDTH 12 0
SWIDTH 480 0
BITMAP
00 00
00 00
00 00
00 00
C0 00
C0 00
C0 00
C0 00
C0 00
C0 00
CF 00
CF 00
F0 C0
F0 C0
CC 00
CC 00
C3 00
C3 00
F0 C0
F0 C0
CF 00
CF 00
00 00
00 00
00 00
00 00
ENDCHAR
STARTCHAR uni02AB
ENCODING 683
BBX 12 26 0 -4
DWIDTH 12 0
SWIDTH 480 0
BITMAP
00 00
00 00
00 00
00 00
C0 00
C0 00
C0 00
C0 00
C0 00
C0 00
FF C0
FF C0
C0 C0
C0 C0
C3 00
C3 00
CC 00
CC 00
F0 00
F0 00
FF C0
FF C0
00 00
00 00
00 00
00 00
ENDCHAR
STARTCHAR uni02AC
ENCODING 684
BBX 12 26 0 -4
DWIDTH 12 0
SWIDTH 480 0
BITMAP
00 00
00 00
00 00
00 00
CC C0
CC C0
CC C0
CC C0
33 00
33 00
33 00
33 00
00 00
00 00
CC C0
CC C0
CC C0
CC C0
33 00
33 00
33 00
33 00
00 00
00 00
00 00
00 00
ENDCHAR
STARTCHAR uni02AD
ENCODING 685
BBX 12 26 0 -4
DWIDTH 12 0
SWIDTH 480 0
BITMAP
00 00
00 00
00 00
00 00
00 00
00 00
00 00
00 00
3F C0
3F C0
30 C0
30 C0
00 00
00 00
3F C0
3F C0
30 C0
30 C0
00 00
00 00
00 00
00 00
00 00
00 00
00 00
00 00
ENDCHAR
STARTCHAR uni02B0
ENCODING 688
BBX 12 26 0 -4
DWIDTH 12 0
SWIDTH 480 0
BITMAP
00 00
00 00
00 00
00 00
30 00
30 00
33 00
33 00
3C C0
3C C0
30 C0
30 C0
30 C0
30 C0
00 00
00 00
00 00
00 00
00 00
00 00
00 00
00 00
00 00
00 00
00 00
00 00
ENDCHAR
STARTCHAR uni02B1
ENCODING 689
BBX 12 26 0 -4
DWIDTH 12 0
SWIDTH 480 0
BITMAP
00 00
00 00
0C 00
0C 00
30 00
30 00
33 00
33 00
3C C0
3C C0
30 C0
30 C0
30 C0
30 C0
00 00
00 00
00 00
00 00
00 00
00 00
00 00
00 00
00 00
00 00
00 00
00 00
ENDCHAR
STARTCHAR uni02B2
ENCODING 690
BBX 12 26 0 -4
DWIDTH 12 0
SWIDTH 480 0
BITMAP
00 00
00 00
03 00
03 00
00 00
00 00
03 00
03 00
03 00
03 00
33 00
33 00
0C 00
0C 00
00 00
00 00
00 00
00 00
00 00
00 00
00 00
00 00
00 00
00 00
00 00
00 00
ENDCHAR
STARTCHAR uni02B3
ENCODING 691
BBX 12 26 0 -4
DWIDTH 12 0
SWIDTH 480 0
BITMAP
00 00
00 00
00 00
00 00
33 00
33 00
3C 00
3C 00
30 00
30 00
30 00
30 00
30 00
30 00
00 00
00 00
00 00
00 00
00 00
00 00
00 00
00 00
00 00
00 00
00 00
00 00
ENDCHAR
STARTCHAR uni02B4
ENCODING 692
BBX 12 26 0 -4
DWIDTH 12 0
SWIDTH 480 0
BITMAP
00 00
00 00
00 00
00 00
03 00
03 00
03 00
03 00
03 00
03 00
0F 00
0F 00
33 00
33 00
00 00
00 00
00 00
00 00
00 00
00 00
00 00
00 00
00 00
00 00
00 00
00 00
ENDCHAR
STARTCHAR uni02B5
ENCODING 693
BBX 12 26 0 -4
DWIDTH 12 0
SWIDTH 480 0
BITMAP
00 00
00 00
00 00
00 00
03 00
03 00
03 00
03 00
03 00
03 00
0F 00
0F 00
33 00
33 00
00 C0
00 C0
00 00
00 00
00 00
00 00
00 00
00 00
00 00
00 00
00 00
00 00
ENDCHAR
STARTCHAR uni02B6
ENCODING 694
BBX 12 26 0 -4
DWIDTH 12 0
SWIDTH 480 0
BITMAP
00 00
00 00
00 00
00 00
33 00
33 00
33 00
33 00
3C 00
3C 00
33 00
33 00
3C 00
3C 00
00 00
00 00
00 00
00 00
00 00
00 00
00 00
00 00
00 00
00 00
00 00
00 00
ENDCHAR
STARTCHAR uni02B7
ENCODING 695
BBX 12 26 0 -4
DWIDTH 12 0
SWIDTH 480 0
BITMAP
00 00
00 00
00 00
00 00
C0 C0
C0 C0
CC C0
CC C0
CC C0
CC C0
33 00
33 00
00 00
00 00
00 00
00 00
00 00
00 00
00 00
00 00
00 00
00 00
00 00
00 00
00 00
00 00
ENDCHAR
STARTCHAR uni02B8
ENCODING 696
BBX 12 26 0 -4
DWIDTH 12 0
SWIDTH 480 0
BITMAP
00 00
00 00
00 00
00 00
33 00
33 00
33 00
33 00
0C 00
0C 00
0C 00
0C 00
30 00
30 00
00 00
00 00
00 00
00 00
00 00
00 00
00 00
00 00
00 00
00 00
00 00
00 00
ENDCHAR
STARTCHAR uni02B9
ENCODING 697
BBX 12 26 0 -4
DWIDTH 12 0
SWIDTH 480 0
BITMAP
00 00
00 00
00 00
00 00
0C 00
0C 00
0C 00
0C 00
30 00
30 00
00 00
00 00
00 00
00 00
00 00
00 00
00 00
00 00
00 00
00 00
00 00
00 00
00 00
00 00
00 00
00 00
ENDCHAR
STARTCHAR uni02BA
ENCODING 698
BBX 12 26 0 -4
DWIDTH 12 0
SWIDTH 480 0
BITMAP
00 00
00 00
00 00
00 00
0C C0
0C C0
0C C0
0C C0
33 00
33 00
00 00
00 00
00 00
00 00
00 00
00 00
00 00
00 00
00 00
00 00
00 00
00 00
00 00
00 00
00 00
00 00
ENDCHAR
STARTCHAR uni02BB
ENCODING 699
BBX 12 26 0 -4
DWIDTH 12 0
SWIDTH 480 0
BITMAP
00 00
00 00
00 00
00 00
03 00
03 00
0C 00
0C 00
0F 00
0F 00
00 00
00 00
00 00
00 00
00 00
00 00
00 00
00 00
00 00
00 00
00 00
00 00
00 00
00 00
00 00
00 00
ENDCHAR
STARTCHAR afii57929
ENCODING 700
BBX 12 26 0 -4
DWIDTH 12 0
SWIDTH 480 0
BITMAP
00 00
00 00
00 00
00 00
0F 00
0F 00
03 00
03 00
0C 00
0C 00
00 00
00 00
00 00
00 00
00 00
00 00
00 00
00 00
00 00
00 00
00 00
00 00
00 00
00 00
00 00
00 00
ENDCHAR
STARTCHAR afii64937
ENCODING 701
BBX 12 26 0 -4
DWIDTH 12 0
SWIDTH 480 0
BITMAP
00 00
00 00
00 00
00 00
0F 00
0F 00
0C 00
0C 00
03 00
03 00
00 00
00 00
00 00
00 00
00 00
00 00
00 00
00 00
00 00
00 00
00 00
00 00
00 00
00 00
00 00
00 00
ENDCHAR
STARTCHAR uni02BE
ENCODING 702
BBX 12 26 0 -4
DWIDTH 12 0
SWIDTH 480 0
BITMAP
00 00
00 00
0C 00
0C 00
03 00
03 00
03 00
03 00
0C 00
0C 00
00 00
00 00
00 00
00 00
00 00
00 00
00 00
00 00
00 00
00 00
00 00
00 00
00 00
00 00
00 00
00 00
ENDCHAR
STARTCHAR uni02BF
ENCODING 703
BBX 12 26 0 -4
DWIDTH 12 0
SWIDTH 480 0
BITMAP
00 00
00 00
03 00
03 00
0C 00
0C 00
0C 00
0C 00
03 00
03 00
00 00
00 00
00 00
00 00
00 00
00 00
00 00
00 00
00 00
00 00
00 00
00 00
00 00
00 00
00 00
00 00
ENDCHAR
STARTCHAR uni02C0
ENCODING 704
BBX 12 26 0 -4
DWIDTH 12 0
SWIDTH 480 0
BITMAP
00 00
00 00
0C 00
0C 00
33 00
33 00
03 00
03 00
0C 00
0C 00
0C 00
0C 00
00 00
00 00
00 00
00 00
00 00
00 00
00 00
00 00
00 00
00 00
00 00
00 00
00 00
00 00
ENDCHAR
STARTCHAR uni02C1
ENCODING 705
BBX 12 26 0 -4
DWIDTH 12 0
SWIDTH 480 0
BITMAP
00 00
00 00
0C 00
0C 00
33 00
33 00
30 00
30 00
0C 00
0C 00
0C 00
0C 00
00 00
00 00
00 00
00 00
00 00
00 00
00 00
00 00
00 00
00 00
00 00
00 00
00 00
00 00
ENDCHAR
STARTCHAR uni02C2
ENCODING 706
BBX 12 26 0 -4
DWIDTH 12 0
SWIDTH 480 0
BITMAP
00 00
00 00
03 00
03 00
0C 00
0C 00
30 00
30 00
0C 00
0C 00
03 00
03 00
00 00
00 00
00 00
00 00
00 00
00 00
00 00
00 00
00 00
00 00
00 00
00 00
00 00
00 00
ENDCHAR
STARTCHAR uni02C3
ENCODING 707
BBX 12 26 0 -4
DWIDTH 12 0
SWIDTH 480 0
BITMAP
00 00
00 00
30 00
30 00
0C 00
0C 00
03 00
03 00
0C 00
0C 00
30 00
30 00
00 00
00 00
00 00
00 00
00 00
00 00
00 00
00 00
00 00
00 00
00 00
00 00
00 00
00 00
ENDCHAR
STARTCHAR uni02C4
ENCODING 708
BBX 12 26 0 -4
DWIDTH 12 0
SWIDTH 480 0
BITMAP
00 00
00 00
0C 00
0C 00
33 00
33 00
C0 C0
C0 C0
00 00
00 00
00 00
00 00
00 00
00 00
00 00
00 00
00 00
00 00
00 00
00 00
00 00
00 00
00 00
00 00
00 00
00 00
ENDCHAR
STARTCHAR uni02C5
ENCODING 709
BBX 12 26 0 -4
DWIDTH 12 0
SWIDTH 480 0
BITMAP
00 00
00 00
C0 C0
C0 C0
33 00
33 00
0C 00
0C 00
00 00
00 00
00 00
00 00
00 00
00 00
00 00
00 00
00 00
00 00
00 00
00 00
00 00
00 00
00 00
00 00
00 00
00 00
ENDCHAR
STARTCHAR circumflex
ENCODING 710
BBX 12 26 0 -4
DWIDTH 12 0
SWIDTH 480 0
BITMAP
00 00
00 00
0F 00
0F 00
30 C0
30 C0
00 00
00 00
00 00
00 00
00 00
00 00
00 00
00 00
00 00
00 00
00 00
00 00
00 00
00 00
00 00
00 00
00 00
00 00
00 00
00 00
ENDCHAR
STARTCHAR caron
ENCODING 711
BBX 12 26 0 -4
DWIDTH 12 0
SWIDTH 480 0
BITMAP
00 00
00 00
30 C0
30 C0
0F 00
0F 00
00 00
00 00
00 00
00 00
00 00
00 00
00 00
00 00
00 00
00 00
00 00
00 00
00 00
00 00
00 00
00 00
00 00
00 00
00 00
00 00
ENDCHAR
STARTCHAR uni02C8
ENCODING 712
BBX 12 26 0 -4
DWIDTH 12 0
SWIDTH 480 0
BITMAP
00 00
00 00
00 00
00 00
0C 00
0C 00
0C 00
0C 00
0C 00
0C 00
00 00
00 00
00 00
00 00
00 00
00 00
00 00
00 00
00 00
00 00
00 00
00 00
00 00
00 00
00 00
00 00
ENDCHAR
STARTCHAR macron
ENCODING 713
BBX 12 26 0 -4
DWIDTH 12 0
SWIDTH 480 0
BITMAP
00 00
00 00
00 00
00 00
3F C0
3F C0
00 00
00 00
00 00
00 00
00 00
00 00
00 00
00 00
00 00
00 00
00 00
00 00
00 00
00 00
00 00
00 00
00 00
00 00
00 00
00 00
ENDCHAR
STARTCHAR uni02CA
ENCODING 714
BBX 12 26 0 -4
DWIDTH 12 0
SWIDTH 480 0
BITMAP
00 00
00 00
00 00
00 00
03 00
03 00
0C 00
0C 00
00 00
00 00
00 00
00 00
00 00
00 00
00 00
00 00
00 00
00 00
00 00
00 00
00 00
00 00
00 00
00 00
00 00
00 00
ENDCHAR
STARTCHAR uni02CB
ENCODING 715
BBX 12 26 0 -4
DWIDTH 12 0
SWIDTH 480 0
BITMAP
00 00
00 00
00 00
00 00
0C 00
0C 00
03 00
03 00
00 00
00 00
00 00
00 00
00 00
00 00
00 00
00 00
00 00
00 00
00 00
00 00
00 00
00 00
00 00
00 00
00 00
00 00
ENDCHAR
STARTCHAR uni02CC
ENCODING 716
BBX 12 26 0 -4
DWIDTH 12 0
SWIDTH 480 0
BITMAP
00 00
00 00
00 00
00 00
00 00
00 00
00 00
00 00
00 00
00 00
00 00
00 00
00 00
00 00
00 00
00 00
0C 00
0C 00
0C 00
0C 00
0C 00
0C 00
00 00
00 00
00 00
00 00
ENDCHAR
STARTCHAR uni02CD
ENCODING 717
BBX 12 26 0 -4
DWIDTH 12 0
SWIDTH 480 0
BITMAP
00 00
00 00
00 00
00 00
00 00
00 00
00 00
00 00
00 00
00 00
00 00
00 00
00 00
00 00
00 00
00 00
00 00
00 00
00 00
00 00
00 00
00 00
00 00
00 00
3F 00
3F 00
ENDCHAR
STARTCHAR uni02CE
ENCODING 718
BBX 12 26 0 -4
DWIDTH 12 0
SWIDTH 480 0
BITMAP
00 00
00 00
00 00
00 00
00 00
00 00
00 00
00 00
00 00
00 00
00 00
00 00
00 00
00 00
00 00
00 00
00 00
00 00
00 00
00 00
00 00
00 00
0C 00
0C 00
03 00
03 00
ENDCHAR
STARTCHAR uni02CF
ENCODING 719
BBX 12 26 0 -4
DWIDTH 12 0
SWIDTH 480 0
BITMAP
00 00
00 00
00 00
00 00
00 00
00 00
00 00
00 00
00 00
00 00
00 00
00 00
00 00
00 00
00 00
00 00
00 00
00 00
00 00
00 00
00 00
00 00
0C 00
0C 00
30 00
30 00
ENDCHAR
STARTCHAR uni02D0
ENCODING 720
BBX 12 26 0 -4
DWIDTH 12 0
SWIDTH 480 0
BITMAP
00 00
00 00
00 00
00 00
00 00
00 00
00 00
00 00
00 00
00 00
3F 00
3F 00
0C 00
0C 00
00 00
00 00
00 00
00 00
0C 00
0C 00
3F 00
3F 00
00 00
00 00
00 00
00 00
ENDCHAR
STARTCHAR uni02D1
ENCODING 721
BBX 12 26 0 -4
DWIDTH 12 0
SWIDTH 480 0
BITMAP
00 00
00 00
00 00
00 00
00 00
00 00
00 00
00 00
00 00
00 00
3F 00
3F 00
0C 00
0C 00
00 00
00 00
00 00
00 00
00 00
00 00
00 00
00 00
00 00
00 00
00 00
00 00
ENDCHAR
STARTCHAR uni02D2
ENCODING 722
BBX 12 26 0 -4
DWIDTH 12 0
SWIDTH 480 0
BITMAP
00 00
00 00
00 00
00 00
00 00
00 00
00 00
00 00
00 00
00 00
0C 00
0C 00
03 00
03 00
03 00
03 00
0C 00
0C 00
00 00
00 00
00 00
00 00
00 00
00 00
00 00
00 00
ENDCHAR
STARTCHAR uni02D3
ENCODING 723
BBX 12 26 0 -4
DWIDTH 12 0
SWIDTH 480 0
BITMAP
00 00
00 00
00 00
00 00
00 00
00 00
00 00
00 00
00 00
00 00
0C 00
0C 00
30 00
30 00
30 00
30 00
0C 00
0C 00
00 00
00 00
00 00
00 00
00 00
00 00
00 00
00 00
ENDCHAR
STARTCHAR uni02D4
ENCODING 724
BBX 12 26 0 -4
DWIDTH 12 0
SWIDTH 480 0
BITMAP
00 00
00 00
00 00
00 00
00 00
00 00
00 00
00 00
0C 00
0C 00
0C 00
0C 00
FF C0
FF C0
00 00
00 00
00 00
00 00
00 00
00 00
00 00
00 00
00 00
00 00
00 00
00 00
ENDCHAR
STARTCHAR uni02D5
ENCODING 725
BBX 12 26 0 -4
DWIDTH 12 0
SWIDTH 480 0
BITMAP
00 00
00 00
00 00
00 00
00 00
00 00
00 00
00 00
00 00
00 00
00 00
00 00
FF C0
FF C0
0C 00
0C 00
0C 00
0C 00
00 00
00 00
00 00
00 00
00 00
00 00
00 00
00 00
ENDCHAR
STARTCHAR uni02D6
ENCODING 726
BBX 12 26 0 -4
DWIDTH 12 0
SWIDTH 480 0
BITMAP
00 00
00 00
00 00
00 00
00 00
00 00
00 00
00 00
0C 00
0C 00
0C 00
0C 00
FF C0
FF C0
0C 00
0C 00
0C 00
0C 00
00 00
00 00
00 00
00 00
00 00
00 00
00 00
00 00
ENDCHAR
STARTCHAR uni02D7
ENCODING 727
BBX 12 26 0 -4
DWIDTH 12 0
SWIDTH 480 0
BITMAP
00 00
00 00
00 00
00 00
00 00
00 00
00 00
00 00
00 00
00 00
C0 C0
C0 C0
FF C0
FF C0
C0 C0
C0 C0
00 00
00 00
00 00
00 00
00 00
00 00
00 00
00 00
00 00
00 00
ENDCHAR
STARTCHAR breve
ENCODING 728
BBX 12 26 0 -4
DWIDTH 12 0
SWIDTH 480 0
BITMAP
00 00
00 00
C0 C0
C0 C0
3F 00
3F 00
00 00
00 00
00 00
00 00
00 00
00 00
00 00
00 00
00 00
00 00
00 00
00 00
00 00
00 00
00 00
00 00
00 00
00 00
00 00
00 00
ENDCHAR
STARTCHAR dotaccent
ENCODING 729
BBX 12 26 0 -4
DWIDTH 12 0
SWIDTH 480 0
BITMAP
00 00
00 00
0C 00
0C 00
0C 00
0C 00
00 00
00 00
00 00
00 00
00 00
00 00
00 00
00 00
00 00
00 00
00 00
00 00
00 00
00 00
00 00
00 00
00 00
00 00
00 00
00 00
ENDCHAR
STARTCHAR ring
ENCODING 730
BBX 12 26 0 -4
DWIDTH 12 0
SWIDTH 480 0
BITMAP
00 00
00 00
0C 00
0C 00
33 00
33 00
0C 00
0C 00
00 00
00 00
00 00
00 00
00 00
00 00
00 00
00 00
00 00
00 00
00 00
00 00
00 00
00 00
00 00
00 00
00 00
00 00
ENDCHAR
STARTCHAR ogonek
ENCODING 731
BBX 12 26 0 -4
DWIDTH 12 0
SWIDTH 480 0
BITMAP
00 00
00 00
00 00
00 00
00 00
00 00
00 00
00 00
00 00
00 00
00 00
00 00
00 00
00 00
00 00
00 00
00 00
00 00
00 00
00 00
00 00
00 00
0C 00
0C 00
03 00
03 00
ENDCHAR
STARTCHAR tilde
ENCODING 732
BBX 12 26 0 -4
DWIDTH 12 0
SWIDTH 480 0
BITMAP
00 00
00 00
0C C0
0C C0
33 00
33 00
00 00
00 00
00 00
00 00
00 00
00 00
00 00
00 00
00 00
00 00
00 00
00 00
00 00
00 00
00 00
00 00
00 00
00 00
00 00
00 00
ENDCHAR
STARTCHAR hungarumlaut
ENCODING 733
BBX 12 26 0 -4
DWIDTH 12 0
SWIDTH 480 0
BITMAP
00 00
00 00
30 C0
30 C0
C3 00
C3 00
00 00
00 00
00 00
00 00
00 00
00 00
00 00
00 00
00 00
00 00
00 00
00 00
00 00
00 00
00 00
00 00
00 00
00 00
00 00
00 00
ENDCHAR
STARTCHAR uni02DE
ENCODING 734
BBX 12 26 0 -4
DWIDTH 12 0
SWIDTH 480 0
BITMAP
00 00
00 00
00 00
00 00
00 00
00 00
00 00
00 00
00 00
00 00
30 00
30 00
F0 C0
F0 C0
0F 00
0F 00
00 00
00 00
00 00
00 00
00 00
00 00
00 00
00 00
00 00
00 00
ENDCHAR
STARTCHAR uni02DF
ENCODING 735
BBX 12 26 0 -4
DWIDTH 12 0
SWIDTH 480 0
BITMAP
33 00
33 00
0C 00
0C 00
33 00
33 00
00 00
00 00
00 00
00 00
00 00
00 00
00 00
00 00
00 00
00 00
00 00
00 00
00 00
00 00
00 00
00 00
00 00
00 00
00 00
00 00
ENDCHAR
STARTCHAR uni02E0
ENCODING 736
BBX 12 26 0 -4
DWIDTH 12 0
SWIDTH 480 0
BITMAP
00 00
00 00
00 00
00 00
30 C0
30 C0
0F 00
0F 00
0F 00
0F 00
0F 00
0F 00
0F 00
0F 00
00 00
00 00
00 00
00 00
00 00
00 00
00 00
00 00
00 00
00 00
00 00
00 00
ENDCHAR
STARTCHAR uni02E1
ENCODING 737
BBX 12 26 0 -4
DWIDTH 12 0
SWIDTH 480 0
BITMAP
00 00
00 00
3C 00
3C 00
0C 00
0C 00
0C 00
0C 00
0C 00
0C 00
3F 00
3F 00
00 00
00 00
00 00
00 00
00 00
00 00
00 00
00 00
00 00
00 00
00 00
00 00
00 00
00 00
ENDCHAR
STARTCHAR uni02E2
ENCODING 738
BBX 12 26 0 -4
DWIDTH 12 0
SWIDTH 480 0
BITMAP
00 00
00 00
00 00
00 00
0F 00
0F 00
30 00
30 00
0C 00
0C 00
03 00
03 00
3C 00
3C 00
00 00
00 00
00 00
00 00
00 00
00 00
00 00
00 00
00 00
00 00
00 00
00 00
ENDCHAR
STARTCHAR uni02E3
ENCODING 739
BBX 12 26 0 -4
DWIDTH 12 0
SWIDTH 480 0
BITMAP
00 00
00 00
00 00
00 00
30 C0
30 C0
0F 00
0F 00
0F 00
0F 00
30 C0
30 C0
00 00
00 00
00 00
00 00
00 00
00 00
00 00
00 00
00 00
00 00
00 00
00 00
00 00
00 00
ENDCHAR
STARTCHAR uni02E4
ENCODING 740
BBX 12 26 0 -4
DWIDTH 12 0
SWIDTH 480 0
BITMAP
00 00
00 00
00 00
00 00
0F 00
0F 00
30 C0
30 C0
30 00
30 00
30 00
30 00
0F 00
0F 00
03 00
03 00
0F C0
0F C0
00 00
00 00
00 00
00 00
00 00
00 00
00 00
00 00
ENDCHAR
STARTCHAR uni02E5
ENCODING 741
BBX 12 26 0 -4
DWIDTH 12 0
SWIDTH 480 0
BITMAP
00 00
00 00
00 00
00 00
3F 00
3F 00
03 00
03 00
03 00
03 00
03 00
03 00
03 00
03 00
03 00
03 00
03 00
03 00
03 00
03 00
03 00
03 00
03 00
03 00
03 00
03 00
ENDCHAR
STARTCHAR uni02E6
ENCODING 742
BBX 12 26 0 -4
DWIDTH 12 0
SWIDTH 480 0
BITMAP
00 00
00 00
00 00
00 00
03 00
03 00
03 00
03 00
3F 00
3F 00
03 00
03 00
03 00
03 00
03 00
03 00
03 00
03 00
03 00
03 00
03 00
03 00
03 00
03 00
03 00
03 00
ENDCHAR
STARTCHAR uni02E7
ENCODING 743
BBX 12 26 0 -4
DWIDTH 12 0
SWIDTH 480 0
BITMAP
00 00
00 00
00 00
00 00
03 00
03 00
03 00
03 00
03 00
03 00
03 00
03 00
03 00
03 00
3F 00
3F 00
03 00
03 00
03 00
03 00
03 00
03 00
03 00
03 00
03 00
03 00
ENDCHAR
STARTCHAR uni02E8
ENCODING 744
BBX 12 26 0 -4
DWIDTH 12 0
SWIDTH 480 0
BITMAP
00 00
00 00
00 00
00 00
03 00
03 00
03 00
03 00
03 00
03 00
03 00
03 00
03 00
03 00
03 00
03 00
03 00
03 00
03 00
03 00
3F 00
3F 00
03 00
03 00
03 00
03 00
ENDCHAR
STARTCHAR uni02E9
ENCODING 745
BBX 12 26 0 -4
DWIDTH 12 0
SWIDTH 480 0
BITMAP
00 00
00 00
00 00
00 00
03 00
03 00
03 00
03 00
03 00
03 00
03 00
03 00
03 00
03 00
03 00
03 00
03 00
03 00
03 00
03 00
03 00
03 00
03 00
03 00
3F 00
3F 00
ENDCHAR
STARTCHAR uni02EA
ENCODING 746
BBX 12 26 0 -4
DWIDTH 12 0
SWIDTH 480 0
BITMAP
00 00
00 00
00 00
00 00
00 00
00 00
00 00
00 00
00 00
00 00
00 00
00 00
00 00
00 00
00 00
00 00
30 00
30 00
30 00
30 00
3F 00
3F 00
00 00
00 00
00 00
00 00
ENDCHAR
STARTCHAR uni02EB
ENCODING 747
BBX 12 26 0 -4
DWIDTH 12 0
SWIDTH 480 0
BITMAP
00 00
00 00
00 00
00 00
00 00
00 00
00 00
00 00
00 00
00 00
00 00
00 00
30 00
30 00
30 00
30 00
3F 00
3F 00
30 00
30 00
30 00
30 00
00 00
00 00
00 00
00 00
ENDCHAR
STARTCHAR uni02EC
ENCODING 748
BBX 12 26 0 -4
DWIDTH 12 0
SWIDTH 480 0
BITMAP
00 00
00 00
00 00
00 00
00 00
00 00
00 00
00 00
00 00
00 00
00 00
00 00
00 00
00 00
00 00
00 00
00 00
00 00
00 00
00 00
C0 C0
C0 C0
33 00
33 00
0C 00
0C 00
ENDCHAR
STARTCHAR uni02ED
ENCODING 749
BBX 12 26 0 -4
DWIDTH 12 0
SWIDTH 480 0
BITMAP
00 00
00 00
00 00
00 00
FF C0
FF C0
00 00
00 00
FF C0
FF C0
00 00
00 00
00 00
00 00
00 00
00 00
00 00
00 00
00 00
00 00
00 00
00 00
00 00
00 00
00 00
00 00
ENDCHAR
STARTCHAR uni02EE
ENCODING 750
BBX 12 26 0 -4
DWIDTH 12 0
SWIDTH 480 0
BITMAP
00 00
00 00
00 00
00 00
F3 C0
F3 C0
30 C0
30 C0
C3 00
C3 00
00 00
00 00
00 00
00 00
00 00
00 00
00 00
00 00
00 00
00 00
00 00
00 00
00 00
00 00
00 00
00 00
ENDCHAR
STARTCHAR gravecomb
ENCODING 768
BBX 12 26 0 -4
DWIDTH 12 0
SWIDTH 480 0
BITMAP
00 00
00 00
0C 00
0C 00
03 00
03 00
00 00
00 00
00 00
00 00
00 00
00 00
00 00
00 00
00 00
00 00
00 00
00 00
00 00
00 00
00 00
00 00
00 00
00 00
00 00
00 00
ENDCHAR
STARTCHAR acutecomb
ENCODING 769
BBX 12 26 0 -4
DWIDTH 12 0
SWIDTH 480 0
BITMAP
00 00
00 00
03 00
03 00
0C 00
0C 00
00 00
00 00
00 00
00 00
00 00
00 00
00 00
00 00
00 00
00 00
00 00
00 00
00 00
00 00
00 00
00 00
00 00
00 00
00 00
00 00
ENDCHAR
STARTCHAR uni0302
ENCODING 770
BBX 12 26 0 -4
DWIDTH 12 0
SWIDTH 480 0
BITMAP
00 00
00 00
0F 00
0F 00
30 C0
30 C0
00 00
00 00
00 00
00 00
00 00
00 00
00 00
00 00
00 00
00 00
00 00
00 00
00 00
00 00
00 00
00 00
00 00
00 00
00 00
00 00
ENDCHAR
STARTCHAR tildecomb
ENCODING 771
BBX 12 26 0 -4
DWIDTH 12 0
SWIDTH 480 0
BITMAP
00 00
00 00
0C C0
0C C0
33 00
33 00
00 00
00 00
00 00
00 00
00 00
00 00
00 00
00 00
00 00
00 00
00 00
00 00
00 00
00 00
00 00
00 00
00 00
00 00
00 00
00 00
ENDCHAR
STARTCHAR uni0304
ENCODING 772
BBX 12 26 0 -4
DWIDTH 12 0
SWIDTH 480 0
BITMAP
00 00
00 00
00 00
00 00
FF C0
FF C0
00 00
00 00
00 00
00 00
00 00
00 00
00 00
00 00
00 00
00 00
00 00
00 00
00 00
00 00
00 00
00 00
00 00
00 00
00 00
00 00
ENDCHAR
STARTCHAR uni0305
ENCODING 773
BBX 12 26 0 -4
DWIDTH 12 0
SWIDTH 480 0
BITMAP
00 00
00 00
00 00
00 00
FF F0
FF F0
00 00
00 00
00 00
00 00
00 00
00 00
00 00
00 00
00 00
00 00
00 00
00 00
00 00
00 00
00 00
00 00
00 00
00 00
00 00
00 00
ENDCHAR
STARTCHAR uni0306
ENCODING 774
BBX 12 26 0 -4
DWIDTH 12 0
SWIDTH 480 0
BITMAP
00 00
00 00
C0 C0
C0 C0
3F 00
3F 00
00 00
00 00
00 00
00 00
00 00
00 00
00 00
00 00
00 00
00 00
00 00
00 00
00 00
00 00
00 00
00 00
00 00
00 00
00 00
00 00
ENDCHAR
STARTCHAR uni0307
ENCODING 775
BBX 12 26 0 -4
DWIDTH 12 0
SWIDTH 480 0
BITMAP
00 00
00 00
0C 00
0C 00
0C 00
0C 00
00 00
00 00
00 00
00 00
00 00
00 00
00 00
00 00
00 00
00 00
00 00
00 00
00 00
00 00
00 00
00 00
00 00
00 00
00 00
00 00
ENDCHAR
STARTCHAR uni0308
ENCODING 776
BBX 12 26 0 -4
DWIDTH 12 0
SWIDTH 480 0
BITMAP
00 00
00 00
33 00
33 00
33 00
33 00
00 00
00 00
00 00
00 00
00 00
00 00
00 00
00 00
00 00
00 00
00 00
00 00
00 00
00 00
00 00
00 00
00 00
00 00
00 00
00 00
ENDCHAR
STARTCHAR hookabovecomb
ENCODING 777
BBX 12 26 0 -4
DWIDTH 12 0
SWIDTH 480 0
BITMAP
0C 00
0C 00
33 00
33 00
03 00
03 00
0C 00
0C 00
0C 00
0C 00
00 00
00 00
00 00
00 00
00 00
00 00
00 00
00 00
00 00
00 00
00 00
00 00
00 00
00 00
00 00
00 00
ENDCHAR
STARTCHAR uni030A
ENCODING 778
BBX 12 26 0 -4
DWIDTH 12 0
SWIDTH 480 0
BITMAP
0C 00
0C 00
33 00
33 00
0C 00
0C 00
00 00
00 00
00 00
00 00
00 00
00 00
00 00
00 00
00 00
00 00
00 00
00 00
00 00
00 00
00 00
00 00
00 00
00 00
00 00
00 00
ENDCHAR
STARTCHAR uni030B
ENCODING 779
BBX 12 26 0 -4
DWIDTH 12 0
SWIDTH 480 0
BITMAP
00 00
00 00
30 C0
30 C0
C3 00
C3 00
00 00
00 00
00 00
00 00
00 00
00 00
00 00
00 00
00 00
00 00
00 00
00 00
00 00
00 00
00 00
00 00
00 00
00 00
00 00
00 00
ENDCHAR
STARTCHAR uni030C
ENCODING 780
BBX 12 26 0 -4
DWIDTH 12 0
SWIDTH 480 0
BITMAP
00 00
00 00
30 C0
30 C0
0F 00
0F 00
00 00
00 00
00 00
00 00
00 00
00 00
00 00
00 00
00 00
00 00
00 00
00 00
00 00
00 00
00 00
00 00
00 00
00 00
00 00
00 00
ENDCHAR
STARTCHAR uni030D
ENCODING 781
BBX 12 26 0 -4
DWIDTH 12 0
SWIDTH 480 0
BITMAP
00 00
00 00
0C 00
0C 00
0C 00
0C 00
0C 00
0C 00
00 00
00 00
00 00
00 00
00 00
00 00
00 00
00 00
00 00
00 00
00 00
00 00
00 00
00 00
00 00
00 00
00 00
00 00
ENDCHAR
STARTCHAR uni030E
ENCODING 782
BBX 12 26 0 -4
DWIDTH 12 0
SWIDTH 480 0
BITMAP
00 00
00 00
33 00
33 00
33 00
33 00
33 00
33 00
00 00
00 00
00 00
00 00
00 00
00 00
00 00
00 00
00 00
00 00
00 00
00 00
00 00
00 00
00 00
00 00
00 00
00 00
ENDCHAR
STARTCHAR uni030F
ENCODING 783
BBX 12 26 0 -4
DWIDTH 12 0
SWIDTH 480 0
BITMAP
00 00
00 00
C3 00
C3 00
30 C0
30 C0
00 00
00 00
00 00
00 00
00 00
00 00
00 00
00 00
00 00
00 00
00 00
00 00
00 00
00 00
00 00
00 00
00 00
00 00
00 00
00 00
ENDCHAR
STARTCHAR uni0310
ENCODING 784
BBX 12 26 0 -4
DWIDTH 12 0
SWIDTH 480 0
BITMAP
0C 00
0C 00
0C 00
0C 00
C0 C0
C0 C0
3F 00
3F 00
00 00
00 00
00 00
00 00
00 00
00 00
00 00
00 00
00 00
00 00
00 00
00 00
00 00
00 00
00 00
00 00
00 00
00 00
ENDCHAR
STARTCHAR uni0311
ENCODING 785
BBX 12 26 0 -4
DWIDTH 12 0
SWIDTH 480 0
BITMAP
00 00
00 00
3F 00
3F 00
C0 C0
C0 C0
00 00
00 00
00 00
00 00
00 00
00 00
00 00
00 00
00 00
00 00
00 00
00 00
00 00
00 00
00 00
00 00
00 00
00 00
00 00
00 00
ENDCHAR
STARTCHAR uni0312
ENCODING 786
BBX 12 26 0 -4
DWIDTH 12 0
SWIDTH 480 0
BITMAP
00 00
00 00
03 00
03 00
0C 00
0C 00
3C 00
3C 00
00 00
00 00
00 00
00 00
00 00
00 00
00 00
00 00
00 00
00 00
00 00
00 00
00 00
00 00
00 00
00 00
00 00
00 00
ENDCHAR
STARTCHAR uni0313
ENCODING 787
BBX 12 26 0 -4
DWIDTH 12 0
SWIDTH 480 0
BITMAP
00 00
00 00
0F 00
0F 00
0C 00
0C 00
30 00
30 00
00 00
00 00
00 00
00 00
00 00
00 00
00 00
00 00
00 00
00 00
00 00
00 00
00 00
00 00
00 00
00 00
00 00
00 00
ENDCHAR
STARTCHAR uni0314
ENCODING 788
BBX 12 26 0 -4
DWIDTH 12 0
SWIDTH 480 0
BITMAP
00 00
00 00
3C 00
3C 00
0C 00
0C 00
03 00
03 00
00 00
00 00
00 00
00 00
00 00
00 00
00 00
00 00
00 00
00 00
00 00
00 00
00 00
00 00
00 00
00 00
00 00
00 00
ENDCHAR
STARTCHAR uni0315
ENCODING 789
BBX 12 26 0 -4
DWIDTH 12 0
SWIDTH 480 0
BITMAP
00 00
00 00
00 F0
00 F0
00 C0
00 C0
03 00
03 00
00 00
00 00
00 00
00 00
00 00
00 00
00 00
00 00
00 00
00 00
00 00
00 00
00 00
00 00
00 00
00 00
00 00
00 00
ENDCHAR
STARTCHAR uni0316
ENCODING 790
BBX 12 26 0 -4
DWIDTH 12 0
SWIDTH 480 0
BITMAP
00 00
00 00
00 00
00 00
00 00
00 00
00 00
00 00
00 00
00 00
00 00
00 00
00 00
00 00
00 00
00 00
00 00
00 00
00 00
00 00
00 00
00 00
0C 00
0C 00
03 00
03 00
ENDCHAR
STARTCHAR uni0317
ENCODING 791
BBX 12 26 0 -4
DWIDTH 12 0
SWIDTH 480 0
BITMAP
00 00
00 00
00 00
00 00
00 00
00 00
00 00
00 00
00 00
00 00
00 00
00 00
00 00
00 00
00 00
00 00
00 00
00 00
00 00
00 00
00 00
00 00
03 00
03 00
0C 00
0C 00
ENDCHAR
STARTCHAR uni0318
ENCODING 792
BBX 12 26 0 -4
DWIDTH 12 0
SWIDTH 480 0
BITMAP
00 00
00 00
00 00
00 00
00 00
00 00
00 00
00 00
00 00
00 00
00 00
00 00
00 00
00 00
00 00
00 00
00 00
00 00
00 00
00 00
03 00
03 00
0F 00
0F 00
03 00
03 00
ENDCHAR
STARTCHAR uni0319
ENCODING 793
BBX 12 26 0 -4
DWIDTH 12 0
SWIDTH 480 0
BITMAP
00 00
00 00
00 00
00 00
00 00
00 00
00 00
00 00
00 00
00 00
00 00
00 00
00 00
00 00
00 00
00 00
00 00
00 00
00 00
00 00
0C 00
0C 00
0F 00
0F 00
0C 00
0C 00
ENDCHAR
STARTCHAR uni031A
ENCODING 794
BBX 12 26 0 -4
DWIDTH 12 0
SWIDTH 480 0
BITMAP
00 00
00 00
03 F0
03 F0
00 30
00 30
00 30
00 30
00 00
00 00
00 00
00 00
00 00
00 00
00 00
00 00
00 00
00 00
00 00
00 00
00 00
00 00
00 00
00 00
00 00
00 00
ENDCHAR
STARTCHAR uni031B
ENCODING 795
BBX 12 26 0 -4
DWIDTH 12 0
SWIDTH 480 0
BITMAP
00 00
00 00
00 00
00 00
00 30
00 30
00 30
00 30
00 C0
00 C0
00 00
00 00
00 00
00 00
00 00
00 00
00 00
00 00
00 00
00 00
00 00
00 00
00 00
00 00
00 00
00 00
ENDCHAR
STARTCHAR uni031C
ENCODING 796
BBX 12 26 0 -4
DWIDTH 12 0
SWIDTH 480 0
BITMAP
00 00
00 00
00 00
00 00
00 00
00 00
00 00
00 00
00 00
00 00
00 00
00 00
00 00
00 00
00 00
00 00
00 00
00 00
00 00
00 00
03 00
03 00
0C 00
0C 00
03 00
03 00
ENDCHAR
STARTCHAR uni031D
ENCODING 797
BBX 12 26 0 -4
DWIDTH 12 0
SWIDTH 480 0
BITMAP
00 00
00 00
00 00
00 00
00 00
00 00
00 00
00 00
00 00
00 00
00 00
00 00
00 00
00 00
00 00
00 00
00 00
00 00
00 00
00 00
00 00
00 00
0C 00
0C 00
3F 00
3F 00
ENDCHAR
STARTCHAR uni031E
ENCODING 798
BBX 12 26 0 -4
DWIDTH 12 0
SWIDTH 480 0
BITMAP
00 00
00 00
00 00
00 00
00 00
00 00
00 00
00 00
00 00
00 00
00 00
00 00
00 00
00 00
00 00
00 00
00 00
00 00
00 00
00 00
00 00
00 00
3F 00
3F 00
0C 00
0C 00
ENDCHAR
STARTCHAR uni031F
ENCODING 799
BBX 12 26 0 -4
DWIDTH 12 0
SWIDTH 480 0
BITMAP
00 00
00 00
00 00
00 00
00 00
00 00
00 00
00 00
00 00
00 00
00 00
00 00
00 00
00 00
00 00
00 00
00 00
00 00
00 00
00 00
0C 00
0C 00
3F 00
3F 00
0C 00
0C 00
ENDCHAR
STARTCHAR uni0320
ENCODING 800
BBX 12 26 0 -4
DWIDTH 12 0
SWIDTH 480 0
BITMAP
00 00
00 00
00 00
00 00
00 00
00 00
00 00
00 00
00 00
00 00
00 00
00 00
00 00
00 00
00 00
00 00
00 00
00 00
00 00
00 00
00 00
00 00
00 00
00 00
3F 00
3F 00
ENDCHAR
STARTCHAR uni0321
ENCODING 801
BBX 12 26 0 -4
DWIDTH 12 0
SWIDTH 480 0
BITMAP
00 00
00 00
00 00
00 00
00 00
00 00
00 00
00 00
00 00
00 00
00 00
00 00
00 00
00 00
00 00
00 00
00 00
00 00
00 00
00 00
00 C0
00 C0
0C C0
0C C0
03 00
03 00
ENDCHAR
STARTCHAR uni0322
ENCODING 802
BBX 12 26 0 -4
DWIDTH 12 0
SWIDTH 480 0
BITMAP
00 00
00 00
00 00
00 00
00 00
00 00
00 00
00 00
00 00
00 00
00 00
00 00
00 00
00 00
00 00
00 00
00 00
00 00
00 00
00 00
00 C0
00 C0
00 C0
00 C0
00 30
00 30
ENDCHAR
STARTCHAR dotbelowcomb
ENCODING 803
BBX 12 26 0 -4
DWIDTH 12 0
SWIDTH 480 0
BITMAP
00 00
00 00
00 00
00 00
00 00
00 00
00 00
00 00
00 00
00 00
00 00
00 00
00 00
00 00
00 00
00 00
00 00
00 00
00 00
00 00
00 00
00 00
00 00
00 00
0C 00
0C 00
ENDCHAR
STARTCHAR uni0324
ENCODING 804
BBX 12 26 0 -4
DWIDTH 12 0
SWIDTH 480 0
BITMAP
00 00
00 00
00 00
00 00
00 00
00 00
00 00
00 00
00 00
00 00
00 00
00 00
00 00
00 00
00 00
00 00
00 00
00 00
00 00
00 00
00 00
00 00
00 00
00 00
33 00
33 00
ENDCHAR
STARTCHAR uni0325
ENCODING 805
BBX 12 26 0 -4
DWIDTH 12 0
SWIDTH 480 0
BITMAP
00 00
00 00
00 00
00 00
00 00
00 00
00 00
00 00
00 00
00 00
00 00
00 00
00 00
00 00
00 00
00 00
00 00
00 00
00 00
00 00
0C 00
0C 00
33 00
33 00
0C 00
0C 00
ENDCHAR
STARTCHAR uni0326
ENCODING 806
BBX 12 26 0 -4
DWIDTH 12 0
SWIDTH 480 0
BITMAP
00 00
00 00
00 00
00 00
00 00
00 00
00 00
00 00
00 00
00 00
00 00
00 00
00 00
00 00
00 00
00 00
00 00
00 00
00 00
00 00
00 00
00 00
03 00
03 00
0C 00
0C 00
ENDCHAR
STARTCHAR uni0327
ENCODING 807
BBX 12 26 0 -4
DWIDTH 12 0
SWIDTH 480 0
BITMAP
00 00
00 00
00 00
00 00
00 00
00 00
00 00
00 00
00 00
00 00
00 00
00 00
00 00
00 00
00 00
00 00
00 00
00 00
00 00
00 00
00 00
00 00
03 00
03 00
0C 00
0C 00
ENDCHAR
STARTCHAR uni0328
ENCODING 808
BBX 12 26 0 -4
DWIDTH 12 0
SWIDTH 480 0
BITMAP
00 00
00 00
00 00
00 00
00 00
00 00
00 00
00 00
00 00
00 00
00 00
00 00
00 00
00 00
00 00
00 00
00 00
00 00
00 00
00 00
00 00
00 00
0C 00
0C 00
03 00
03 00
ENDCHAR
STARTCHAR uni0329
ENCODING 809
BBX 12 26 0 -4
DWIDTH 12 0
SWIDTH 480 0
BITMAP
00 00
00 00
00 00
00 00
00 00
00 00
00 00
00 00
00 00
00 00
00 00
00 00
00 00
00 00
00 00
00 00
00 00
00 00
00 00
00 00
00 00
00 00
0C 00
0C 00
0C 00
0C 00
ENDCHAR
STARTCHAR uni032A
ENCODING 810
BBX 12 26 0 -4
DWIDTH 12 0
SWIDTH 480 0
BITMAP
00 00
00 00
00 00
00 00
00 00
00 00
00 00
00 00
00 00
00 00
00 00
00 00
00 00
00 00
00 00
00 00
00 00
00 00
00 00
00 00
00 00
00 00
3F C0
3F C0
30 C0
30 C0
ENDCHAR
STARTCHAR uni032B
ENCODING 811
BBX 12 26 0 -4
DWIDTH 12 0
SWIDTH 480 0
BITMAP
00 00
00 00
00 00
00 00
00 00
00 00
00 00
00 00
00 00
00 00
00 00
00 00
00 00
00 00
00 00
00 00
00 00
00 00
00 00
00 00
00 00
00 00
CC C0
CC C0
33 00
33 00
ENDCHAR
STARTCHAR uni032C
ENCODING 812
BBX 12 26 0 -4
DWIDTH 12 0
SWIDTH 480 0
BITMAP
00 00
00 00
00 00
00 00
00 00
00 00
00 00
00 00
00 00
00 00
00 00
00 00
00 00
00 00
00 00
00 00
00 00
00 00
00 00
00 00
00 00
00 00
30 C0
30 C0
0F 00
0F 00
ENDCHAR
STARTCHAR uni032D
ENCODING 813
BBX 12 26 0 -4
DWIDTH 12 0
SWIDTH 480 0
BITMAP
00 00
00 00
00 00
00 00
00 00
00 00
00 00
00 00
00 00
00 00
00 00
00 00
00 00
00 00
00 00
00 00
00 00
00 00
00 00
00 00
00 00
00 00
0F 00
0F 00
30 C0
30 C0
ENDCHAR
STARTCHAR uni032E
ENCODING 814
BBX 12 26 0 -4
DWIDTH 12 0
SWIDTH 480 0
BITMAP
00 00
00 00
00 00
00 00
00 00
00 00
00 00
00 00
00 00
00 00
00 00
00 00
00 00
00 00
00 00
00 00
00 00
00 00
00 00
00 00
00 00
00 00
C0 C0
C0 C0
3F 00
3F 00
ENDCHAR
STARTCHAR uni032F
ENCODING 815
BBX 12 26 0 -4
DWIDTH 12 0
SWIDTH 480 0
BITMAP
00 00
00 00
00 00
00 00
00 00
00 00
00 00
00 00
00 00
00 00
00 00
00 00
00 00
00 00
00 00
00 00
00 00
00 00
00 00
00 00
00 00
00 00
3F 00
3F 00
C0 C0
C0 C0
ENDCHAR
STARTCHAR uni0330
ENCODING 816
BBX 12 26 0 -4
DWIDTH 12 0
SWIDTH 480 0
BITMAP
00 00
00 00
00 00
00 00
00 00
00 00
00 00
00 00
00 00
00 00
00 00
00 00
00 00
00 00
00 00
00 00
00 00
00 00
00 00
00 00
00 00
00 00
0C C0
0C C0
33 00
33 00
ENDCHAR
STARTCHAR uni0331
ENCODING 817
BBX 12 26 0 -4
DWIDTH 12 0
SWIDTH 480 0
BITMAP
00 00
00 00
00 00
00 00
00 00
00 00
00 00
00 00
00 00
00 00
00 00
00 00
00 00
00 00
00 00
00 00
00 00
00 00
00 00
00 00
00 00
00 00
00 00
00 00
FF C0
FF C0
ENDCHAR
STARTCHAR uni0332
ENCODING 818
BBX 12 26 0 -4
DWIDTH 12 0
SWIDTH 480 0
BITMAP
00 00
00 00
00 00
00 00
00 00
00 00
00 00
00 00
00 00
00 00
00 00
00 00
00 00
00 00
00 00
00 00
00 00
00 00
00 00
00 00
00 00
00 00
00 00
00 00
FF F0
FF F0
ENDCHAR
STARTCHAR uni0333
ENCODING 819
BBX 12 26 0 -4
DWIDTH 12 0
SWIDTH 480 0
BITMAP
00 00
00 00
00 00
00 00
00 00
00 00
00 00
00 00
00 00
00 00
00 00
00 00
00 00
00 00
00 00
00 00
00 00
00 00
00 00
00 00
FF F0
FF F0
00 00
00 00
FF F0
FF F0
ENDCHAR
STARTCHAR uni0334
ENCODING 820
BBX 12 26 0 -4
DWIDTH 12 0
SWIDTH 480 0
BITMAP
00 00
00 00
00 00
00 00
00 00
00 00
00 00
00 00
00 00
00 00
00 00
00 00
00 00
00 00
0C C0
0C C0
33 00
33 00
00 00
00 00
00 00
00 00
00 00
00 00
00 00
00 00
ENDCHAR
STARTCHAR uni0335
ENCODING 821
BBX 12 26 0 -4
DWIDTH 12 0
SWIDTH 480 0
BITMAP
00 00
00 00
00 00
00 00
00 00
00 00
00 00
00 00
00 00
00 00
00 00
00 00
00 00
00 00
3F 00
3F 00
00 00
00 00
00 00
00 00
00 00
00 00
00 00
00 00
00 00
00 00
ENDCHAR
STARTCHAR uni0336
ENCODING 822
BBX 12 26 0 -4
DWIDTH 12 0
SWIDTH 480 0
BITMAP
00 00
00 00
00 00
00 00
00 00
00 00
00 00
00 00
00 00
00 00
00 00
00 00
00 00
00 00
FF C0
FF C0
00 00
00 00
00 00
00 00
00 00
00 00
00 00
00 00
00 00
00 00
ENDCHAR
STARTCHAR uni0337
ENCODING 823
BBX 12 26 0 -4
DWIDTH 12 0
SWIDTH 480 0
BITMAP
00 00
00 00
00 00
00 00
00 00
00 00
00 00
00 00
00 00
00 00
00 00
00 00
03 00
03 00
0C 00
0C 00
30 00
30 00
00 00
00 00
00 00
00 00
00 00
00 00
00 00
00 00
ENDCHAR
STARTCHAR uni0338
ENCODING 824
BBX 12 26 0 -4
DWIDTH 12 0
SWIDTH 480 0
BITMAP
00 00
00 00
00 00
00 00
00 C0
00 C0
00 C0
00 C0
03 00
03 00
03 00
03 00
0C 00
0C 00
30 00
30 00
30 00
30 00
C0 00
C0 00
C0 00
C0 00
00 00
00 00
00 00
00 00
ENDCHAR
STARTCHAR uni0339
ENCODING 825
BBX 12 26 0 -4
DWIDTH 12 0
SWIDTH 480 0
BITMAP
00 00
00 00
00 00
00 00
00 00
00 00
00 00
00 00
00 00
00 00
00 00
00 00
00 00
00 00
00 00
00 00
00 00
00 00
00 00
00 00
0C 00
0C 00
03 00
03 00
0C 00
0C 00
ENDCHAR
STARTCHAR uni033A
ENCODING 826
BBX 12 26 0 -4
DWIDTH 12 0
SWIDTH 480 0
BITMAP
00 00
00 00
00 00
00 00
00 00
00 00
00 00
00 00
00 00
00 00
00 00
00 00
00 00
00 00
00 00
00 00
00 00
00 00
00 00
00 00
00 00
00 00
30 C0
30 C0
3F C0
3F C0
ENDCHAR
STARTCHAR uni033B
ENCODING 827
BBX 12 26 0 -4
DWIDTH 12 0
SWIDTH 480 0
BITMAP
00 00
00 00
00 00
00 00
00 00
00 00
00 00
00 00
00 00
00 00
00 00
00 00
00 00
00 00
00 00
00 00
00 00
00 00
00 00
00 00
3F 00
3F 00
33 00
33 00
3F 00
3F 00
ENDCHAR
STARTCHAR uni033C
ENCODING 828
BBX 12 26 0 -4
DWIDTH 12 0
SWIDTH 480 0
BITMAP
00 00
00 00
00 00
00 00
00 00
00 00
00 00
00 00
00 00
00 00
00 00
00 00
00 00
00 00
00 00
00 00
00 00
00 00
00 00
00 00
00 00
00 00
33 00
33 00
CC C0
CC C0
ENDCHAR
STARTCHAR uni033D
ENCODING 829
BBX 12 26 0 -4
DWIDTH 12 0
SWIDTH 480 0
BITMAP
33 00
33 00
0C 00
0C 00
33 00
33 00
00 00
00 00
00 00
00 00
00 00
00 00
00 00
00 00
00 00
00 00
00 00
00 00
00 00
00 00
00 00
00 00
00 00
00 00
00 00
00 00
ENDCHAR
STARTCHAR uni033E
ENCODING 830
BBX 12 26 0 -4
DWIDTH 12 0
SWIDTH 480 0
BITMAP
03 00
03 00
0C 00
0C 00
03 00
03 00
0C 00
0C 00
00 00
00 00
00 00
00 00
00 00
00 00
00 00
00 00
00 00
00 00
00 00
00 00
00 00
00 00
00 00
00 00
00 00
00 00
ENDCHAR
STARTCHAR uni033F
ENCODING 831
BBX 12 26 0 -4
DWIDTH 12 0
SWIDTH 480 0
BITMAP
FF F0
FF F0
00 00
00 00
FF F0
FF F0
00 00
00 00
00 00
00 00
00 00
00 00
00 00
00 00
00 00
00 00
00 00
00 00
00 00
00 00
00 00
00 00
00 00
00 00
00 00
00 00
ENDCHAR
STARTCHAR uni0340
ENCODING 832
BBX 12 26 0 -4
DWIDTH 12 0
SWIDTH 480 0
BITMAP
00 00
00 00
C0 00
C0 00
30 00
30 00
00 00
00 00
00 00
00 00
00 00
00 00
00 00
00 00
00 00
00 00
00 00
00 00
00 00
00 00
00 00
00 00
00 00
00 00
00 00
00 00
ENDCHAR
STARTCHAR uni0341
ENCODING 833
BBX 12 26 0 -4
DWIDTH 12 0
SWIDTH 480 0
BITMAP
00 00
00 00
00 30
00 30
00 C0
00 C0
00 00
00 00
00 00
00 00
00 00
00 00
00 00
00 00
00 00
00 00
00 00
00 00
00 00
00 00
00 00
00 00
00 00
00 00
00 00
00 00
ENDCHAR
STARTCHAR uni0342
ENCODING 834
BBX 12 26 0 -4
DWIDTH 12 0
SWIDTH 480 0
BITMAP
3C C0
3C C0
CF 00
CF 00
00 00
00 00
00 00
00 00
00 00
00 00
00 00
00 00
00 00
00 00
00 00
00 00
00 00
00 00
00 00
00 00
00 00
00 00
00 00
00 00
00 00
00 00
ENDCHAR
STARTCHAR uni0343
ENCODING 835
BBX 12 26 0 -4
DWIDTH 12 0
SWIDTH 480 0
BITMAP
00 00
00 00
0F 00
0F 00
03 00
03 00
0C 00
0C 00
00 00
00 00
00 00
00 00
00 00
00 00
00 00
00 00
00 00
00 00
00 00
00 00
00 00
00 00
00 00
00 00
00 00
00 00
ENDCHAR
STARTCHAR uni0344
ENCODING 836
BBX 12 26 0 -4
DWIDTH 12 0
SWIDTH 480 0
BITMAP
00 00
00 00
03 00
03 00
0C 00
0C 00
F3 C0
F3 C0
00 00
00 00
00 00
00 00
00 00
00 00
00 00
00 00
00 00
00 00
00 00
00 00
00 00
00 00
00 00
00 00
00 00
00 00
ENDCHAR
STARTCHAR uni0345
ENCODING 837
BBX 12 26 0 -4
DWIDTH 12 0
SWIDTH 480 0
BITMAP
00 00
00 00
00 00
00 00
00 00
00 00
00 00
00 00
00 00
00 00
00 00
00 00
00 00
00 00
00 00
00 00
00 00
00 00
00 00
00 00
00 00
00 00
00 00
00 00
0C 00
0C 00
ENDCHAR
STARTCHAR uni0346
ENCODING 838
BBX 12 26 0 -4
DWIDTH 12 0
SWIDTH 480 0
BITMAP
00 00
00 00
3F 00
3F 00
33 00
33 00
00 00
00 00
00 00
00 00
00 00
00 00
00 00
00 00
00 00
00 00
00 00
00 00
00 00
00 00
00 00
00 00
00 00
00 00
00 00
00 00
ENDCHAR
STARTCHAR uni0347
ENCODING 839
BBX 12 26 0 -4
DWIDTH 12 0
SWIDTH 480 0
BITMAP
00 00
00 00
00 00
00 00
00 00
00 00
00 00
00 00
00 00
00 00
00 00
00 00
00 00
00 00
00 00
00 00
00 00
00 00
00 00
00 00
3F 00
3F 00
00 00
00 00
3F 00
3F 00
ENDCHAR
STARTCHAR uni0348
ENCODING 840
BBX 12 26 0 -4
DWIDTH 12 0
SWIDTH 480 0
BITMAP
00 00
00 00
00 00
00 00
00 00
00 00
00 00
00 00
00 00
00 00
00 00
00 00
00 00
00 00
00 00
00 00
00 00
00 00
00 00
00 00
00 00
00 00
33 00
33 00
33 00
33 00
ENDCHAR
STARTCHAR uni0349
ENCODING 841
BBX 12 26 0 -4
DWIDTH 12 0
SWIDTH 480 0
BITMAP
00 00
00 00
00 00
00 00
00 00
00 00
00 00
00 00
00 00
00 00
00 00
00 00
00 00
00 00
00 00
00 00
00 00
00 00
00 00
00 00
00 00
00 00
0F 00
0F 00
03 00
03 00
ENDCHAR
STARTCHAR uni034A
ENCODING 842
BBX 12 26 0 -4
DWIDTH 12 0
SWIDTH 480 0
BITMAP
03 00
03 00
3C C0
3C C0
CF 00
CF 00
30 00
30 00
00 00
00 00
00 00
00 00
00 00
00 00
00 00
00 00
00 00
00 00
00 00
00 00
00 00
00 00
00 00
00 00
00 00
00 00
ENDCHAR
STARTCHAR uni034B
ENCODING 843
BBX 12 26 0 -4
DWIDTH 12 0
SWIDTH 480 0
BITMAP
03 00
03 00
00 00
00 00
3C C0
3C C0
CF 00
CF 00
00 00
00 00
30 00
30 00
00 00
00 00
00 00
00 00
00 00
00 00
00 00
00 00
00 00
00 00
00 00
00 00
00 00
00 00
ENDCHAR
STARTCHAR uni034C
ENCODING 844
BBX 12 26 0 -4
DWIDTH 12 0
SWIDTH 480 0
BITMAP
0C C0
0C C0
33 00
33 00
0C C0
0C C0
33 00
33 00
00 00
00 00
00 00
00 00
00 00
00 00
00 00
00 00
00 00
00 00
00 00
00 00
00 00
00 00
00 00
00 00
00 00
00 00
ENDCHAR
STARTCHAR uni034D
ENCODING 845
BBX 12 26 0 -4
DWIDTH 12 0
SWIDTH 480 0
BITMAP
00 00
00 00
00 00
00 00
00 00
00 00
00 00
00 00
00 00
00 00
00 00
00 00
00 00
00 00
00 00
00 00
00 00
00 00
00 00
00 00
33 00
33 00
FF C0
FF C0
33 00
33 00
ENDCHAR
STARTCHAR uni034E
ENCODING 846
BBX 12 26 0 -4
DWIDTH 12 0
SWIDTH 480 0
BITMAP
00 00
00 00
00 00
00 00
00 00
00 00
00 00
00 00
00 00
00 00
00 00
00 00
00 00
00 00
00 00
00 00
00 00
00 00
00 00
00 00
00 00
00 00
0C 00
0C 00
3F 00
3F 00
ENDCHAR
STARTCHAR uni034F
ENCODING 847
BBX 12 26 0 -4
DWIDTH 12 0
SWIDTH 480 0
BITMAP
00 00
00 00
00 00
00 00
00 00
00 00
00 00
00 00
00 00
00 00
00 00
00 00
00 00
00 00
00 00
00 00
00 00
00 00
00 00
00 00
00 00
00 00
00 00
00 00
00 00
00 00
ENDCHAR
STARTCHAR uni0360
ENCODING 864
BBX 12 26 0 -4
DWIDTH 12 0
SWIDTH 480 0
BITMAP
00 00
00 00
0F 00
0F 00
30 F0
30 F0
00 00
00 00
00 00
00 00
00 00
00 00
00 00
00 00
00 00
00 00
00 00
00 00
00 00
00 00
00 00
00 00
00 00
00 00
00 00
00 00
ENDCHAR
STARTCHAR uni0361
ENCODING 865
BBX 12 26 0 -4
DWIDTH 12 0
SWIDTH 480 0
BITMAP
00 00
00 00
0F C0
0F C0
30 30
30 30
00 00
00 00
00 00
00 00
00 00
00 00
00 00
00 00
00 00
00 00
00 00
00 00
00 00
00 00
00 00
00 00
00 00
00 00
00 00
00 00
ENDCHAR
STARTCHAR uni0362
ENCODING 866
BBX 12 26 0 -4
DWIDTH 12 0
SWIDTH 480 0
BITMAP
00 00
00 00
00 00
00 00
00 00
00 00
00 00
00 00
00 00
00 00
00 00
00 00
00 00
00 00
00 00
00 00
00 00
00 00
00 00
00 00
00 C0
00 C0
FF F0
FF F0
00 C0
00 C0
ENDCHAR
STARTCHAR uni0363
ENCODING 867
BBX 12 26 0 -4
DWIDTH 12 0
SWIDTH 480 0
BITMAP
0C 00
0C 00
03 00
03 00
0F 00
0F 00
33 00
33 00
0F 00
0F 00
00 00
00 00
00 00
00 00
00 00
00 00
00 00
00 00
00 00
00 00
00 00
00 00
00 00
00 00
00 00
00 00
ENDCHAR
STARTCHAR uni0364
ENCODING 868
BBX 12 26 0 -4
DWIDTH 12 0
SWIDTH 480 0
BITMAP
0C 00
0C 00
33 00
33 00
3F 00
3F 00
30 00
30 00
0F 00
0F 00
00 00
00 00
00 00
00 00
00 00
00 00
00 00
00 00
00 00
00 00
00 00
00 00
00 00
00 00
00 00
00 00
ENDCHAR
STARTCHAR uni0365
ENCODING 869
BBX 12 26 0 -4
DWIDTH 12 0
SWIDTH 480 0
BITMAP
0C 00
0C 00
00 00
00 00
0C 00
0C 00
0C 00
0C 00
00 00
00 00
00 00
00 00
00 00
00 00
00 00
00 00
00 00
00 00
00 00
00 00
00 00
00 00
00 00
00 00
00 00
00 00
ENDCHAR
STARTCHAR uni0366
ENCODING 870
BBX 12 26 0 -4
DWIDTH 12 0
SWIDTH 480 0
BITMAP
0F 00
0F 00
30 C0
30 C0
30 C0
30 C0
0F 00
0F 00
00 00
00 00
00 00
00 00
00 00
00 00
00 00
00 00
00 00
00 00
00 00
00 00
00 00
00 00
00 00
00 00
00 00
00 00
ENDCHAR
STARTCHAR uni0367
ENCODING 871
BBX 12 26 0 -4
DWIDTH 12 0
SWIDTH 480 0
BITMAP
33 00
33 00
33 00
33 00
0F 00
0F 00
00 00
00 00
00 00
00 00
00 00
00 00
00 00
00 00
00 00
00 00
00 00
00 00
00 00
00 00
00 00
00 00
00 00
00 00
00 00
00 00
ENDCHAR
STARTCHAR uni0368
ENCODING 872
BBX 12 26 0 -4
DWIDTH 12 0
SWIDTH 480 0
BITMAP
0F 00
0F 00
30 00
30 00
0F 00
0F 00
00 00
00 00
00 00
00 00
00 00
00 00
00 00
00 00
00 00
00 00
00 00
00 00
00 00
00 00
00 00
00 00
00 00
00 00
00 00
00 00
ENDCHAR
STARTCHAR uni0369
ENCODING 873
BBX 12 26 0 -4
DWIDTH 12 0
SWIDTH 480 0
BITMAP
03 00
03 00
0F 00
0F 00
33 00
33 00
0F 00
0F 00
00 00
00 00
00 00
00 00
00 00
00 00
00 00
00 00
00 00
00 00
00 00
00 00
00 00
00 00
00 00
00 00
00 00
00 00
ENDCHAR
STARTCHAR uni036A
ENCODING 874
BBX 12 26 0 -4
DWIDTH 12 0
SWIDTH 480 0
BITMAP
30 00
30 00
3C 00
3C 00
33 00
33 00
00 00
00 00
00 00
00 00
00 00
00 00
00 00
00 00
00 00
00 00
00 00
00 00
00 00
00 00
00 00
00 00
00 00
00 00
00 00
00 00
ENDCHAR
STARTCHAR uni036B
ENCODING 875
BBX 12 26 0 -4
DWIDTH 12 0
SWIDTH 480 0
BITMAP
F3 00
F3 00
CC C0
CC C0
CC C0
CC C0
00 00
00 00
00 00
00 00
00 00
00 00
00 00
00 00
00 00
00 00
00 00
00 00
00 00
00 00
00 00
00 00
00 00
00 00
00 00
00 00
ENDCHAR
STARTCHAR uni036C
ENCODING 876
BBX 12 26 0 -4
DWIDTH 12 0
SWIDTH 480 0
BITMAP
33 00
33 00
3C 00
3C 00
30 00
30 00
30 00
30 00
00 00
00 00
00 00
00 00
00 00
00 00
00 00
00 00
00 00
00 00
00 00
00 00
00 00
00 00
00 00
00 00
00 00
00 00
ENDCHAR
STARTCHAR uni036D
ENCODING 877
BBX 12 26 0 -4
DWIDTH 12 0
SWIDTH 480 0
BITMAP
0C 00
0C 00
3F 00
3F 00
0C 00
0C 00
0F 00
0F 00
00 00
00 00
00 00
00 00
00 00
00 00
00 00
00 00
00 00
00 00
00 00
00 00
00 00
00 00
00 00
00 00
00 00
00 00
ENDCHAR
STARTCHAR uni036E
ENCODING 878
BBX 12 26 0 -4
DWIDTH 12 0
SWIDTH 480 0
BITMAP
33 00
33 00
33 00
33 00
0C 00
0C 00
0C 00
0C 00
00 00
00 00
00 00
00 00
00 00
00 00
00 00
00 00
00 00
00 00
00 00
00 00
00 00
00 00
00 00
00 00
00 00
00 00
ENDCHAR
STARTCHAR uni036F
ENCODING 879
BBX 12 26 0 -4
DWIDTH 12 0
SWIDTH 480 0
BITMAP
33 00
33 00
0C 00
0C 00
33 00
33 00
00 00
00 00
00 00
00 00
00 00
00 00
00 00
00 00
00 00
00 00
00 00
00 00
00 00
00 00
00 00
00 00
00 00
00 00
00 00
00 00
ENDCHAR
STARTCHAR uni0374
ENCODING 884
BBX 12 26 0 -4
DWIDTH 12 0
SWIDTH 480 0
BITMAP
00 00
00 00
00 00
00 00
03 00
03 00
0C 00
0C 00
00 00
00 00
00 00
00 00
00 00
00 00
00 00
00 00
00 00
00 00
00 00
00 00
00 00
00 00
00 00
00 00
00 00
00 00
ENDCHAR
STARTCHAR uni0375
ENCODING 885
BBX 12 26 0 -4
DWIDTH 12 0
SWIDTH 480 0
BITMAP
00 00
00 00
00 00
00 00
00 00
00 00
00 00
00 00
00 00
00 00
00 00
00 00
00 00
00 00
00 00
00 00
00 00
00 00
00 00
00 00
00 00
00 00
03 00
03 00
0C 00
0C 00
ENDCHAR
STARTCHAR uni037A
ENCODING 890
BBX 12 26 0 -4
DWIDTH 12 0
SWIDTH 480 0
BITMAP
00 00
00 00
00 00
00 00
00 00
00 00
00 00
00 00
00 00
00 00
00 00
00 00
00 00
00 00
00 00
00 00
00 00
00 00
00 00
00 00
00 00
00 00
0C 00
0C 00
0F 00
0F 00
ENDCHAR
STARTCHAR uni037E
ENCODING 894
BBX 12 26 0 -4
DWIDTH 12 0
SWIDTH 480 0
BITMAP
00 00
00 00
00 00
00 00
00 00
00 00
00 00
00 00
0C 00
0C 00
3F 00
3F 00
0C 00
0C 00
00 00
00 00
00 00
00 00
0F 00
0F 00
0C 00
0C 00
30 00
30 00
00 00
00 00
ENDCHAR
STARTCHAR tonos
ENCODING 900
BBX 12 26 0 -4
DWIDTH 12 0
SWIDTH 480 0
BITMAP
00 00
00 00
00 00
00 00
03 00
03 00
0C 00
0C 00
00 00
00 00
00 00
00 00
00 00
00 00
00 00
00 00
00 00
00 00
00 00
00 00
00 00
00 00
00 00
00 00
00 00
00 00
ENDCHAR
STARTCHAR dieresistonos
ENCODING 901
BBX 12 26 0 -4
DWIDTH 12 0
SWIDTH 480 0
BITMAP
00 00
00 00
03 00
03 00
0C 00
0C 00
F3 C0
F3 C0
00 00
00 00
00 00
00 00
00 00
00 00
00 00
00 00
00 00
00 00
00 00
00 00
00 00
00 00
00 00
00 00
00 00
00 00
ENDCHAR
STARTCHAR Alphatonos
ENCODING 902
BBX 12 26 0 -4
DWIDTH 12 0
SWIDTH 480 0
BITMAP
00 00
00 00
00 00
00 00
33 00
33 00
CC C0
CC C0
0C C0
0C C0
0C C0
0C C0
0C C0
0C C0
0F C0
0F C0
0C C0
0C C0
0C C0
0C C0
0C C0
0C C0
00 00
00 00
00 00
00 00
ENDCHAR
STARTCHAR anoteleia
ENCODING 903
BBX 12 26 0 -4
DWIDTH 12 0
SWIDTH 480 0
BITMAP
00 00
00 00
00 00
00 00
00 00
00 00
00 00
00 00
00 00
00 00
0C 00
0C 00
3F 00
3F 00
0C 00
0C 00
00 00
00 00
00 00
00 00
00 00
00 00
00 00
00 00
00 00
00 00
ENDCHAR
STARTCHAR Epsilontonos
ENCODING 904
BBX 12 26 0 -4
DWIDTH 12 0
SWIDTH 480 0
BITMAP
00 00
00 00
00 00
00 00
3F C0
3F C0
CC 00
CC 00
0C 00
0C 00
0C 00
0C 00
0F 00
0F 00
0C 00
0C 00
0C 00
0C 00
0C 00
0C 00
0F C0
0F C0
00 00
00 00
00 00
00 00
ENDCHAR
STARTCHAR Etatonos
ENCODING 905
BBX 12 26 0 -4
DWIDTH 12 0
SWIDTH 480 0
BITMAP
00 00
00 00
00 00
00 00
3C C0
3C C0
CC C0
CC C0
0C C0
0C C0
0C C0
0C C0
0F C0
0F C0
0C C0
0C C0
0C C0
0C C0
0C C0
0C C0
0C C0
0C C0
00 00
00 00
00 00
00 00
ENDCHAR
STARTCHAR Iotatonos
ENCODING 906
BBX 12 26 0 -4
DWIDTH 12 0
SWIDTH 480 0
BITMAP
00 00
00 00
00 00
00 00
3F C0
3F C0
C3 00
C3 00
03 00
03 00
03 00
03 00
03 00
03 00
03 00
03 00
03 00
03 00
03 00
03 00
0F C0
0F C0
00 00
00 00
00 00
00 00
ENDCHAR
STARTCHAR Omicrontonos
ENCODING 908
BBX 12 26 0 -4
DWIDTH 12 0
SWIDTH 480 0
BITMAP
00 00
00 00
00 00
00 00
33 00
33 00
CC C0
CC C0
0C C0
0C C0
0C C0
0C C0
0C C0
0C C0
0C C0
0C C0
0C C0
0C C0
0C C0
0C C0
03 00
03 00
00 00
00 00
00 00
00 00
ENDCHAR
STARTCHAR Upsilontonos
ENCODING 910
BBX 12 26 0 -4
DWIDTH 12 0
SWIDTH 480 0
BITMAP
00 00
00 00
00 00
00 00
3C C0
3C C0
CC C0
CC C0
0C C0
0C C0
0C C0
0C C0
03 00
03 00
03 00
03 00
03 00
03 00
03 00
03 00
03 00
03 00
00 00
00 00
00 00
00 00
ENDCHAR
STARTCHAR Omegatonos
ENCODING 911
BBX 12 26 0 -4
DWIDTH 12 0
SWIDTH 480 0
BITMAP
00 00
00 00
00 00
00 00
33 00
33 00
CC C0
CC C0
0C C0
0C C0
0C C0
0C C0
0C C0
0C C0
0C C0
0C C0
03 00
03 00
03 00
03 00
0C C0
0C C0
00 00
00 00
00 00
00 00
ENDCHAR
STARTCHAR iotadieresistonos
ENCODING 912
BBX 12 26 0 -4
DWIDTH 12 0
SWIDTH 480 0
BITMAP
00 00
00 00
03 00
03 00
0C 00
0C 00
F3 C0
F3 C0
00 00
00 00
0C 00
0C 00
0C 00
0C 00
0C 00
0C 00
0C 00
0C 00
0C C0
0C C0
03 00
03 00
00 00
00 00
00 00
00 00
ENDCHAR
STARTCHAR Alpha
ENCODING 913
BBX 12 26 0 -4
DWIDTH 12 0
SWIDTH 480 0
BITMAP
00 00
00 00
00 00
00 00
0C 00
0C 00
33 00
33 00
C0 C0
C0 C0
C0 C0
C0 C0
C0 C0
C0 C0
FF C0
FF C0
C0 C0
C0 C0
C0 C0
C0 C0
C0 C0
C0 C0
00 00
00 00
00 00
00 00
ENDCHAR
STARTCHAR Beta
ENCODING 914
BBX 12 26 0 -4
DWIDTH 12 0
SWIDTH 480 0
BITMAP
00 00
00 00
00 00
00 00
FF 00
FF 00
C0 C0
C0 C0
C0 C0
C0 C0
C0 C0
C0 C0
FF 00
FF 00
C0 C0
C0 C0
C0 C0
C0 C0
C0 C0
C0 C0
FF 00
FF 00
00 00
00 00
00 00
00 00
ENDCHAR
STARTCHAR Gamma
ENCODING 915
BBX 12 26 0 -4
DWIDTH 12 0
SWIDTH 480 0
BITMAP
00 00
00 00
00 00
00 00
FF C0
FF C0
C0 00
C0 00
C0 00
C0 00
C0 00
C0 00
C0 00
C0 00
C0 00
C0 00
C0 00
C0 00
C0 00
C0 00
C0 00
C0 00
00 00
00 00
00 00
00 00
ENDCHAR
STARTCHAR Delta
ENCODING 916
BBX 12 26 0 -4
DWIDTH 12 0
SWIDTH 480 0
BITMAP
00 00
00 00
00 00
00 00
0C 00
0C 00
0C 00
0C 00
33 00
33 00
33 00
33 00
33 00
33 00
C0 C0
C0 C0
C0 C0
C0 C0
C0 C0
C0 C0
FF C0
FF C0
00 00
00 00
00 00
00 00
ENDCHAR
STARTCHAR Epsilon
ENCODING 917
BBX 12 26 0 -4
DWIDTH 12 0
SWIDTH 480 0
BITMAP
00 00
00 00
00 00
00 00
FF C0
FF C0
C0 00
C0 00
C0 00
C0 00
C0 00
C0 00
FF 00
FF 00
C0 00
C0 00
C0 00
C0 00
C0 00
C0 00
FF C0
FF C0
00 00
00 00
00 00
00 00
ENDCHAR
STARTCHAR Zeta
ENCODING 918
BBX 12 26 0 -4
DWIDTH 12 0
SWIDTH 480 0
BITMAP
00 00
00 00
00 00
00 00
FF C0
FF C0
00 C0
00 C0
03 00
03 00
03 00
03 00
0C 00
0C 00
30 00
30 00
30 00
30 00
C0 00
C0 00
FF C0
FF C0
00 00
00 00
00 00
00 00
ENDCHAR
STARTCHAR Eta
ENCODING 919
BBX 12 26 0 -4
DWIDTH 12 0
SWIDTH 480 0
BITMAP
00 00
00 00
00 00
00 00
C0 C0
C0 C0
C0 C0
C0 C0
C0 C0
C0 C0
C0 C0
C0 C0
FF C0
FF C0
C0 C0
C0 C0
C0 C0
C0 C0
C0 C0
C0 C0
C0 C0
C0 C0
00 00
00 00
00 00
00 00
ENDCHAR
STARTCHAR Theta
ENCODING 920
BBX 12 26 0 -4
DWIDTH 12 0
SWIDTH 480 0
BITMAP
00 00
00 00
00 00
00 00
3F 00
3F 00
C0 C0
C0 C0
C0 C0
C0 C0
C0 C0
C0 C0
FF C0
FF C0
C0 C0
C0 C0
C0 C0
C0 C0
C0 C0
C0 C0
3F 00
3F 00
00 00
00 00
00 00
00 00
ENDCHAR
STARTCHAR Iota
ENCODING 921
BBX 12 26 0 -4
DWIDTH 12 0
SWIDTH 480 0
BITMAP
00 00
00 00
00 00
00 00
3F 00
3F 00
0C 00
0C 00
0C 00
0C 00
0C 00
0C 00
0C 00
0C 00
0C 00
0C 00
0C 00
0C 00
0C 00
0C 00
3F 00
3F 00
00 00
00 00
00 00
00 00
ENDCHAR
STARTCHAR Kappa
ENCODING 922
BBX 12 26 0 -4
DWIDTH 12 0
SWIDTH 480 0
BITMAP
00 00
00 00
00 00
00 00
C0 C0
C0 C0
C0 C0
C0 C0
C3 00
C3 00
CC 00
CC 00
F0 00
F0 00
CC 00
CC 00
C3 00
C3 00
C0 C0
C0 C0
C0 C0
C0 C0
00 00
00 00
00 00
00 00
ENDCHAR
STARTCHAR Lambda
ENCODING 923
BBX 12 26 0 -4
DWIDTH 12 0
SWIDTH 480 0
BITMAP
00 00
00 00
00 00
00 00
0C 00
0C 00
0C 00
0C 00
33 00
33 00
33 00
33 00
33 00
33 00
C0 C0
C0 C0
C0 C0
C0 C0
C0 C0
C0 C0
C0 C0
C0 C0
00 00
00 00
00 00
00 00
ENDCHAR
STARTCHAR Mu
ENCODING 924
BBX 12 26 0 -4
DWIDTH 12 0
SWIDTH 480 0
BITMAP
00 00
00 00
00 00
00 00
C0 C0
C0 C0
C0 C0
C0 C0
F3 C0
F3 C0
CC C0
CC C0
CC C0
CC C0
C0 C0
C0 C0
C0 C0
C0 C0
C0 C0
C0 C0
C0 C0
C0 C0
00 00
00 00
00 00
00 00
ENDCHAR
STARTCHAR Nu
ENCODING 925
BBX 12 26 0 -4
DWIDTH 12 0
SWIDTH 480 0
BITMAP
00 00
00 00
00 00
00 00
C0 C0
C0 C0
F0 C0
F0 C0
F0 C0
F0 C0
CC C0
CC C0
CC C0
CC C0
C3 C0
C3 C0
C3 C0
C3 C0
C0 C0
C0 C0
C0 C0
C0 C0
00 00
00 00
00 00
00 00
ENDCHAR
STARTCHAR Xi
ENCODING 926
BBX 12 26 0 -4
DWIDTH 12 0
SWIDTH 480 0
BITMAP
00 00
00 00
00 00
00 00
FF C0
FF C0
00 00
00 00
00 00
00 00
00 00
00 00
3F 00
3F 00
00 00
00 00
00 00
00 00
00 00
00 00
FF C0
FF C0
00 00
00 00
00 00
00 00
ENDCHAR
STARTCHAR Omicron
ENCODING 927
BBX 12 26 0 -4
DWIDTH 12 0
SWIDTH 480 0
BITMAP
00 00
00 00
00 00
00 00
3F 00
3F 00
C0 C0
C0 C0
C0 C0
C0 C0
C0 C0
C0 C0
C0 C0
C0 C0
C0 C0
C0 C0
C0 C0
C0 C0
C0 C0
C0 C0
3F 00
3F 00
00 00
00 00
00 00
00 00
ENDCHAR
STARTCHAR Pi
ENCODING 928
BBX 12 26 0 -4
DWIDTH 12 0
SWIDTH 480 0
BITMAP
00 00
00 00
00 00
00 00
FF C0
FF C0
C0 C0
C0 C0
C0 C0
C0 C0
C0 C0
C0 C0
C0 C0
C0 C0
C0 C0
C0 C0
C0 C0
C0 C0
C0 C0
C0 C0
C0 C0
C0 C0
00 00
00 00
00 00
00 00
ENDCHAR
STARTCHAR Rho
ENCODING 929
BBX 12 26 0 -4
DWIDTH 12 0
SWIDTH 480 0
BITMAP
00 00
00 00
00 00
00 00
FF 00
FF 00
C0 C0
C0 C0
C0 C0
C0 C0
C0 C0
C0 C0
FF 00
FF 00
C0 00
C0 00
C0 00
C0 00
C0 00
C0 00
C0 00
C0 00
00 00
00 00
00 00
00 00
ENDCHAR
STARTCHAR Sigma
ENCODING 931
BBX 12 26 0 -4
DWIDTH 12 0
SWIDTH 480 0
BITMAP
00 00
00 00
00 00
00 00
FF C0
FF C0
C0 00
C0 00
30 00
30 00
0C 00
0C 00
03 00
03 00
0C 00
0C 00
30 00
30 00
C0 00
C0 00
FF C0
FF C0
00 00
00 00
00 00
00 00
ENDCHAR
STARTCHAR Tau
ENCODING 932
BBX 12 26 0 -4
DWIDTH 12 0
SWIDTH 480 0
BITMAP
00 00
00 00
00 00
00 00
FF C0
FF C0
0C 00
0C 00
0C 00
0C 00
0C 00
0C 00
0C 00
0C 00
0C 00
0C 00
0C 00
0C 00
0C 00
0C 00
0C 00
0C 00
00 00
00 00
00 00
00 00
ENDCHAR
STARTCHAR Upsilon
ENCODING 933
BBX 12 26 0 -4
DWIDTH 12 0
SWIDTH 480 0
BITMAP
00 00
00 00
00 00
00 00
C0 C0
C0 C0
C0 C0
C0 C0
33 00
33 00
33 00
33 00
0C 00
0C 00
0C 00
0C 00
0C 00
0C 00
0C 00
0C 00
0C 00
0C 00
00 00
00 00
00 00
00 00
ENDCHAR
STARTCHAR Phi
ENCODING 934
BBX 12 26 0 -4
DWIDTH 12 0
SWIDTH 480 0
BITMAP
00 00
00 00
00 00
00 00
0C 00
0C 00
3F 00
3F 00
CC C0
CC C0
CC C0
CC C0
CC C0
CC C0
CC C0
CC C0
3F 00
3F 00
0C 00
0C 00
0C 00
0C 00
00 00
00 00
00 00
00 00
ENDCHAR
STARTCHAR Chi
ENCODING 935
BBX 12 26 0 -4
DWIDTH 12 0
SWIDTH 480 0
BITMAP
00 00
00 00
00 00
00 00
C0 C0
C0 C0
C0 C0
C0 C0
33 00
33 00
33 00
33 00
0C 00
0C 00
33 00
33 00
33 00
33 00
C0 C0
C0 C0
C0 C0
C0 C0
00 00
00 00
00 00
00 00
ENDCHAR
STARTCHAR Psi
ENCODING 936
BBX 12 26 0 -4
DWIDTH 12 0
SWIDTH 480 0
BITMAP
00 00
00 00
00 00
00 00
CC C0
CC C0
CC C0
CC C0
CC C0
CC C0
CC C0
CC C0
CC C0
CC C0
3F 00
3F 00
0C 00
0C 00
0C 00
0C 00
0C 00
0C 00
00 00
00 00
00 00
00 00
ENDCHAR
STARTCHAR Omega
ENCODING 937
BBX 12 26 0 -4
DWIDTH 12 0
SWIDTH 480 0
BITMAP
00 00
00 00
00 00
00 00
3F 00
3F 00
C0 C0
C0 C0
C0 C0
C0 C0
C0 C0
C0 C0
C0 C0
C0 C0
C0 C0
C0 C0
33 00
33 00
33 00
33 00
F3 C0
F3 C0
00 00
00 00
00 00
00 00
ENDCHAR
STARTCHAR Iotadieresis
ENCODING 938
BBX 12 26 0 -4
DWIDTH 12 0
SWIDTH 480 0
BITMAP
00 00
00 00
F3 C0
F3 C0
00 00
00 00
3F 00
3F 00
0C 00
0C 00
0C 00
0C 00
0C 00
0C 00
0C 00
0C 00
0C 00
0C 00
0C 00
0C 00
3F 00
3F 00
00 00
00 00
00 00
00 00
ENDCHAR
STARTCHAR Upsilondieresis
ENCODING 939
BBX 12 26 0 -4
DWIDTH 12 0
SWIDTH 480 0
BITMAP
00 00
00 00
F3 C0
F3 C0
00 00
00 00
C0 C0
C0 C0
33 00
33 00
33 00
33 00
0C 00
0C 00
0C 00
0C 00
0C 00
0C 00
0C 00
0C 00
0C 00
0C 00
00 00
00 00
00 00
00 00
ENDCHAR
STARTCHAR alphatonos
ENCODING 940
BBX 12 26 0 -4
DWIDTH 12 0
SWIDTH 480 0
BITMAP
00 00
00 00
00 00
00 00
03 00
03 00
0C 00
0C 00
00 00
00 00
3F 00
3F 00
C0 C0
C0 C0
C0 C0
C0 C0
C0 C0
C0 C0
C3 C0
C3 C0
3C C0
3C C0
00 00
00 00
00 00
00 00
ENDCHAR
STARTCHAR epsilontonos
ENCODING 941
BBX 12 26 0 -4
DWIDTH 12 0
SWIDTH 480 0
BITMAP
00 00
00 00
00 00
00 00
03 00
03 00
0C 00
0C 00
00 00
00 00
3F 00
3F 00
C0 C0
C0 C0
3C 00
3C 00
C0 00
C0 00
C0 C0
C0 C0
3F 00
3F 00
00 00
00 00
00 00
00 00
ENDCHAR
STARTCHAR etatonos
ENCODING 942
BBX 12 26 0 -4
DWIDTH 12 0
SWIDTH 480 0
BITMAP
00 00
00 00
00 00
00 00
03 00
03 00
0C 00
0C 00
00 00
00 00
CF 00
CF 00
F0 C0
F0 C0
C0 C0
C0 C0
C0 C0
C0 C0
C0 C0
C0 C0
C0 C0
C0 C0
00 C0
00 C0
00 C0
00 C0
ENDCHAR
STARTCHAR iotatonos
ENCODING 943
BBX 12 26 0 -4
DWIDTH 12 0
SWIDTH 480 0
BITMAP
00 00
00 00
00 00
00 00
0C 00
0C 00
30 00
30 00
00 00
00 00
30 00
30 00
30 00
30 00
30 00
30 00
30 00
30 00
33 00
33 00
0C 00
0C 00
00 00
00 00
00 00
00 00
ENDCHAR
STARTCHAR upsilondieresistonos
ENCODING 944
BBX 12 26 0 -4
DWIDTH 12 0
SWIDTH 480 0
BITMAP
00 00
00 00
03 00
03 00
0C 00
0C 00
F3 C0
F3 C0
00 00
00 00
C0 C0
C0 C0
C0 C0
C0 C0
C0 C0
C0 C0
C0 C0
C0 C0
C0 C0
C0 C0
3F 00
3F 00
00 00
00 00
00 00
00 00
ENDCHAR
STARTCHAR alpha
ENCODING 945
BBX 12 26 0 -4
DWIDTH 12 0
SWIDTH 480 0
BITMAP
00 00
00 00
00 00
00 00
00 00
00 00
00 00
00 00
00 00
00 00
3F 00
3F 00
C0 C0
C0 C0
C0 C0
C0 C0
C0 C0
C0 C0
C3 C0
C3 C0
3C C0
3C C0
00 00
00 00
00 00
00 00
ENDCHAR
STARTCHAR beta
ENCODING 946
BBX 12 26 0 -4
DWIDTH 12 0
SWIDTH 480 0
BITMAP
00 00
00 00
00 00
00 00
3C 00
3C 00
C3 00
C3 00
C3 00
C3 00
FF 00
FF 00
C0 C0
C0 C0
C0 C0
C0 C0
C0 C0
C0 C0
F0 C0
F0 C0
CF 00
CF 00
C0 00
C0 00
C0 00
C0 00
ENDCHAR
STARTCHAR gamma
ENCODING 947
BBX 12 26 0 -4
DWIDTH 12 0
SWIDTH 480 0
BITMAP
00 00
00 00
00 00
00 00
00 00
00 00
00 00
00 00
00 00
00 00
C0 C0
C0 C0
C0 C0
C0 C0
C0 C0
C0 C0
33 00
33 00
33 00
33 00
0C 00
0C 00
0C 00
0C 00
0C 00
0C 00
ENDCHAR
STARTCHAR delta
ENCODING 948
BBX 12 26 0 -4
DWIDTH 12 0
SWIDTH 480 0
BITMAP
00 00
00 00
00 00
00 00
3F 00
3F 00
C0 C0
C0 C0
30 00
30 00
3F 00
3F 00
C0 C0
C0 C0
C0 C0
C0 C0
C0 C0
C0 C0
C0 C0
C0 C0
3F 00
3F 00
00 00
00 00
00 00
00 00
ENDCHAR
STARTCHAR epsilon
ENCODING 949
BBX 12 26 0 -4
DWIDTH 12 0
SWIDTH 480 0
BITMAP
00 00
00 00
00 00
00 00
00 00
00 00
00 00
00 00
00 00
00 00
3F 00
3F 00
C0 C0
C0 C0
3C 00
3C 00
C0 00
C0 00
C0 C0
C0 C0
3F 00
3F 00
00 00
00 00
00 00
00 00
ENDCHAR
STARTCHAR zeta
ENCODING 950
BBX 12 26 0 -4
DWIDTH 12 0
SWIDTH 480 0
BITMAP
00 00
00 00
00 00
00 00
FF C0
FF C0
0C 00
0C 00
30 00
30 00
30 00
30 00
C0 00
C0 00
C0 00
C0 00
C0 00
C0 00
C0 00
C0 00
3F 00
3F 00
00 C0
00 C0
03 00
03 00
ENDCHAR
STARTCHAR eta
ENCODING 951
BBX 12 26 0 -4
DWIDTH 12 0
SWIDTH 480 0
BITMAP
00 00
00 00
00 00
00 00
00 00
00 00
00 00
00 00
00 00
00 00
CF 00
CF 00
F0 C0
F0 C0
C0 C0
C0 C0
C0 C0
C0 C0
C0 C0
C0 C0
C0 C0
C0 C0
00 C0
00 C0
00 C0
00 C0
ENDCHAR
STARTCHAR theta
ENCODING 952
BBX 12 26 0 -4
DWIDTH 12 0
SWIDTH 480 0
BITMAP
00 00
00 00
00 00
00 00
3C 00
3C 00
C3 00
C3 00
C3 00
C3 00
C3 00
C3 00
FF 00
FF 00
C3 00
C3 00
C3 00
C3 00
C3 00
C3 00
3C 00
3C 00
00 00
00 00
00 00
00 00
ENDCHAR
STARTCHAR iota
ENCODING 953
BBX 12 26 0 -4
DWIDTH 12 0
SWIDTH 480 0
BITMAP
00 00
00 00
00 00
00 00
00 00
00 00
00 00
00 00
00 00
00 00
30 00
30 00
30 00
30 00
30 00
30 00
30 00
30 00
33 00
33 00
0C 00
0C 00
00 00
00 00
00 00
00 00
ENDCHAR
STARTCHAR kappa
ENCODING 954
BBX 12 26 0 -4
DWIDTH 12 0
SWIDTH 480 0
BITMAP
00 00
00 00
00 00
00 00
00 00
00 00
00 00
00 00
00 00
00 00
C0 C0
C0 C0
C3 00
C3 00
CC 00
CC 00
FC 00
FC 00
C3 00
C3 00
C0 C0
C0 C0
00 00
00 00
00 00
00 00
ENDCHAR
STARTCHAR lambda
ENCODING 955
BBX 12 26 0 -4
DWIDTH 12 0
SWIDTH 480 0
BITMAP
00 00
00 00
00 00
00 00
3F 00
3F 00
C0 C0
C0 C0
00 C0
00 C0
3C C0
3C C0
C3 C0
C3 C0
C0 C0
C0 C0
C0 C0
C0 C0
C0 C0
C0 C0
C0 C0
C0 C0
00 00
00 00
00 00
00 00
ENDCHAR
STARTCHAR mu
ENCODING 956
BBX 12 26 0 -4
DWIDTH 12 0
SWIDTH 480 0
BITMAP
00 00
00 00
00 00
00 00
00 00
00 00
00 00
00 00
00 00
00 00
C0 C0
C0 C0
C0 C0
C0 C0
C0 C0
C0 C0
C0 C0
C0 C0
C3 C0
C3 C0
FC C0
FC C0
C0 00
C0 00
C0 00
C0 00
ENDCHAR
STARTCHAR nu
ENCODING 957
BBX 12 26 0 -4
DWIDTH 12 0
SWIDTH 480 0
BITMAP
00 00
00 00
00 00
00 00
00 00
00 00
00 00
00 00
00 00
00 00
C0 C0
C0 C0
C0 C0
C0 C0
C0 C0
C0 C0
33 00
33 00
33 00
33 00
0C 00
0C 00
00 00
00 00
00 00
00 00
ENDCHAR
STARTCHAR xi
ENCODING 958
BBX 12 26 0 -4
DWIDTH 12 0
SWIDTH 480 0
BITMAP
00 00
00 00
00 00
00 00
FF C0
FF C0
0C 00
0C 00
30 00
30 00
30 00
30 00
0F 00
0F 00
30 00
30 00
C0 00
C0 00
C0 00
C0 00
3F 00
3F 00
00 C0
00 C0
03 00
03 00
ENDCHAR
STARTCHAR omicron
ENCODING 959
BBX 12 26 0 -4
DWIDTH 12 0
SWIDTH 480 0
BITMAP
00 00
00 00
00 00
00 00
00 00
00 00
00 00
00 00
00 00
00 00
3F 00
3F 00
C0 C0
C0 C0
C0 C0
C0 C0
C0 C0
C0 C0
C0 C0
C0 C0
3F 00
3F 00
00 00
00 00
00 00
00 00
ENDCHAR
STARTCHAR pi
ENCODING 960
BBX 12 26 0 -4
DWIDTH 12 0
SWIDTH 480 0
BITMAP
00 00
00 00
00 00
00 00
00 00
00 00
00 00
00 00
00 00
00 00
FF C0
FF C0
33 00
33 00
33 00
33 00
33 00
33 00
33 00
33 00
33 00
33 00
00 00
00 00
00 00
00 00
ENDCHAR
STARTCHAR rho
ENCODING 961
BBX 12 26 0 -4
DWIDTH 12 0
SWIDTH 480 0
BITMAP
00 00
00 00
00 00
00 00
00 00
00 00
00 00
00 00
00 00
00 00
3F 00
3F 00
C0 C0
C0 C0
C0 C0
C0 C0
C0 C0
C0 C0
C0 C0
C0 C0
FF 00
FF 00
C0 00
C0 00
C0 00
C0 00
ENDCHAR
STARTCHAR sigma1
ENCODING 962
BBX 12 26 0 -4
DWIDTH 12 0
SWIDTH 480 0
BITMAP
00 00
00 00
00 00
00 00
00 00
00 00
00 00
00 00
00 00
00 00
3F 00
3F 00
C0 C0
C0 C0
C0 00
C0 00
C0 00
C0 00
C0 00
C0 00
3F 00
3F 00
00 C0
00 C0
0F 00
0F 00
ENDCHAR
STARTCHAR sigma
ENCODING 963
BBX 12 26 0 -4
DWIDTH 12 0
SWIDTH 480 0
BITMAP
00 00
00 00
00 00
00 00
00 00
00 00
00 00
00 00
00 00
00 00
3F C0
3F C0
C3 00
C3 00
C0 C0
C0 C0
C0 C0
C0 C0
C0 C0
C0 C0
3F 00
3F 00
00 00
00 00
00 00
00 00
ENDCHAR
STARTCHAR tau
ENCODING 964
BBX 12 26 0 -4
DWIDTH 12 0
SWIDTH 480 0
BITMAP
00 00
00 00
00 00
00 00
00 00
00 00
00 00
00 00
00 00
00 00
FF C0
FF C0
0C 00
0C 00
0C 00
0C 00
0C 00
0C 00
0C 00
0C 00
03 00
03 00
00 00
00 00
00 00
00 00
ENDCHAR
STARTCHAR upsilon
ENCODING 965
BBX 12 26 0 -4
DWIDTH 12 0
SWIDTH 480 0
BITMAP
00 00
00 00
00 00
00 00
00 00
00 00
00 00
00 00
00 00
00 00
C0 C0
C0 C0
C0 C0
C0 C0
C0 C0
C0 C0
C0 C0
C0 C0
C0 C0
C0 C0
3F 00
3F 00
00 00
00 00
00 00
00 00
ENDCHAR
STARTCHAR phi
ENCODING 966
BBX 12 26 0 -4
DWIDTH 12 0
SWIDTH 480 0
BITMAP
00 00
00 00
00 00
00 00
00 00
00 00
00 00
00 00
00 00
00 00
CF 00
CF 00
CC C0
CC C0
CC C0
CC C0
CC C0
CC C0
CC C0
CC C0
3F 00
3F 00
0C 00
0C 00
0C 00
0C 00
ENDCHAR
STARTCHAR chi
ENCODING 967
BBX 12 26 0 -4
DWIDTH 12 0
SWIDTH 480 0
BITMAP
00 00
00 00
00 00
00 00
00 00
00 00
00 00
00 00
00 00
00 00
C0 C0
C0 C0
33 00
33 00
33 00
33 00
0C 00
0C 00
0C 00
0C 00
33 00
33 00
33 00
33 00
C0 C0
C0 C0
ENDCHAR
STARTCHAR psi
ENCODING 968
BBX 12 26 0 -4
DWIDTH 12 0
SWIDTH 480 0
BITMAP
00 00
00 00
00 00
00 00
00 00
00 00
00 00
00 00
00 00
00 00
CC C0
CC C0
CC C0
CC C0
CC C0
CC C0
CC C0
CC C0
CC C0
CC C0
3F 00
3F 00
0C 00
0C 00
0C 00
0C 00
ENDCHAR
STARTCHAR omega
ENCODING 969
BBX 12 26 0 -4
DWIDTH 12 0
SWIDTH 480 0
BITMAP
00 00
00 00
00 00
00 00
00 00
00 00
00 00
00 00
00 00
00 00
C0 C0
C0 C0
CC C0
CC C0
CC C0
CC C0
CC C0
CC C0
CC C0
CC C0
33 00
33 00
00 00
00 00
00 00
00 00
ENDCHAR
STARTCHAR iotadieresis
ENCODING 970
BBX 12 26 0 -4
DWIDTH 12 0
SWIDTH 480 0
BITMAP
00 00
00 00
00 00
00 00
00 00
00 00
F3 C0
F3 C0
00 00
00 00
0C 00
0C 00
0C 00
0C 00
0C 00
0C 00
0C 00
0C 00
0C C0
0C C0
03 00
03 00
00 00
00 00
00 00
00 00
ENDCHAR
ENDFONT
